<svg xmlns="http://www.w3.org/2000/svg" viewBox="0 0 115 154"><defs><style>.cls-1{fill:#fff;fill-rule:evenodd}</style></defs><path class="cls-1" d="M114.969 133.12l-8.226-99.3a4.072 4.072 0 0 0-3.938-3.87H85.881C85.646 13.38 73.013 0 57.498 0S29.351 13.38 29.116 29.95H12.192a4.05 4.05 0 0 0-3.937 3.87l-8.227 99.3c0 .12-.029.25-.029.37 0 11.31 9.666 20.51 21.566 20.51h71.867c11.9 0 21.567-9.2 21.567-20.51a1.542 1.542 0 0 0-.03-.37zM57.5 8.5c11.136 0 20.215 9.57 20.45 21.45h-40.9C37.284 18.07 46.363 8.5 57.5 8.5zm35.934 136.99H21.565c-7.463 0-13.516-5.29-13.634-11.81l7.875-95.2h13.28v12.91a3.976 3.976 0 1 0 7.933 0V38.48h40.929v12.91a3.976 3.976 0 1 0 7.933 0V38.48h13.281l7.9 95.2c-.113 6.52-6.196 11.81-13.63 11.81z"/></svg>