<svg xmlns="http://www.w3.org/2000/svg" viewBox="0 0 217.94 152.85"><defs><style>.cls-1{fill:#fff;}</style></defs><title>Cloud_1</title><polygon class="cls-1" points="23.82 30.73 21.65 133.96 212.32 142.79 201.49 19.79 120.21 26.62 108.43 8.62 89.99 27.29 23.82 30.73"/><path d="M245.85,67c-3.8,2.21-4.9-1.1-5.54-3.32C238.85,58.59,238,53.32,237,48.12c-1.31-6.45-1.92-6.84-8.32-5.2a28.71,28.71,0,0,1-9.44,1.23L235.85,37h2l8,27Z" transform="translate(-27.91 -37)"/><path d="M136.55,43.81l11.56,19.8-1.12.66L136.31,46.79c-3.35,4.48-6.45,8.57-9.5,12.69-3.89,5.26-8.62,8-15.63,7.91-16.81-.2-33.63.33-50.44.73-7.07.17-6.92.36-7.12,7.46-.78,28.64-1.66,57.27-2.49,85.91-.07,2.3,0,4.61,0,7.84l187,8.81-10.8-119.3c-7.78.87-15.29,1.81-22.82,2.54C188,63,171.46,64.47,154.91,66a5.2,5.2,0,0,1-2.47,0,33.6,33.6,0,0,1-4.33-2.36,13.13,13.13,0,0,1,4.18-1.71c14.53-1.43,29.07-2.7,43.61-4,10.73-1,21.47-1.94,32.19-3,3.19-.33,3.69-.08,3.63,3.79-.15,9.4,1.13,18.83,2,28.24q3.06,34.69,6.24,69.37c.64,7.1,1.17,14.22,2.05,21.29.54,4.28-.92,5.56-5.15,5.24-14.57-1.11-29.15-2-43.74-2.86-13.1-.75-26.2-1.34-39.3-1.92-21.75-1-43.5-1.77-65.25-2.77-12.61-.57-25.2-1.49-37.8-2-3.14-.12-4.07-1.25-4-4.16q1-32.43,1.82-64.87c.25-10.15.25-20.31.33-30.47.06-7.36,1.85-9.56,9.37-9.77,16.12-.46,32.27-1.22,48.36-.61,8.45.32,14.35-2.33,19.23-8.64a83.25,83.25,0,0,1,5.32-6.6A50.06,50.06,0,0,1,136.55,43.81Z" transform="translate(-27.91 -37)"/><path d="M34.89,162.22c2.3,7.58-.24,14.83-2.42,23.39,4.61,0,8.89.08,13.16,0s8.25-.51,12.38-.54c.86,0,1.73,1.09,2.6,1.68-.85.81-1.68,2.29-2.57,2.33-8.41.42-16.84.94-25.25.73-5.45-.13-5.56-1.3-4.06-6.59,1.71-6,2.76-12.2,4.12-18.3.2-.91.5-1.8.76-2.7Z" transform="translate(-27.91 -37)"/></svg>