<svg xmlns="http://www.w3.org/2000/svg" viewBox="0 0 238.1 213.47"><defs><style>.cls-1 { fill: #fff;fill-rule: evenodd; }</style></defs><path class="cls-1" d="M1151.13 1373.56a10.846 10.846 0 0 1 5.3 4.76c.97 1.59 2.63 2.74 3.85 4.2 1.45 1.74 2.82 3.57 4.13 5.43 2 2.82.97 9.52-1.92 11.38a3.184 3.184 0 0 1-3.05-.64 56.586 56.586 0 0 1-5.03-7.67 2.516 2.516 0 0 0-2.06-1.69 53.014 53.014 0 0 1-6.35-2.1 1.851 1.851 0 0 0-.85.22v-.01c-1.18.86-2.36 1.73-3.55 2.58-3.54 2.56-7.1 1.41-8.07-2.92a9.766 9.766 0 0 1 .47-5.99 25.065 25.065 0 0 1 4.86-6.16 2.637 2.637 0 0 1 3.98.07c1.23 1.25 2.34 1.22 3.68.19a22.14 22.14 0 0 1 2.84-1.65h1.77zm-103.27 182.83c4.3-10.54 8.51-20.85 13-31.85 4.02 4.2 7.76 8.12 11.64 12.19a.85.85 0 1 0 .13-.07c6.43-6.11 12.74-12.35 19.3-18.32 6.9-6.27 12.75-13.14 14.93-22.49a33.414 33.414 0 0 0-.22-14.49 2.222 2.222 0 0 0-.42-1.01c-.95-1.06-6.99-.45-7.69.79-4.88 8.67-4.24 6.69-12.52 6.95-2.6.08-5.2.39-7.8.51a2.1 2.1 0 0 1-1.29-.66c-5.26-5.3-10.64-10.49-15.65-16.01-1.49-1.65-2.15-4.2-2.81-6.45-2.57-8.86-4.96-17.77-7.5-26.64a3.682 3.682 0 0 1 1.12-3.95c4.9-5.14 5.52-5.22 10.85-.48q13.845 12.315 27.6 24.74a5.1 5.1 0 0 1 1.42 3.24c.19 3.38.07 6.78.07 10.54h7.9c1.41 0 2.81.01 4.22-.01 4.26-.06 5.63.83 6.56 4.96 3.45 15.42-.22 29.05-11.12 40.43-5.47 5.7-11.64 10.71-17.45 16.09-2.12 1.95-4.06 4.09-6.17 6.06a2.733 2.733 0 0 0-.71 3.48c2.66 6.85 4.65 18.75 4.25 24.7h-25.12c-.58-2.93-1.18-5.81-1.69-8.71-.35-2.02-1.38-3.14-3.52-3.15a5.27 5.27 0 0 1-1.31-.39zm-3.43 23.96c1.5-3.25 2.81-6.3 4.36-9.22a3.075 3.075 0 0 1 2.33-1c8.81-.02 17.62.08 26.42.09q34.215.03 68.41 0h2.39a18.219 18.219 0 0 1 1.99-2.97c2.16-2.1 4.41-4.11 6.72-6.03a6 6 0 0 1 2.25-.69 19.149 19.149 0 0 0 3.91-1.11c1.56-.83 2.87-2.08 4.35-3.05 1.14-.74 2.03-.73 2.86.74 3.28 5.83 3.11 6.27-3.19 8.44-2.91 1-5.69 2.39-8.59 3.45-1.29.48-2.72.57-4.12 1.14.71.03 1.41.09 2.12.09q44.415.015 88.84-.03c1.72 0 3.22.1 4.17 1.81a2.529 2.529 0 0 0 1.18.98c3.34 1.39 3.91 4.01 3.17 7.36h-209.57zm108.51-130.46c-3.36 3.71-6.76 7.37-10.05 11.14-1.7 1.95-2.85 2.47-4.87 1.03-6.9-4.95-13.69-10.05-20.55-15.05a4.317 4.317 0 0 0-2.24-.92c-3.53-.12-5.68-2.45-7.46-4.92-1.85-2.54.26-6.24 3.32-7.17a6.045 6.045 0 0 1 5.03.23 4.211 4.211 0 0 1 2.52 3.02 6.162 6.162 0 0 0 2.31 3.34c4.46 3.14 9.05 6.11 13.65 9.05 3.03 1.94 3.06 1.85 5.14-1.2 2.46-3.59 4.98-7.15 7.44-10.73a1.805 1.805 0 0 0 .17-1.71l-5.78 7.55c-.68-3.74-1.27-6.9-1.81-10.07a3.693 3.693 0 0 1 .03-1.75c1.93-5.71 3.91-11.41 5.94-17.28 4.56 1.51 7.99-.46 11.36-2.5 1.17-.7 2.13-.87 3.22.02 1.6 1.3 3.2 2.6 4.86 3.8 1.25.9 2.59 1.66 3.9 2.47.99.62 2.02 1.16 2.98 1.82 4.79 3.32 4 2.59 2.12 7.8-.56 1.54-1.39 2.98-2.1 4.46l-.67-.14c-.39-2.04-.68-4.1-1.19-6.11a39.874 39.874 0 0 0-2.02-5.77c.89 4.23 2.27 8.42 2.58 12.7.52 7.18.26 14.41.55 21.61a70.46 70.46 0 0 0 1.31 8.71c.3 1.74.76 3.46 1.1 5.2.22 1.11.13 1.99-1.33 2.29a8.76 8.76 0 0 0-2.53 1.32c-6.87 4.12-14.16 6.17-21.85 4.68-.88-3.89-1.49-7.62-2.6-11.2a7.481 7.481 0 0 1 1.82-8.2 76.609 76.609 0 0 0 5.65-7.56 1.379 1.379 0 0 0 .39-.15c2.35-2.23 2.79-6.26 6.67-7.07a.9.9 0 0 0 .31-.56q.765-2.355 1.51-4.73a5.554 5.554 0 0 0-1.64 2.63c-.52 2.1-1.96 1.83-3.43 1.44a5.519 5.519 0 0 1-1.36-.83l-.22.27 1.4 1.71c-1.22 2.48-2.4 4.91-3.58 7.33zm-2.33-23.86l.54.32q1.89-3.075 3.79-6.17l-.61-.35-3.72 6.2zm16.11 130.12c-1.54.92-2.95 1.86-4.44 2.64-2.33 1.23-3.15.79-4.39-1.42-5.93-10.53-11.85-21.07-18.01-31.47a10.243 10.243 0 0 1-1.43-7.78q3.435-15.915 6.98-31.79c.52-2.29 1.39-4.51 1.99-6.79.43-1.62 1.71-1.86 2.92-1.68 7.5 1.08 14.19-.89 20.43-4.97 3.59-2.35 3.78-2.3 4.32 1.9a15.253 15.253 0 0 1-1.17 8.75c-2.22 4.76-5.49 8.66-8.5 12.86-4.33 6.02-7.67 12.76-11.26 19.29a5.069 5.069 0 0 0 0 3.62c2.83 8.55 5.8 17.05 8.72 25.56 1.27 3.7 2.52 7.4 3.84 11.28zm-141.61 30.78c.3-.92.48-1.62.74-2.29 4.07-10.14 8.13-20.29 12.26-30.41a3.826 3.826 0 0 0-.35-4.04c-6.14-9.64-.38-25.39 10.68-28.03 3.41-.82 4.34-2.61 5.28-5.06 3.78-9.93 7.48-19.89 11.22-29.83.34-.89.74-1.75 1.19-2.79a24.04 24.04 0 0 1 7.44 7.52c.31.45-.06 1.54-.37 2.22q-15.885 35.13-31.83 70.24c-3.02 6.66-6.13 13.28-9.04 19.99-.82 1.91-1.82 2.82-3.92 2.5a23.911 23.911 0 0 0-3.3-.02zm16.82.09c.41-3.75.97-4.28 4.17-4.28q59.535.03 119.08.04 46.32.015 92.64.01a9.608 9.608 0 0 1 3.87.63c.71.33 1.01 1.55 1.49 2.36-.76.39-1.52 1.1-2.29 1.1-9.7.08-19.41.05-29.11.05h-23.55l-159.01.09h-7.29zm121.02-84.73l13.31-19.75c3.63 7.88 6.65 15.56 11.63 21.41 7.4-7.29 14.8-14.57 22.27-21.93a32.749 32.749 0 0 1 4.4 1.96c.9.57 2.27 1.83 2.1 2.38-.38 1.28-1.52 3.23-2.45 3.29-4.11.25-5.3 3.57-7.08 6.14-4.43 6.36-8.58 12.92-12.96 19.32a22.336 22.336 0 0 1-4.09 4.27c-1.32 1.11-2.73.74-4.13-.33-4.76-3.61-9.6-7.13-14.42-10.65-2.73-1.99-5.5-3.92-8.58-6.11zm-17.8-114.84c1.5 2.5 2.84 2.91 8.47 2.56.92 4.68 2.99 8.69 7.21 10.93-1 1.27-2.01 2.39-2.83 3.64-4.17 6.38-14.13 6.21-17.53-.56-1.41-2.81-1.85-6.14-2.56-9.27-.11-.48.6-1.27 1.1-1.74 2.01-1.9 4.09-3.72 6.14-5.57v.01zm29.52 70.51c-.69-2.55-1.34-4.74-1.85-6.96a2.433 2.433 0 0 1 .36-1.78c1.58-2.21 3.28-4.34 4.91-6.52.96-1.3 1.85-2.64 2.85-4.07-2.84-1.9-5.51-3.68-8.07-5.38 1.36-3.36 2.62-6.46 3.94-9.7 1.86 1.47 3.63 2.89 5.41 4.29 2.08 1.65 4.14 3.33 6.24 4.94 1.6 1.23 1.57 2.73 1.29 4.56-.41 2.68-2 4.64-3.45 6.74-3.36 4.86-6.74 9.7-11.63 13.88zm55.8 31.4a14.717 14.717 0 0 1-2.85-.03c-2.84-.71-5.66-1.5-8.48-2.29a1.694 1.694 0 0 1-1.08-.62c-.7-2.9-3.22-3.4-5.47-4.24-3.66-1.37-3.79-1.68-2-5.08 1.68-3.18 2.58-3.49 5.37-1.34 3.93 3.03 7.81 6.16 11.57 9.41 1.11.96 1.75 2.46 2.94 4.19zm-83.57-75.51c-.13-1.17-.24-2.17-.35-3.19 3.28-.9 6.44-1.77 9.71-2.67.32.8.69 1.73 1.15 2.87-3.08 1.8-6.18 3.94-10.51 2.99zm6.04 36.04c1.18-2.42 2.36-4.85 3.58-7.33l-1.4-1.71.22-.27a5.519 5.519 0 0 0 1.36.83c1.47.39 2.91.66 3.43-1.44a5.554 5.554 0 0 1 1.64-2.63q-.75 2.37-1.51 4.73a.9.9 0 0 1-.31.56c-3.88.81-4.32 4.84-6.67 7.07a1.379 1.379 0 0 1-.39.15zm-2.33-23.86l3.72-6.2.61.35q-1.9 3.09-3.79 6.17l-.54-.32z" transform="translate(-1025.09 -1373.56)"/></svg>