<svg xmlns="http://www.w3.org/2000/svg" viewBox="0 0 294.5 216.22"><defs><style>.cls-1{fill:#fff;fill-rule:evenodd}</style></defs><path class="cls-1" d="M219.59 161.19c-1.56 1.27-2.39 2.79-1.81 4.86a11.65 11.65 0 0 1 .03 1.33c.92 6.38-3.9 8.86-9.51 6.83-5.4-1.96-10.88-3.7-16.35-5.45a2.2 2.2 0 0 1-1.76-2.72c.67-7.25.89-14.73 4.38-21.22 2.41-4.48 5.77-8.7 11.81-9.1 3.36-.23 6.67-1.05 10.03-1.29 5.56-.4 11.14-.59 16.71-.74a2.985 2.985 0 0 1 1.78 1.22c2.14 2.56 3.94 3.52 6.57 3.46-1.53-1.03-3.26-2.04-4.8-3.27-1.77-1.41-1.19-3.11-.25-4.76.98-1.73 2.18-.79 3.42-.35a8.771 8.771 0 0 0 3.34.37c-4-.56-4.09-3.53-4.47-6.41-.28-2.09-1.02-4.13-1.19-6.22a5.394 5.394 0 0 1 1.07-3.12c5.77-8.51 11.73-16.9 17.35-25.52a25.05 25.05 0 0 0 3.37-8.49c.81-3.96-2.62-5.46-5.36-7.03a5.492 5.492 0 0 0-6.48.71 35.752 35.752 0 0 1 6.37.61c4.03 1.09 5.72 4.48 3.93 8.33a77.123 77.123 0 0 1-6.1 10.25c-4.21 6.25-8.51 12.46-12.99 18.52-1.13 1.52-3.04 2.48-4.67 3.59a10.758 10.758 0 0 1-3.08 1.51 5.668 5.668 0 0 1-3.2.14c-7.56-2.78-15.06-5.69-22.99-8.72l1.59-6.62c6.53 1.62 12.66 2.98 18.65 4.77 1.24.37 2 2.34 3.15 3.79a3.156 3.156 0 0 0-.12-1.34c-2.68-3.39-.22-5.52 1.61-8.17 4.71-6.83 9.08-13.9 13.58-20.87l-1.08-.7c-1.38 2.42-2.74 4.85-4.16 7.25-1.44 2.43-2.93 4.82-4.55 7.48a4.2 4.2 0 0 1-.8-1.56c.15-4.6-.03-9.24 1.93-13.58 1.31-2.91 2.43-5.92 3.9-8.74.68-1.31 2.05-2.24 3.02-3.41a3.462 3.462 0 0 0 .83-1.8c.12-1.66.04-3.33.04-5.09 3.14-1.31 7.13-.85 10.28-2.86-.09-.32-.19-.65-.29-.97a13.971 13.971 0 0 1-2.32.62 98.614 98.614 0 0 1-11.1.71c-1.34-.03-2.91-1.3-3.9-2.42-3.67-4.16-5.14-9.25-5.54-14.67-.23-3.23-.34-6.46-.49-9.33 3.34-.23 6.14-.4 8.93-.61 3.25-.25 6.19-.05 7.58 3.68.37 1 1.6 1.64 2.16 2.61 1.17 2.01 3.04 4.14 3 6.2-.06 3.38 1.66 5.65 3.1 8.25a4.187 4.187 0 0 1 .68 2.72c-1.79 6.26-.14 11.53 3.95 16.44a80.587 80.587 0 0 1 6.4 9.47c2.56 4.13 2.48 8.81 2.38 13.43-.19 8.24-.67 16.48-.63 24.72.02 4.59.87 9.17 1.24 13.76a2.853 2.853 0 0 1-.9 1.82 7.137 7.137 0 0 1-1.77 1.07l.39.77c1.07-.45 2.14-.9 3.22-1.36 2.6 2.23 3.81 7.01 2.57 10.64-1.04 3.02-2.28 5.97-3.26 9.01-.57 1.77-1.59 2.19-3.35 2.18-12.27-.07-24.53.1-36.8-.08-4.31-.06-6.65 2.09-8.34 5.56zM62.63 90.53a49.83 49.83 0 0 0 3.2 5.67c1.49 2.02 3.43 3.71 4.96 5.7.4.51.19 1.66-.03 2.44-.4 1.38-1.02 2.7-1.68 4.4a3.1 3.1 0 0 0 .95-.36c1.25-4.58 4.5-6.45 8.98-6.85a43.158 43.158 0 0 0 4.41-1.01c.65-.14 1.59-.39 1.97-.07 1.37 1.13 2.19.38 3.2-.49 2.35-2.05 3.59-1.64 4.46 1.42.33 1.19.64 2.39.9 3.6.84 3.95.52 3.52-2.79 5.9-4.93 3.55-10.77 4.6-16.09 7a39.776 39.776 0 0 0-3.68 2.12 5.9 5.9 0 0 1-8.32-1.93c-7.25-10.61-14.55-21.2-21.74-31.85a34.468 34.468 0 0 1-3.61-6.78c-1.54-3.99.47-7.59 4.67-8.55a53.925 53.925 0 0 1 6.2-.69c-1.46-.93-3.28-1.99-5.5-.99-6.8 3.06-8.08 5.32-6.11 11.32a25.5 25.5 0 0 0 3.2 6.06c5.86 8.67 11.84 17.26 17.74 25.9 1.53 2.25 2.88 4.48 2.64 7.51a74.547 74.547 0 0 0 .29 9.55 4.453 4.453 0 0 1-2.77 4.62c-6.69 3.52-13.73 3.52-20.77 1.94-4.03-.9-7.84-2.75-11.77-4.11-1.54-.54-1.64-1.47-1.3-2.89 1.33-5.49 3.05-10.96 3.69-16.55.65-5.78.13-11.69.28-17.54.16-6.19.16-12.42.85-18.56A21.568 21.568 0 0 1 40.27 59.4c-.24-2.15-.86-3.92-.48-5.46.43-1.81 1.98-2.31 4.03-1.72 3.72 1.06 7.55 1.72 11.31 2.65 1.2.29 3.01.67 3.3 1.47a4.814 4.814 0 0 1-.82 3.8 3.271 3.271 0 0 0-.09 4.23 46.469 46.469 0 0 1 7.37 26.2 14.121 14.121 0 0 1-.3 1.8c-.84-.76-1.42-1.28-2-1.8a13.443 13.443 0 0 0-.84-2.72c-2.06-3.62-4.19-7.19-6.33-10.76a8.374 8.374 0 0 0-1.06-1.18l-.8.57q4.53 7.02 9.07 14.05zm-39.26 42.14a51.119 51.119 0 0 0 18.74 6.12 30.257 30.257 0 0 0 19-3.71 10.341 10.341 0 0 1 3.85-.88c8.32-1.07 16.44.95 24.64 1.69a88.362 88.362 0 0 1 9.97 1.58c2.37.5 4.71 5.24 4.81 8.88a104.538 104.538 0 0 1-3.26 30.3c-2.05 7.62-2.08 15.43-2.14 23.22-.02 2.9-1.26 4.68-3.87 5.23a27.625 27.625 0 0 1-7.09.49c-1.51-.07-2.6-.86-2.59-2.95.05-12.59-.09-25.17-.17-37.76l-.02-.53c-.65-8.09-1.12-8.53-9.28-8.54-15.19-.02-30.39-.09-45.58.01-2.37.01-3.53-.72-4.19-2.95-.77-2.63-2.38-5.11-2.7-7.76-.48-3.86-.12-7.83-.12-12.44zm30.77 13.56l.58-.67c-.69-.74-1.25-1.81-2.1-2.14-3.45-1.34-6.97-2.5-10.51-3.6-.44-.14-1.11.47-1.68.73a6.113 6.113 0 0 0 1.45 1.18c3.47 1.31 6.97 2.54 10.45 3.8.61.22 1.2.47 1.81.7zm210.24-99.72c-1.01.96-1.53 1.44-2.02 1.93-1.89 1.91-4.23 3.21-6.69 1.84a6.878 6.878 0 0 1-3.75-6.29c.12-3.87-.96-7.14-4.24-9.51a5.779 5.779 0 0 1-1.42-1.9c-2.04-3.61-4.53-4.67-8.69-4.14a49.569 49.569 0 0 1-7.9.17c-1.69-.07-2.58-1.17-2.89-2.93-1.11-6.29.46-10.57 4.91-13.57 3.61-2.44 7.38-1.93 10.94-.43 3.39 1.43 6.43 3.25 10.36 3.54 5.26.38 11.39 6.68 12.19 12.07.72 4.87 1.82 10.02.93 14.7-1.09 5.73 1.57 9.3 4.34 13.39 6 8.88 6.41 18.51 3.08 28.42-.39 1.15-1.91 1.92-2.9 2.87a19.461 19.461 0 0 1-2.44-2.63c-3.45-5.45-6.66-11.06-10.26-16.41a15.758 15.758 0 0 1-2.16-13.92 2.8 2.8 0 0 1 1.97-1.44c3.1-.47 5.37-2.15 6.64-5.76zM81.5 124.68c-.61-7.81-.58-7.87 6.44-9.75a11.205 11.205 0 0 1 2.89-.34q59.85-.03 119.7-.07c2.74-.01 3.67 1.54 3.97 3.67a16.879 16.879 0 0 1-.33 4.46c-.22 1.56-1.14 2.12-2.78 2.12q-34.65-.09-69.31-.06l-57.32-.03H81.5zM28.76 33.13c2.05-6.06-.25-12.96 3.28-18.81a18.694 18.694 0 0 1 14.34-9.28 22.311 22.311 0 0 0 8.07-3c9.2-5.44 18.75.88 19.07 9.12l.08.53c.73 7.26-2.57 10.26-9.84 8.94-1.05-.19-2.09-.44-3.14-.58-4.2-.59-6.63 1.22-9.18 4.43-3.32 4.18-6.24 8.31-7.65 13.61-.64 2.4-2.94 4.37-4.48 6.54-1.32 1.85-2.91 1.23-4.13.13-3.43-3.08-7.31-6.01-6.42-11.63zm190.76 128.15h6.11v21.44c.66.04 1.5.15 2.35.15 11.11.01 22.22-.05 33.32.05 2.21.02 2.89-.6 2.84-2.83-.15-6.1-.05-12.21-.05-18.51h6.68c-.68 18.16-1.36 36.33-2.04 54.63h-4.63c0-3.01 0-5.91-.01-8.81 0-5.77-.04-11.54.02-17.3.02-1.51-.28-2.27-2.02-2.26-11.82.06-23.64.03-35.46.04a10.184 10.184 0 0 0-1.56.3c-.36 9.29-.72 18.56-1.09 27.98h-4.3a9.426 9.426 0 0 1-.27-1.5q-.015-25.8-.01-51.61a16.569 16.569 0 0 1 .19-1.85.572.572 0 0 0-.07.08zM68.85 183.26v-20.58h6.18v52.98c-4.21.93-4.52.8-4.71-3.15-.35-7.36-.58-14.71-.8-22.07-.04-1.52-.47-2.23-2.15-2.23-11.9.06-23.8.03-35.71.05a6.6 6.6 0 0 0-1.12.26v27.06c-4.37 1.14-4.72.97-4.88-2.94-.55-13.03-1.01-26.06-1.51-39.08-.14-3.54-.31-7.07-.48-10.82h6.74v20.52h38.44zM5.53 74.74c1.8 6.83 3.59 13.49 5.32 20.16 3.1 11.93 5.98 23.92 9.36 35.77a25.7 25.7 0 0 1 .88 10.65 10.569 10.569 0 0 0 .43 4.43c1.05 3.29 2.44 6.47 3.53 9.75.77 2.3 2.15 3.08 4.57 3.06 16.26-.1 32.52-.09 48.78-.11h3.17l.33.87a7.97 7.97 0 0 1-2.43.89c-6.75.06-13.51.03-20.26.02-12.44 0-24.88-.05-37.32.05-2.14.02-3.11-.52-3.62-2.72C12.41 132.62 6.44 107.7.52 82.78c-1.22-5.11-.5-6.28 5.01-8.04zM70.7 22.93c0 5.61.58 11.66-.14 17.54-.92 7.43-7.27 12.17-14.73 12.18-4.97.01-9.71-.66-13.87-3.72-1.6-1.18-2.37-2.33-.82-4.09.53-.59.84-1.36 1.33-1.99 1.77-2.29 3.37-4.51 4.05-7.56.52-2.36 2.68-4.36 4.13-6.51a13.13 13.13 0 0 0 1.84-2.58c1.47-4.06 4.7-4.24 8.22-3.96 3.14.25 6.29.44 9.99.69zm218.31 51.88c5.64 1.63 6.24 2.65 4.88 8.37q-8.22 34.53-16.49 69.04c-.45 1.9-.95 3.79-1.31 5.7a2 2 0 0 1-2.3 1.94q-24.915-.075-49.83-.08a1.293 1.293 0 0 1-1.13-.81 19.381 19.381 0 0 1 2.98-.46c12.97-.02 25.94-.06 38.9.06 2.53.03 3.99-.76 4.79-3.16 1.09-3.28 2.39-6.48 3.54-9.75a5.905 5.905 0 0 0 .53-2.84c-1.28-6.18.76-11.93 2.26-17.73 4.12-16.05 8.33-32.08 12.52-48.12.17-.67.41-1.33.66-2.16zm-223.3 2.86c-1.86-3.76-3.47-6.99-5.06-10.24a2.331 2.331 0 0 1 1.18-3.52c3.72-1.74 7.43-3.52 11.2-5.14 4.21-1.8 8.56-3.26 12.69-5.22 2.16-1.03 3.93-2.84 5.92-4.24a35.2 35.2 0 0 1 4.46-2.87c.91-.46 2.11-.3 3.12-.61a5.278 5.278 0 0 0 2.34-1.2c2.24-2.49 3.33-2.4 4.84.61.4.79.73 1.62 1.08 2.43 1.77 4.12 1.16 3.62-1.66 7.09-4.22 5.19-10.38 6.95-15.61 10.27-4.87 3.1-10.36 5.23-15.57 7.81-.63.31-1.2.75-1.82 1.08-2.34 1.25-4.7 2.48-7.11 3.75zm55.59-41.82c2.86 2.34 3.09 4.23.89 7.06-.54.71-1.19 1.32-1.71 2.04a3.964 3.964 0 0 0 1.23 6.04c1.64 1.02 3.24 2.11 5.44 3.56h-16.83c2.68-1.85 5.06-3.49 7.83-5.4a4.7 4.7 0 0 0-1.2-.31c-6.04 2.63-6.03 2.63-8.98-3.16-.65-1.26-1.35-2.49-2.36-4.35 3.53-1.79 7.01-3.56 10.54-5.34-3.42-7.93-6.84-15.94-6.62-24.97.05-2.2.72-3.52 2.86-3.58 4.22-.12 8.45-.07 12.68.01 1.86.04 2.58 1.3 2.61 3.03a41.909 41.909 0 0 1-2.82 16.65c-1.16 2.85-2.32 5.7-3.56 8.72zm3.88-24.42h-14.16c.39 2.25.77 4.37 1.15 6.5l.36-.09.47-4.01.76-.12a6.649 6.649 0 0 1 .85 2.15c0 2.1 1.08 2.4 2.89 2.35 2.48-.06 4.97.18 7.68.31v-7.09zm-1.85-1.59l-.07-.75h-10.39v.75h10.46zm-.15 11.55v-1h-7.16v1h7.16zm72.44 75.57c2.61.68 5.17 1.31 7.71 2.02 1.85.51 2.78 1.55 1.69 3.52a2.28 2.28 0 0 0-.27.74c-.56 3.83-1.46 7.27-6.8 6.33l4.81 3.5h-16.89c2.48-1.6 4.3-2.76 6.11-3.95 1.84-1.21 1.9-2.27.26-3.76a9 9 0 0 0-.83-.67c-1.69-1.2-3.25-2.78-2.34-4.84.65-1.49 2.37-2.51 3.78-3.89-1.2-2.72-2.58-6.1-4.14-9.39-2.63-5.52-3.21-11.39-3.31-17.37-.03-1.91.81-3.33 2.93-3.34 4.24-.03 8.47-.02 12.7.13 1.76.07 2.51 1.15 2.49 3.05-.07 6.46-.93 12.71-3.82 18.6-1.46 2.98-2.67 6.07-4.08 9.32zm4.91-20.42l.48-.03c.33-2.2.65-4.4.92-6.22-4.93-.22-9.51-.42-14.01-.62 0 2.26-.01 4.55.01 6.83a2.113 2.113 0 0 0 .11.65 65.086 65.086 0 0 1 6.85-.43c2.24.09 3.86-.1 3.71-2.93a3.977 3.977 0 0 1 .87-1.62l.67.12.39 4.25zm-10.74-9.06l-.11.79h10.57v-.79h-10.46zm.18 11.29v.81c3.39 1.33 5.68 1.15 7.51-1.17-2.85.13-5.18.25-7.51.36zm-72.89 49.27h3.94c.07.73.18 1.48.18 2.23q.015 40.185-.03 80.38c0 1.06-.19 2.5-.87 3.1-1.3 1.13-3.18-.28-3.18-2.32-.04-7.1-.04-14.2-.04-21.29v-62.1zm56.28-.03h3.81c.06.88.17 1.65.17 2.41q0 40.215-.02 80.42c0 .78.13 1.82-.3 2.29a3.333 3.333 0 0 1-2.35.73 2.064 2.064 0 0 1-1.19-1.35 8.636 8.636 0 0 1-.1-2.39q-.015-39.525-.02-79.07v-3.04zm33.32 77.85c-2.74-.15-5.15-.29-6.92-.39-.47-4.44-.79-8.31-1.32-12.16-.97-6.99-2.05-13.97-3.12-21.18 3.66 1.17 6.93 2.14 10.15 3.29a2.245 2.245 0 0 1 1.16 1.71c.07 9.37.05 18.75.05 28.73zm-94.18 9.66c-.83.06-1.66.17-2.49.17q-11.73 0-23.47-.03c-2.7-.01-3.73-1.08-3.43-3.74a18.663 18.663 0 0 1 .95-4.4 2.532 2.532 0 0 1 1.85-1.35 62.945 62.945 0 0 1 10.9.07c2.33.32 4.52 1.83 6.71 2.95 2.68 1.38 5.28 2.91 7.92 4.37.54.29 1.08.57 1.62.85l-.56 1.11zm69.31-.61a6.774 6.774 0 0 1 1.32-1.35c4.42-2.43 8.7-5.25 13.37-7.01 2.83-1.06 6.29-.53 9.46-.52 1.42 0 3.8.11 4.09.83a21.69 21.69 0 0 1 1.1 6.94 2.648 2.648 0 0 1-1.88 1.77c-9.02.12-18.04.08-27.07.08l-.39-.74zm-33.97-110.76c-.06-.78-.15-1.56-.15-2.33-.01-13.14-.03-26.28.02-39.41.01-1.43 1.09-3.32.49-4.21-2.47-3.65-.1-5.51 2.27-7.58 1.92 1.8 1.21 3.62.11 5.49-.84 1.43-2.46 2.91.18 4.31.35.19.27 1.32.27 2.02.01 13.13-.04 26.27.05 39.41.02 2.49-1.01 2.9-3.24 2.3zm-49.34 3.44c-2.02.54-2.96-.51-3.28-2.65a14.5 14.5 0 0 0-1.27-4.58c-1.25-2.35-.05-3.33 1.87-3.79a101.469 101.469 0 0 1 10.89-2.21c3.09-.39 5.86 3.67 3.92 5.87-3.13 3.56-6.27 7.62-12.13 7.36zm46.45-1.66c3.1-.28 6.05-.54 9.68-.86-.84 2.41-1.26 4.99-2.56 7-1.53 2.37-4.79 1.49-5.7-1.25-.47-1.42-.98-2.84-1.46-4.27a2.037 2.037 0 0 1 .04-.62zm-82.32-15.4q-4.545-7.02-9.07-14.05l.8-.57a8.374 8.374 0 0 1 1.06 1.18c2.14 3.57 4.27 7.14 6.33 10.76a13.443 13.443 0 0 1 .84 2.72zm-8.49 55.7c-.61-.23-1.2-.48-1.81-.7-3.48-1.26-6.98-2.49-10.45-3.8a6.113 6.113 0 0 1-1.45-1.18c.57-.26 1.24-.87 1.68-.73 3.54 1.1 7.06 2.26 10.51 3.6.85.33 1.41 1.4 2.1 2.14zm71.04-134.8v7.09c-2.71-.13-5.2-.37-7.68-.31-1.81.05-2.89-.25-2.89-2.35a6.649 6.649 0 0 0-.85-2.15l-.76.12-.47 4.01-.36.09c-.38-2.13-.76-4.25-1.15-6.5h14.16zm-1.85-1.59h-10.46v-.75h10.39l.07.75zm-.15 11.55h-7.16v-1h7.16v1zm77.35 55.15l-.39-4.25-.67-.12a3.977 3.977 0 0 0-.87 1.62c.15 2.83-1.47 3.02-3.71 2.93a65.086 65.086 0 0 0-6.85.43 2.113 2.113 0 0 1-.11-.65c-.02-2.28-.01-4.57-.01-6.83 4.5.2 9.08.4 14.01.62-.27 1.82-.59 4.02-.92 6.22zm-10.74-9.06h10.46v.79h-10.57l.11-.79zm.18 11.29c2.33-.11 4.66-.23 7.51-.36-1.83 2.32-4.12 2.5-7.51 1.17v-.81z"/></svg>