<svg xmlns="http://www.w3.org/2000/svg" viewBox="0 0 175.719 229"><defs><style>.cls-1{fill:#fff;fill-rule:evenodd}</style></defs><path class="cls-1" d="M93.968 72.51a38.632 38.632 0 0 1 5.062.54 40.2 40.2 0 0 1 6.441 2.03 16.954 16.954 0 0 1 3.787 2.47c1.379 1.09 2.61 2.37 3.949 3.51 2.272 1.93 4.87 3.58 6.745 5.84.907 1.1.962 3.43.558 4.99a70.621 70.621 0 0 1-3.287 8.37l-6.5-3.6a24.948 24.948 0 0 0-.228 2.58c.217 9.11.517 18.21.664 27.32.058 3.63-.169 7.26-.372 10.88a1.982 1.982 0 0 1-1.044 1.4 21.1 21.1 0 0 1-4.057 1.11c-1.518.25-3.074.27-4.613.4l.05.73c1.3-.14 2.594-.28 3.89-.43 1.754-.21 3.871-1.12 5.15-.43 1.152.61 1.391 2.97 2.023 4.56 3.234 8.15 6.5 16.28 9.682 24.45 1.874 4.82 3.1 9.78 2.568 15.02a8.315 8.315 0 0 1-.588 2.91c-4.417 8.58-5.292 17.99-6.379 27.34-.358 3.09-2.014 4.53-5.012 3.82a57.848 57.848 0 0 1-7.862-2.62 2.457 2.457 0 0 1-.5-2.06c1.146-5.08 2.513-10.1 3.6-15.19 1.112-5.22 2.007-10.5 2.919-15.76a3.439 3.439 0 0 0-.375-2.19c-5.464-9.02-10.864-18.09-17.687-26.18-.174-.2-.389-.37-.8-.77-.87 3.12-1.625 6.07-2.514 8.98-1.857 6.06-3.931 12.06-5.64 18.17-1.5 5.38-5.4 8.48-9.645 11.43-4.959 3.43-9.947 6.83-14.777 10.44-2.368 1.77-4.305 4.13-6.643 5.95-1 .77-2.53.87-3.591 1.2v17.06l-.708.35a10.153 10.153 0 0 1-2.069-2.26c-1.622-3.56-3.061-7.21-4.588-10.81-1-2.36-1.984-4.73-3.07-7.05a5.566 5.566 0 0 1 4.282-8 1.978 1.978 0 0 1 1.371 1.11 64.541 64.541 0 0 0 3.031 6.84c-.624-2.16-1.155-4.34-1.9-6.45-.88-2.5-.043-4.52 1.563-6.28a18.333 18.333 0 0 1 3.713-3.18c5.477-3.42 9.791-8.19 14.634-12.35 3.972-3.41 5.583-7.53 6.143-12.32.528-4.53.736-9.09 1.105-13.63.167-2.05.5-4.1.543-6.16a42.981 42.981 0 0 0-.42-4.87c-.247-2.59.254-3.05 2.736-2.51 5.893 1.3 11.808 2.38 17.888 1.86a4.4 4.4 0 0 0 2.1-.54c-1.953-.18-3.9-.38-5.858-.54a37.369 37.369 0 0 1-5.922-.51 90.338 90.338 0 0 1-9.023-2.95 2.018 2.018 0 0 1-.89-1.54c-.26-6.74-.409-13.5-.661-20.25-.191-5.12-.471-10.24-.758-15.37a25.287 25.287 0 0 0-.515-2.94 6519.19 6519.19 0 0 0-10.77 5.96c-1.405-3.78-3.872-7.01-3.549-11.15a4.146 4.146 0 0 1 1.027-2.6c2.393-2.11 4.968-4 7.45-6.01a9.671 9.671 0 0 0 2.316-2.18c1.734-2.82 4.455-4.03 7.383-5.02 1.876-.63 3.7-1.44 5.6-1.98a4.244 4.244 0 0 1 1.916.52v-.03c3.579 2.46 7.779 2.18 10.06-.66l.866-.77zm-47.433 1.43H3.303V49.69h43.232v24.25zM153.619 44.4c-1.227.35-2.454.7-3.86 1.11v12.46h5.058V46.02c1.668.98 3 1.71 4.273 2.53a2.472 2.472 0 0 0 3.583-.41 31.149 31.149 0 0 1 2.9-2.82 16.515 16.515 0 0 1 2.308-1.34v14.7h-33.02v7.23h34.266V45.14c2.217.68 2.925 1.76 2.78 3.84-.236 3.41-.064 6.84-.064 10.4h-2v6.29l1.893.16c0 2.77.119 5.48-.088 8.16-.049.64-1.2 1.18-1.84 1.77l-.565-.18c0-1.51.028-3.03-.009-4.54-.035-1.45-.139-2.9-.213-4.35-.295.02-.59.03-.885.04v8.81h-13.237v-8.48a3.455 3.455 0 0 0-.775-.31c-4.524-.31-4.519-.31-4.475 4.18.015 1.49 0 2.98 0 4.68h-15.43V44.2a10.752 10.752 0 0 0 1.984.16c2.826-.32 5.28.15 7.037 2.71a1.447 1.447 0 0 0 2.52.11c2.119-2.5 4.849-3.11 7.932-2.71zM93.968 72.51c-.292.26-.584.52-.875.77-3.219 2.31-6.587 2.29-10.06.66v.03a15.784 15.784 0 0 1 .182-2.06 3.9 3.9 0 0 0-1.28-4.22 5.536 5.536 0 0 1-1.575-1.96c-2.2-5.18-3.632-10.51-2.433-16.06 2.792-1.89 5.532-3.74 8.273-5.6l-.252-.59a19.552 19.552 0 0 0-2.714 1.26c-1.244.81-2.316 1.91-3.594 2.65a3 3 0 0 1-2.353.24c-.372-.16-.547-1.46-.357-2.1a4.717 4.717 0 0 1 1.489-2.48c3.947-2.78 8.3-4.42 13.171-3.28 4.285 1 8.786 2.04 11.219 6.22 2.152 3.7 1.873 7.81.456 11.75a3.375 3.375 0 0 1-2.344 1.74c-.452.07-1.441-1.25-1.644-2.08-.721-2.94-1.207-5.94-1.723-8.61-2.451-.72-5.026-1.48-7.628-2.25a4.91 4.91 0 0 0 4.817 2.17c1.718-.25 2.165.42 2.189 2.11a16.912 16.912 0 0 0 2.476 9.09c1.011 1.59-.076 3.06-1.153 4.1-1.887 1.83-3.559 3.59-3.191 6.55.075.59-.708 1.3-1.096 1.95zm9.356-28.41c-7.661-6.54-15.887-7.57-24.883-3.03.312-1.04.487-1.79.762-2.51a177.88 177.88 0 0 1 15.77-30.92c1.255-1.99 1.953-4.33 3.036-6.45A4.809 4.809 0 0 1 99.592 0c.19.65.75 1.62.511 1.9-1.664 1.94-1.163 4.23-1.007 6.33.865 11.63 1 23.35 4.107 34.71a9.163 9.163 0 0 1 .121 1.16zM17.8 78.58H33c-1.077.73-1.764 1.2-2.907 1.98 2.1 1.21 3.945 2.44 5.922 3.38 6.272 2.98 12.6 5.84 18.892 8.77 1.5.7 4.375 6.77 4.012 8.36a2.127 2.127 0 0 1-.457.95c-1.7 1.8-5.5 2.07-7.515.62-.917-.66-1.968-1.12-2.908-1.75-3.059-2.04-6.179-4.01-9.12-6.21-6.124-4.59-12.134-9.33-18.228-13.96a21.792 21.792 0 0 0-3.036-1.66zM160.32 77c-8.323 3.99-14.372 10.18-21.107 15.44-2.95 2.31-6.172 4.26-9.29 6.35-.764.51-1.643.85-2.4 1.37-2.613 1.8-5.2 1.86-7.661-.13a2.561 2.561 0 0 1-.627-2.24 61.449 61.449 0 0 1 2.456-5.9 1.606 1.606 0 0 1 .75-.7c6.385-2.83 12.831-5.54 19.143-8.53 2.188-1.04 4.05-2.77 6.235-4.31L146.006 77h14.314zm-6.625-32.53c-2.4-.5-4.76-1.81-6.986.73-1.669 1.91-2.97 1.81-4.383-.42-1.968-3.11-3.6-6.44-5.251-9.74a2.782 2.782 0 0 1 .287-2c.822-1.8 1.766-3.55 2.67-5.34 2.373 2.08 4.765 4.1 7.057 6.23.927.86 1.612 1.33 2.927.57 1.825-1.06 3.5-.17 4 1.87.149.6.337 1.2.655 2.32 2.037-4.22 5.267-6.04 9.241-6.87 1.6-.33 1.873.21 2.037 1.68.246 2.23.946 4.39 1.3 6.61a3.317 3.317 0 0 1-.411 2.34 52.311 52.311 0 0 1-5.03 5.46 2.693 2.693 0 0 1-2.4-.01c-2-1.04-3.872-2.32-5.792-3.5l.079.07zm-14.183-10.85c-1.364 2.87 1.28 7.86 4.852 10.42 1.33-.93 2.655-1.86 4.289-3.02-3.06-2.47-6.003-4.86-9.141-7.4zm18.368 9.39c1.233 1.31 1.915 2.65 2.9 2.94 1.452.42 3.762-2.56 4.429-5.64-2.371.88-4.482 1.65-7.329 2.7zm-29.871 184.44c-3.817 1.06-7.535 2.26-11.7 1.02-2.536-.76-5.305-.73-7.968-1.07a32.687 32.687 0 0 1-3.566-.52c-2.533-.6-3.144-1.55-2.642-4.09a21.171 21.171 0 0 1 1.23-4.51 2.362 2.362 0 0 1 2.09-.94 37.534 37.534 0 0 1 4.89 2.03c1.806.8 3.573 1.36 5.41.01a1.472 1.472 0 0 1 1.317.08c3.157 1.83 6.28 3.73 9.417 5.6.734.44 1.484.85 2.226 1.27l-.704 1.12zM49.861 74.97v2.72H-.009v-2.72h49.87zM34.073 47.98V35.15c-2.733-1.3-.17-3.07.113-4.73 1.082 5.85.676 11.73.76 17.6-.291-.01-.582-.02-.873-.04zm-8.827-12.81c-2.763-1.39-.139-3.15.044-4.81 1.206 5.87.68 11.78.829 17.68-.291 0-.582.01-.873.02V35.17zm4.243 12.87V35.17c-2.752-1.34-.134-3.13.035-4.8 1.216 5.87.84 11.77.722 17.66l-.757.01zm-8.857-17.6c1.253 5.84.68 11.71.855 17.55l-.758.11a5.143 5.143 0 0 1-.355-1.34c.052-3.62.15-7.24.235-10.86a1.4 1.4 0 0 0 .021-.6c-2.427-1.53-.292-3.25.002-4.86zM174.703 48.4a5.281 5.281 0 0 1 .952 1.89c.1 3.4.045 6.8.045 10.2l-.644.28a6.273 6.273 0 0 1-.895-2.05c-.094-3.33-.042-6.67-.042-10l.584-.32zm-158.616-.33a7.958 7.958 0 0 1-.26-1.47c.031-3.55.1-7.1.155-10.64a2.174 2.174 0 0 0 .048-.62c-.864-2.74-.868-2.74 0-4.66 1.131 5.74.662 11.54.813 17.32l-.756.07zm-4.229-.01a5.876 5.876 0 0 1-.285-1.3c.018-3.56.071-7.12.114-10.69a1.76 1.76 0 0 0 .013-.8c-2.294-1.49-.412-3.07.109-4.61 1.065 5.75.622 11.55.774 17.33l-.725.07zM174.532 72.9c-.809-7.44-.809-7.44 1.2-7.9-.424 2.7.799 5.55-1.2 7.9zM38.813 35.49a4.43 4.43 0 0 1 .664 1.5c.053 3.48.025 6.96 0 10.44a.815.815 0 0 1-.6.63V35.45zm.063-.04c-2.978-1.38-.255-3.02-.23-4.54.5 1.51 2.134 2.98.171 4.58l.059-.04zm44.157 38.49c3.473 1.63 6.841 1.65 10.06-.66-2.281 2.84-6.481 3.12-10.06.66zm56.479-40.32c3.139 2.54 6.081 4.93 9.141 7.4a701.412 701.412 0 0 1-4.289 3.02c-3.572-2.56-6.214-7.55-4.852-10.42zm18.368 9.39c2.847-1.05 4.958-1.82 7.33-2.7-.667 3.08-2.977 6.06-4.429 5.64-.986-.29-1.668-1.63-2.901-2.94z"/></svg>