<svg xmlns="http://www.w3.org/2000/svg" viewBox="0 0 307 131.03"><defs><style>.cls-1{fill:#314f95;fill-rule:evenodd}</style></defs><path class="cls-1" d="M-.013 60.83c.257-1.88.424-3.78.791-5.64 1-5.09 4.784-7.43 9.219-8.81.934-.3 2.3.66 3.41 1.17a6.11 6.11 0 0 1 2.036 1.42c2.322 2.73 5.975 2.4 8.8 3.97 1.5.83 3.13 1.38 4.976.32a11.186 11.186 0 0 1 4.058-1.03c1.887-.25 2.787.54 2.97 2.47.084.88-.014 1.77-.015 2.66l-.037 58.03v2.23H20.86v-2.48c0-9.23.01-18.46-.017-27.68-.017-5.66-1.066-6.41-6.476-4.79C7.506 84.73 3.19 82.3 1.219 75.3c-.325-1.15-.817-2.26-1.232-3.39V60.83zM183 78.31v39.42h-2.419c-18.716 0-37.433-.07-56.148.08-2.73.02-4.543-.53-6.074-2.88a10.946 10.946 0 0 0-4.136-3.83c-.985-.47-2.77.22-3.959.85-1.589.84-2.887 2.22-4.421 3.18a5.613 5.613 0 0 1-6.913-1.21c-4.909-6.36-9.849-12.7-14.625-19.16-2.136-2.89-3.913-6.05-5.839-9.1a2.4 2.4 0 0 1-.469-1.11c-.047-2.01-.022-4.02-.022-6.24H183zM86.362 32.57c-1.365 3.13-.909 5.48 1.285 7.23a10.626 10.626 0 0 0 2.955 1.15l.282-.56a2.394 2.394 0 0 0-.689-.77c-2.161-.75-2.805-2.47-2.749-4.5.066-2.37 1.2-4.48 3.37-5.15 5.832-1.81 11.557-.97 13.578 6.19.423 1.5-.367 3.62-1.225 5.08-.343.59-2.437.4-3.636.13-1.656-.37-3.186-1.29-4.835-1.73a5.792 5.792 0 0 0-3.15.29c1.906 1.97 4.3 2.7 6.742 3.23a14.726 14.726 0 0 0 3.045.03c2.77 0 3.867-.79 4.349-3.47.333-1.86.989-2.82 3.11-2.83 3.03-.02 6.056-.51 9.089-.72a12.106 12.106 0 0 1 2.606.23 58.9 58.9 0 0 0 6.136.97c1.68.09 2.734.62 3.1 2.27 1.556 7.05 3.144 14.08 4.617 21.14.458 2.19.567 4.46.878 6.69a1.605 1.605 0 0 1-1.561 2.1c-3.948.52-7.9.98-11.842 1.56-5.676.84-11.322 1.91-17.013 2.63-5.221.65-10.429 1.09-15.679-.46-4.51-1.34-9.215-2-13.8-3.11a3.864 3.864 0 0 1-2.162-1.78c-1.025-1.83-1.77-3.82-2.672-5.73a1.9 1.9 0 0 0-1.341-1.02 12.215 12.215 0 0 0 .359 1.84c1.65 4.62 3.266 9.26 5.024 13.84 1.6 4.17-.429 7.31-4.456 8.02a57.334 57.334 0 0 1-8.3.6c-2.894.07-3.938-.84-4.864-3.61a91.45 91.45 0 0 0-3.661-10.18c-1.265-2.67-3.243-5-4.885-7.5a24.028 24.028 0 0 1-3.6-11.59 6.288 6.288 0 0 1 2.118-4.91 14.33 14.33 0 0 0 3.931-9.61c.079-2.14 1.687-2.26 3.057-2.5 3.523-.62 7.1-.93 10.606-1.62 1.937-.38 3.747-1.68 5.668-1.82a19.162 19.162 0 0 1 6.753.86 8.4 8.4 0 0 0 5.908-.09 25.668 25.668 0 0 1 3.557-.82zm113.945 85.09h-15.323V113q-.041-28.815-.079-57.64c0-2.62 1.672-4.14 4.277-4.36a29.144 29.144 0 0 0 4.592-1.16 4.751 4.751 0 0 1 1.766-.36c5.009.77 10.012 1.58 15 2.47a3.622 3.622 0 0 1 1.645 1.14c2 1.98 4.037 3.76 7.048 4.14.688.08 1.625 1.49 1.738 2.38.7 5.51.859 10.98-1.126 16.37a12.9 12.9 0 0 1-5.809 7.08c-2.054 1.19-4.081.35-6.121-.03-1.656-.3-3.308-.64-4.975-.87a1.821 1.821 0 0 0-2.313 1.9c-.086 1.23-.3 2.45-.3 3.67-.027 9.16-.017 18.32-.018 27.49v2.44zM140.463 10.13c0 3.3-.007 6.43 0 9.56.01 3.89.018 7.79.056 11.68.037 3.73-1.089 5.36-4.842 5.71a30.591 30.591 0 0 1-13.522-1.64c-2.58-.94-5.677-.54-8.542-.55-1.4-.01-2.789.52-4.2.63-1.96.14-3.4-.37-4.2-2.62-.972-2.7-3.9-3.2-6.177-4.28-4.18-1.99-7.886-.26-11.529 1.77a42.546 42.546 0 0 1-5.095 2.47c-1.059.42-1.834-.04-1.823-1.39.053-6.48.12-12.97.084-19.45-.007-1.46.3-2.02 1.9-2.02 18.778.06 37.557.04 56.335.04.399 0 .799.05 1.558.09zM38.243 117.54V78.39c.64-.05 1.221-.13 1.8-.13 3.863-.04 7.725-.03 11.588-.08 1.643-.02 3.017.39 3.428 2.19.984 4.29 3.85 6.7 7.6 8.62a9.238 9.238 0 0 1 3.522 4.08c2.47 4.98 6.615 8.38 10.442 12.14 3.422 3.37 6.487 7.11 9.648 10.74.658.75.868 1.75-.665 1.75q-23.265.03-46.531.02a5.246 5.246 0 0 1-.829-.18zm40.63-107.3c0 6.58.03 13-.023 19.42-.012 1.46-1.856 2.54-3.553 1.94-3.878-1.37-7.315-.32-11 1.06-2.762 1.05-5.97.87-8.975 1.28a18.175 18.175 0 0 0-3.1.64 2.279 2.279 0 0 1-3.06-1.21c-2.946-5.83-7.7-9.97-12.681-13.92l-.324-.24c-.976-.83-2.847-1.77-2.76-2.46a28.031 28.031 0 0 1 2.058-6.35 1.824 1.824 0 0 1 1.273-.35q20.554-.015 41.11 0a6.991 6.991 0 0 1 1.038.19zm63.527-.2h2.243c13.018 0 26.035.03 39.052-.03a2.437 2.437 0 0 1 2.778 1.9c2.038 5.64 4.25 11.22 6.393 16.82a9.156 9.156 0 0 1 .538 1.55c.321 1.73-.348 2.28-2.024 1.7-5.311-1.84-10.61-3.72-15.934-5.53a52.171 52.171 0 0 0-8.346-2.48 10.588 10.588 0 0 0-5.47.93c-5.04 2.11-9.969 4.49-14.941 6.77-.308.14-.613.29-.924.42-2.689 1.17-3.4.67-3.383-2.24.035-5.8.015-11.61.018-17.42v-2.39zm24.577 33.32c-.046-5.58-3.789-9.61-5.959-14.29a10.307 10.307 0 0 0-1.045-1.5c2.969-2.29 5.973-3.51 9.673-2.19 6.176 2.22 12.5 4.03 18.584 6.48 4.761 1.91 9.2 4.63 13.867 6.79 4.6 2.14 9.295 4.08 14 5.97 1.826.73 3.1-.66 4.141-1.87 1.062-1.22 1.76-2.76 2.8-4.02 1.527-1.84 3.212-3.56 4.734-5.23 3.444 1.55 1.979 4.02 1.726 5.92-.824 6.16-4.1 11.18-8.046 15.76a3.387 3.387 0 0 1-2.625.76 4.162 4.162 0 0 1-2.424-1.32c-2.781-3.12-6.445-4.36-10.318-5.27q-10.221-2.4-20.422-4.89a32.517 32.517 0 0 1-5.79-1.73c-3.447-1.57-6.469-.42-9.522 1.02a6.026 6.026 0 0 0-.879.52c-1.333.95-2.182.65-2.535-.98zm-.043-.07c.3 1.98-.665 2.83-2.352 3.89a111.2 111.2 0 0 0-10.924 8.12c-5 4.08-9.837 8.35-14.773 12.51a10.763 10.763 0 0 1-2.024 1.04c-.794-5.33-1.4-10.4-2.337-15.41-.935-4.98-2.207-9.9-3.308-14.74 6.742.13 12.187-3.71 17.954-6.6 1.932-.96 3.707-2.25 5.626-3.24 2.282-1.18 3.781-.8 5.192 1.36 1.073 1.65 1.929 3.45 2.851 5.19 1.392 2.64 2.758 5.29 4.136 7.95l-.038-.07zM29.248 20.75c.44-1.72 1.588-1.85 2.975-1.29a30.847 30.847 0 0 1 13.565 10.99c.517.72.974 1.48 1.458 2.22 3.637 5.58 1.906 12.72-3.538 16.58-4.143 2.94-8.29 1.42-12.494.9a1.9 1.9 0 0 1-.831-1.36 4.867 4.867 0 0 0-3.567-4.28c-1.665-.51-1.984-1.57-2.12-3.21a19.65 19.65 0 0 0-1.441-6c-1.136-2.65-1.332-2.81 1.025-4.39 1.777-1.19 2.117-3.03 2.615-4.83.784-1.76 1.57-3.55 2.356-5.33zm36.295 66.62l11.031-2.44c1.529 2.28 3.514 4.88 5.1 7.7 4.566 8.13 10.432 15.29 16.227 22.5a7.624 7.624 0 0 1 .968 1.32c.9 1.86 2.1 2.39 4.042 1.38 1.127-.58 3.713 1.35 4.781 3.44-.563.16-1.1.32-1.778.53a2.869 2.869 0 0 0 .143 1.29 20.825 20.825 0 0 0 2.259 2.63 1.775 1.775 0 0 1 .272 2.52 4.23 4.23 0 0 1-5.319 1.59l-.866 1.16c-.946 0-1.723.05-2.491-.01-2.054-.16-2.917-1.61-3.709-3.31-1.049-2.24-1.954-4.7-3.538-6.53-7.362-8.48-14.9-16.8-22.461-25.1a19.307 19.307 0 0 1-4.658-8.67zm122.335-39.15a6.714 6.714 0 0 0-4.806 6.91c.059 3.2.013 6.4.013 9.74h-35.854c1.535-1.38 2.688-2.48 3.915-3.5 4.28-3.55 8.465-7.23 12.926-10.53a74.446 74.446 0 0 1 8.916-5.15 6.867 6.867 0 0 1 6.037-.27c2.86 1.11 5.847 1.87 8.856 2.8zM27.552 20.75c-.786 1.78-1.573 3.57-2.353 5.33a7.369 7.369 0 0 1-3.74 4.83c-1.348.65-1.309 1.84-.923 2.98a31.779 31.779 0 0 0 1.4 2.95c.926 2.03 1.429 4.05.275 6.24a2.149 2.149 0 0 0 .636 1.93 25.753 25.753 0 0 0 3.057 1.58 2.883 2.883 0 0 1 1.224 3.91c-.71 1.56-2.139.98-3.372.52-1.64-.6-3.072-2.04-5.055-1.29a.47.47 0 0 1-.2-.02c-2.388-.41-8.059-5.54-8.06-7.96a24.245 24.245 0 0 0-2.232-10.09c-.91-2.07.508-4.69 2.363-6.34a9.776 9.776 0 0 0 3.293-5.42c.514-2.24 1.4-4.79 4.14-5.32 3-.57 6.125-.38 8.4 1.85.917.89.795 2.85 1.15 4.32zm85.325 54.44c2.776-.38 5.556-.74 8.328-1.15 5.589-.83 11.191-1.59 16.747-2.6 1.3-.24 2.394-1.46 3.651-2.09 1.234-.62 2.551-1.5 3.839-1.51 12.13-.12 24.262-.07 36.393-.07.33 0 .66.07 1.258.14 0 2.25.043 4.48-.048 6.7a1.6 1.6 0 0 1-1.041.88 5.421 5.421 0 0 1-1.615.05h-67.464l-.045-.35zm-2.586 50.71c-.7-.82-1.5-1.75-2.291-2.67 1.737-2.24 1.483-3.06-2.046-6.13 1.955-1.41 3.787-2.91 5.79-4.12 1.885-1.14 3.092-.69 4.218 1.18q1.521 2.535 3.027 5.07a3.019 3.019 0 0 1-1.741 4.54c-2.242.7-4.491 1.38-6.954 2.13zm-72.03-50.55V67.8c2.994 0 5.887-.02 8.779.01a1.47 1.47 0 0 1 1.075.43c1.384 2.21 2.7 4.47 4.277 7.11H38.264zm0-21.45l3.794-.33c1.083 3.86 2.111 7.53 3.161 11.28h-6.955V53.9zM84.1 75.53c-1.875 0-3.753-.04-5.627.02-1.539.05-2.142-.73-2.259-2.49 2.765.7 5.356 1.36 7.948 2.02l-.062.45zm207.812-32.46c2.516-6.28 4.895-12.21 7.325-18.28 1.639.44 3.12.81 4.586 1.24a1.862 1.862 0 0 1 1.421 2.07c-.025 19.63 0 39.26-.074 58.9a2.538 2.538 0 0 1-1.331 1.82c-10.351 4.45-20.737 8.82-31.117 13.21-.34.14-.71.22-1.035.39a25.7 25.7 0 0 1-13.6 2.52c-1.62-.09-2.091-.5-2.082-2.12.064-11.17.034-22.35.036-33.52q.006-24.915.017-49.83c0-.74-.017-1.48.018-2.22.115-2.45.42-2.56 2.833-2.72 4.147-.29 7.821 1.47 11.675 2.43 4.717 1.17 9.382 2.55 14.083 3.84v21.26c-.948-.32-1.847-.67-2.773-.92-1.77-.47-2.26-.12-2.267 1.7-.019 4.75 0 9.51 0 14.26 0 9.63-.009 19.26.019 28.89a1.557 1.557 0 0 0 .514 1.22 3.206 3.206 0 0 0 1.469-.35.489.489 0 0 0 .268-.25c1.144-3.65 4.491-3.66 7.349-4.39 1.779-.46 3.636-.62 5.411-1.09a2.189 2.189 0 0 0 1.335-1.36 14.3 14.3 0 0 0 .107-3.13c-.007-9.2-.127-18.4.029-27.6.066-3.16-.445-5.51-4.213-5.97zm-29.457 16.62h.021c0-13.52-.028-27.03.038-40.54.008-1.67-.49-2.1-2.095-2.07-1.569.03-2.268.26-2.254 2.11.094 12.28.061 24.56.064 36.84q.006 22.215.022 44.42c0 .63.154 1.75.418 1.81a8.133 8.133 0 0 0 3.259.06c.291-.06.5-1.24.5-1.91q.052-20.355.03-40.72zM285.8 80.32V45.26c2.9.22 5.641.43 8.434.63.052.56.125.98.125 1.4.013 9.99.035 19.99-.019 29.98a2.031 2.031 0 0 1-1.012 1.6c-2.428.59-4.908.97-7.528 1.45zm12.056-55.9c-.672 1.29-1.431 2.54-2 3.87-1.912 4.47-3.811 8.95-5.6 13.47-.588 1.49-1.668 1.08-2.572.87a1.956 1.956 0 0 1-.92-1.53c-.13-5.36-.154-10.72-.243-16.08-.019-1.14-.18-2.27-.312-3.84 4.114 1.15 7.877 2.2 11.639 3.25zm-16.192 19.32c1.706.14 2.134.92 2.127 2.36q-.078 16.755.009 33.5a4.977 4.977 0 0 1-2.136 4.07V43.74zm16.188-19.31a7.03 7.03 0 0 1 .3-1.6q3.846-8.82 7.758-17.6a10.35 10.35 0 0 1 1-1.34 8.092 8.092 0 0 1-.031 2.44c-2.4 5.67-4.84 11.34-7.362 16.96-.231.51-1.1.74-1.665 1.12a.04.04 0 0 1 .003.02zm-12.174-4.09a4.911 4.911 0 0 1-.491-1.51c.111-5.92.27-11.83.433-17.75a4.749 4.749 0 0 1 .517-1.09v20.25l-.456.1z"/></svg>