<svg xmlns="http://www.w3.org/2000/svg" viewBox="0 0 177 207.03"><defs><style>.cls-1{fill:#314f95;fill-rule:evenodd}</style></defs><path class="cls-1" d="M.012 54.86c1.866-3.94 3.629-7.67 5.4-11.39 6.545-13.79 13.117-27.57 19.6-41.38A3.066 3.066 0 0 1 28.33.01c5.423.12 10.851-.02 16.273.09a3.118 3.118 0 0 1 2.32 1.35q12.6 26.25 25.038 52.57a6.216 6.216 0 0 1 .237.84H.012zm98.58 34.8c-1.134 3.19-2.386 6.34-3.36 9.58-.67 2.23-2.133 2.92-4.224 2.92-1.174.01-2.354-.06-3.52.05-2.214.19-2.713 1.15-2.167 3.23 1.9 7.22 3.721 14.47 5.533 21.73a12.107 12.107 0 0 1 .02 2.4 10.88 10.88 0 0 1-2.124-1.39c-2.94-3.24-5.936-6.44-8.643-9.87a4.761 4.761 0 0 1-.542-3.8c1.428-4.64 3.043-9.23 4.8-13.75 2.258-5.83 4.794-11.54 7.066-17.36 1.862-4.76 5.553-7.43 10.225-8.77a5.294 5.294 0 0 1 4.428.9c3.148 3.22 6.9 2.62 10.476 1.9a30.648 30.648 0 0 0 7.822-3.19c3.2-1.68 5.443-1.17 8.28 1.07 3.359 2.67 4.867 6.2 6.416 9.92 3.3 7.92 6.853 15.73 10.2 23.63a38.439 38.439 0 0 1 1.792 6.04 2.767 2.767 0 0 1-.334 2.08q-4.187 5.415-8.576 10.69c-.449.54-1.3.75-2.514 1.4.092-1.64.054-2.76.231-3.85 1.093-6.74 2.247-13.47 3.355-20.21.383-2.34-.359-3.13-2.648-2.94-3.988.32-4.431.08-5.782-3.62-.847-2.32-1.552-4.69-2.354-7.03-.245-.71-.6-1.39-.906-2.08l-.706.25c1.221 4.05 2.442 8.09 3.7 12.24H95.617c1.353-4.22 2.593-8.08 3.834-11.94-.287-.08-.573-.16-.859-.23zm42.856 16.04c-1.074 6.77-2.127 13.42-3.187 20.07a19.152 19.152 0 0 0-.536 3.22c.039 2.41-1.362 2.84-3.379 2.84l-37.164-.03c-3.471-.01-3.589-.11-4.391-3.4-1.823-7.46-3.6-14.93-5.469-22.7h54.126zm-24.042 12.51h-.075a5.277 5.277 0 0 0-.083-2.33 2.155 2.155 0 0 0-1.893-.66 10.52 10.52 0 0 0-2.766 3.31 4.03 4.03 0 0 0 .288 3.16 2.544 2.544 0 0 0 2.412.72 6.263 6.263 0 0 0 2.071-2.49 3.833 3.833 0 0 0 .046-1.71zM103.242 55.3c3.128 1.01 6.268 2.12 9.469 3.03a7.422 7.422 0 0 0 6.862-1.24c.848-.65 2.216-1.5 2.98-1.23 3.417 1.2 3.365 1.33 3.565 4.15.029.42.122.83.205 1.37 1.641-2.42.632-5.34-1.859-5.93a12.187 12.187 0 0 0-1.279-.72c-.93-.05-2.22-.25-2.755.25-3.143 2.94-6.366 3.22-9.974.94a8.8 8.8 0 0 0-2.327-.51c-2.5-.69-4.988-1.41-7.594-2.16a27.939 27.939 0 0 1 1.481 12.32c-1.975-1-3.142-2.04-3.49-4.26-.256-1.64-1.85-3.06-2.8-4.6a9.46 9.46 0 0 1 1.6-11.06 11.977 11.977 0 0 0 2.039-2.78c2.249-3.83 5.215-6.48 9.905-7.1s9.19-.78 13.385 1.86a9.979 9.979 0 0 1 4.414 4.94 7.393 7.393 0 0 0 2.482 3.21 4.808 4.808 0 0 1 2.095 4.06 18.178 18.178 0 0 1-3.245 11.93 31.3 31.3 0 0 0-3.166 6.36c-3.1 7.46-8.745 9.85-15.62 7.07-4.046-1.64-6.045-5.4-6.328-9.74-.214-3.23-.045-6.49-.045-10.16zm-13.011 92.89c-1.138 7.81 1.446 14.83 2.547 22.05.574 3.77.635 7.61.951 11.73h-2.485c-6.456 0-12.912.02-19.368 0-5-.01-8.218-2.68-8.4-7.57-.234-6.31-.177-12.64.028-18.95a7.224 7.224 0 0 1 6.274-7.09 19.231 19.231 0 0 1 2.629-.16c5.784-.01 11.567-.01 17.824-.01zm48.03 33.64c.859-11.21 3.134-22.14 1.943-33.45.612-.06 1.237-.18 1.861-.18 5.062-.01 10.124-.03 15.186 0 5.4.04 8.471 2.99 8.556 8.36q.133 8.505 0 17.01c-.082 5.42-3.24 8.39-8.756 8.4q-8.034.015-16.067 0c-.787 0-1.572-.08-2.723-.14zm-27.738-21.91c-.4 8.67-.789 16.35-1.067 24.04a6.338 6.338 0 0 0 .734 3.51c1.292 1.98 1.127 3.59-.695 4.93-3 2.22-6.276 3.79-10.192 3.25-2.921-.4-3.778-1.5-3-4.29a16.832 16.832 0 0 0-.312-9.49c-1.233-4.38-1.545-9.01-2.262-13.53-.568-3.58-1.278-7.15-1.7-10.75a26.78 26.78 0 0 1 2.473-15.26c.978-1.99 2.358-3.28 4.807-3.01a28.775 28.775 0 0 0 3.081.01c4.133.03 5.337.9 6.02 5.12.883 5.45 1.505 10.94 2.113 15.47zm19.794-20.56a7.886 7.886 0 0 1 7.345 5.98 44.169 44.169 0 0 1 .87 15.35c-.869 6.38-1.639 12.78-2.184 19.19-.253 2.98.162 6.01.191 9.02a2.244 2.244 0 0 1-.625 1.65 51.116 51.116 0 0 1-6.382 4.22c-2.834 1.44-4.873.47-6.114-2.43-.748-1.76-1.2-3.29-.183-5.31a11.07 11.07 0 0 0 .639-5.51c-.547-7.89-1.656-15.75-1.779-23.64a59.662 59.662 0 0 1 2.08-14.55c.667-2.79 3.227-4.18 6.142-3.97zm36.014 10.77c-3.255-3.62-7.607-4.49-12.426-4.32-4.6.17-9.2.04-14.563.04 2.807-4.14 5.076-8.01 7.878-11.46 3.34-4.12 7.055-7.95 10.761-11.75a9.654 9.654 0 0 1 10.672-2.59c4.453 1.58 8.056 4.44 8.361 9.37.153 2.48-.958 5.28-2.224 7.53-2.508 4.47-5.52 8.66-8.459 13.18zm-104.727.08c-1.024-1.92-1.939-3.88-3.075-5.7-1.457-2.33-3.134-4.54-4.643-6.84-2.55-3.9-4.01-7.96-1.25-12.38 2.5-4 7.843-6.54 12.232-5.55a11.175 11.175 0 0 1 4.836 2.37 85.851 85.851 0 0 1 18.414 22.82 7.467 7.467 0 0 1 .3.92h-14.06c-6.512 0-7.215.23-12.754 4.36zM34.667 58.7h4.113v123.15h-4.113V58.7zm58.688 81.75c-.725 1.24-1.271 2.18-1.956 3.36-7.784-12-16.674-22.72-29.256-30.3 4.882-9.23 12.665-15.67 22.767-20.58-.325 1.17-.467 1.82-.69 2.45-1.83 5.14-3.737 10.25-5.482 15.42a30.976 30.976 0 0 0-1.219 5.72 2.781 2.781 0 0 0 .811 1.88c3.884 4.35 7.836 8.63 11.721 12.97a3.827 3.827 0 0 1 .833 1.86c.159 1 .03 2.04.145 3.05.195 1.71-.327 3.79 2.326 4.17zm51.753-46.07c6.649 2.28 17.3 11.5 20.52 19.22-11.714 6.89-20.114 16.94-27.78 27.94a6.513 6.513 0 0 1-.785-.63 10.98 10.98 0 0 1-.771-1.09c2.792-.48 2.687-2.41 2.558-4.46-.139-2.21.373-4.18 2.794-5.09a2.883 2.883 0 0 0 1.278-.82q4.793-6.18 9.5-12.42c1.237-1.65.782-3.36.021-5.11-2.182-4.99-4.3-10.01-6.423-15.03-.328-.78-.579-1.59-.912-2.51zM20.466 193.41v-8.05h32.687v8.05H20.466zm92.192-37.31q1.893-1.47 3.78-2.94l2.579 2.3-.074-.07a6.627 6.627 0 0 1 1 2.06c.683 7.34 1.227 14.7 1.94 22.04.183 1.89-.225 2.68-2.27 2.52a45.054 45.054 0 0 0-5.925-.01c-1.463.06-2.2-.35-2.076-1.93.211-2.59.481-5.2.469-7.79-.022-4.57-.291-9.13-.324-13.69a7.716 7.716 0 0 1 .948-2.53zm24.6-21.94l-.166 3.39h-44.49c-.813-3.21-.55-3.59 2.469-3.58q19.778.015 39.555.07c.79 0 1.579.07 2.63.12zm-27.768 60.09c.531 2.63 1.2 4.98 1.436 7.37.3 3.02-.608 3.76-3.645 4.05-3.634.35-7.25.86-10.877 1.29-2.557.3-3.272-.23-3.243-2.72a2.194 2.194 0 0 1 1.252-1.69c3.595-.53 7.22-.86 10.836-1.24a5.868 5.868 0 0 0 2.433-.58c-3.652-1.53-7.4-.88-11.328-.43l.884-3.52c4.393 1.49 8.171-.2 12.25-2.53zm14.729 2.16c4.032 1.95 7.413-.41 10.654-1.86.62 1.41 1.164 2.65 1.766 4.03-2.656.55-5.893-.36-8.538 1.87 1.026-.05 2.052-.13 3.079-.15 1.834-.03 3.669-.03 5.5-.04 3.329-.01 3.809.49 3.05 3.63a2.333 2.333 0 0 1-1.645 1.4c-3.438.22-6.889.27-10.337.34a8.358 8.358 0 0 1-2.179-.19c-3.019-.77-4.038-2.97-2.746-5.79.477-1.04.908-2.1 1.394-3.24zM147.235 184h8.25c-.325 3.47-.6 6.82-1 10.15a1.726 1.726 0 0 1-1.229.92c-4.218.73-4.8.26-5.238-3.93-.242-2.29-.504-4.58-.787-7.14zm-74.462.05h8.253c-.327 3.46-.6 6.76-1 10.04a2.729 2.729 0 0 1-1.153 1.01.876.876 0 0 1-.431.01c-4.386.27-4.4.27-4.917-4.1-.262-2.22-.482-4.44-.754-6.96zm39.937-27.99c-1.389-1.15-1.731-2.67-1.909-4.41a62.456 62.456 0 0 0-1.426-8.32 15.786 15.786 0 0 0-1.889-3.56c2.2-1.07 5.061.09 6.271 2.87 2.027 4.65 1.839 9.17-1.09 13.45a.213.213 0 0 0 .041-.03zm6.309-.6c-.564-1.46-1.548-2.89-1.6-4.36a29.278 29.278 0 0 1 .738-7.52c.708-3.06 3.63-4.53 7.058-3.86-3.923 3.76-3.405 8.85-4.357 13.49-.223 1.09-.045 2.51-1.914 2.18l.073.07zm-2.85-4.56c-.91-3.85 0-8.19-3.861-11.42h8.269c-4.598 3.01-3.806 7.37-4.41 11.42z"/></svg>