<svg xmlns="http://www.w3.org/2000/svg" viewBox="0 0 153 224"><defs><style>.cls-1{fill:#fff;fill-rule:evenodd}</style></defs><path class="cls-1" d="M60.928 87.68c1.944-.88 3.887-1.77 5.575-2.54 1.018 5.08 1.921 10.1 3.07 15.06a30.789 30.789 0 0 0 2.283 6.14A145.738 145.738 0 0 0 92.1 137.7c2.214 2.64 4.661 5.19 5.393 8.85a3.642 3.642 0 0 1-1.135 3.87 23.714 23.714 0 0 1-4.5 3.19c-6.982 3.46-13.984 6.88-21.081 10.09-3.773 1.71-7.648 3.5-11.665 4.28a35.467 35.467 0 0 1-21.474-2.7c-2.545-1.13-4.612-3.38-6.818-5.21a1.663 1.663 0 0 1-.139-1.57c1.689-3.05 3.507-6.03 5.223-9.06 3.254-5.74 7.563-11 8.471-17.86.573-4.33 1.166-8.67 1.6-13.02.124-1.23.439-1.74 1.691-1.62a7.193 7.193 0 0 0 5.336-1.67c3.936-3.14 3.267-7 1.118-10.64a2.616 2.616 0 0 0-1.786-1.21 25.762 25.762 0 0 1-6.96-1.17c-1.36-.37-2.212-.79-2.719-2.01-1.655-3.98-3.111-8.07-5.014-11.93a21.992 21.992 0 0 1-2.13-10.75 8.415 8.415 0 0 0-.56-2.57 3.94 3.94 0 0 1 2.845-5.04c2.8-.85 5.525-1.96 8.4-3-.1-.04 0-.04.027.01 3.353 4.94 8.306 5.88 13.736 5.39q6.312-.57 12.589-1.51c7.026-1.07 14.071-2.1 21.031-3.52 5.937-1.21 11.765-2.96 17.809-4.51.03.08.184.43.3.8 1.619 4.98 1.638 5.06-3.572 6.42-9.393 2.44-18.792 4.87-28.227 7.14-5.8 1.39-10.518 4.86-15.6 7.64-1.267.69-2.463 1.52-3.691 2.28.119.2.225.39.33.59zm52.82-17.07c.59 5.02 1.231 9.8 1.665 14.59a17.458 17.458 0 0 1-.54 4.28c-.685 4.11-1.515 8.2-2.075 12.33-.633 4.66.682 9.11 1.735 13.59.829 3.52 1.509 7.09 2.155 10.65a2.142 2.142 0 0 1-.589 1.73c-3.262 2.58-6.489 5.32-11.163 4.32-2.454-.52-4.921-1.01-7.4-1.37-2.355-.33-4.743-.43-7.1-.72a3.474 3.474 0 0 1-2.122-.8c-7.24-9.43-14.388-18.98-17.433-30.74-1.157-4.48-1.457-9.18-2.019-13.79a2.153 2.153 0 0 1 1.182-1.58c3.007-1.26 6.073-2.39 9.421-3.68 1.442 4.43 2.761 8.48 4.08 12.52l.424-.11a29.41 29.41 0 0 1 1.274-4.51 78.262 78.262 0 0 1 4.248-8.21 5.554 5.554 0 0 1 2.892-2.24c5.3-1.6 10.674-2.97 16.006-4.47 1.755-.5 3.473-1.16 5.359-1.79zm-22.414 62.24a10.928 10.928 0 0 1 2.734-.34c3.008.54 5.966 1.44 8.99 1.8 3.526.42 7.2 1.3 10.248-1.79a24.728 24.728 0 0 1 4.257-2.87 2.22 2.22 0 0 1 .353.47c2.6 6.85 5.713 13.56 7.659 20.59 2.408 8.7 6.767 16.38 10.808 24.27 2.8 5.48 5.347 11.09 8.076 16.6a46.238 46.238 0 0 0 2.556 4.15 1.986 1.986 0 0 1-.592 3.01c-1.7 1.26-3.333 2.62-5.075 3.82-2.011 1.39-6.7.1-8.652-2.47-2.558-3.39-5.086-6.79-6.237-11.02a27.748 27.748 0 0 0-2.179-4.86c-1.659-3.36-3.357-6.7-5.05-10.05-2.476-4.88-4.822-9.84-7.521-14.61-.96-1.69-2.939-2.77-4.185-4.34-2.083-2.63-3.8-5.56-5.948-8.13-2.73-3.26-5.3-6.64-7.891-10a32.937 32.937 0 0 1-2.351-4.23zM17.862 48.86c-.359-1.63-.41-3.42-1.129-4.87-2.971-6.02 2.066-13.74 6.952-15.32 4.167-1.35 8.2-2.53 12.545-.58a6.141 6.141 0 0 0 5.521-.41c2.594-1.35 5.206-.8 7.517.92a2.914 2.914 0 0 1 .909 3.86c-.754 1.41-1.8 2.82-3.85 2.45-1.673-.3-3.362-.51-5.038-.79-1.456-.25-2.066.18-1.745 1.76a9.417 9.417 0 0 1-2.168 8.24 6.026 6.026 0 0 1-2.087 1.59c-2.054.92-2.227 1.29-.762 3a11 11 0 0 1 2.743 8.34c-.249 3.31-2.536 4.83-5.127 5.76a5.7 5.7 0 0 1-6.347-1.7 19.736 19.736 0 0 0-4.265-3.48c-3.812-2.25-4.303-4.77-3.669-8.77zM123 62.37a33.944 33.944 0 0 0 .74 5.57c.8 2.68 2.133 5.2 2.948 7.88.707 2.32.9 4.79 1.537 7.14a7.735 7.735 0 0 0 1.7 2.96 7.462 7.462 0 0 0 3.064 1.9 27.2 27.2 0 0 1-2.174-3.17 21.963 21.963 0 0 1-1.536-4.13c-.856-3.21-1.525-6.47-2.408-9.67-.47-1.71-1.345-3.31-1.823-5.01-.617-2.2.056-3.27 2.125-4.1.754-.31 1.426-.8 2.158-1.17 1.733-.86 3.48-1.69 5.423-2.63.54 1.7.941 2.92 1.317 4.16a26 26 0 0 0 6.489 11.28c.437.43.766.98 1.212 1.39 3.95 3.7 2.106 8.28 1.914 12.6a3.923 3.923 0 0 1-.186.8c-.434 1.62.559 4.18-1.57 4.68-3.4.81-6.923 2.64-10.5.37-2.591-1.65-5.265-3.17-7.809-4.88-2.868-1.94-5.636-4.02-8.432-6.06a1.784 1.784 0 0 1-.607-.8c-1.037-3.04-2.422-6.08-1.565-9.37a11.863 11.863 0 0 1 2.093-4.26c1.628-2.07 3.558-3.9 5.361-5.82l.529.34zM83.964 42.75c-.7.39-1.416.75-2.088 1.18-3.587 2.29-7.322 2.1-10.906.25a6.49 6.49 0 0 1-2.75-3.39 45.935 45.935 0 0 1-2.273-8.92c-.266-1.95.112-4.03 2.378-5.18 2.845-1.45 5.54-3.2 8.342-4.73 1.41-.78 2.515-.38 3.751.78a9.845 9.845 0 0 0 4.081 2.01 34.29 34.29 0 0 0 5.1.59c-1.683 3.02-.829 5.2 1.343 7.46 1 1.04 1.093 3.09 1.291 4.72.382 3.14.565 6.31.782 9.47a2 2 0 0 1-.331 1.42c-1.139 1.08-2.292 2.7-3.623 2.9a22.786 22.786 0 0 1-7.983-.22c-1.642-.34-1.767-3.66-.425-4.91 1.141-1.07 2.312-2.1 3.469-3.14l-.161-.29zm17.851 151.28c-2.246-.14-4.515-.13-6.731-.46-1.809-.27-3.53-1.11-5.338-1.41a37.249 37.249 0 0 0-5.275-.05c-.943-.63-1.018-2.21-.544-3.76 1.6-5.22 1.379-10.55 1.181-15.9-.137-3.69-.284-7.39-.255-11.09a2.84 2.84 0 0 1 1.311-1.96c3.46-2.04 7-3.95 11.054-6.21-.494 3.13-.819 6.05-1.434 8.91-1.629 7.55-3.406 15.08-5.074 22.63-.528 2.38-.089 2.78 2.3 3.24a9.946 9.946 0 0 1 3.317 1.38c1.941 1.21 3.775 2.6 5.654 3.91l-.169.77zm-72.673-32.01c2.969 2.29 5.763 4.44 8.775 6.75-.553.85-1.171 1.81-1.8 2.77-4.054 6.19-8.137 12.35-12.135 18.58a9.472 9.472 0 0 0-1.172 3.25c-.085.43.529.98.788 1.5.274.55.838 1.22.7 1.66-.788 2.49-2.713 3.87-5.085 4.68-1.329.46-1.87-.55-1.921-1.48-.15-2.77-.607-5.67-.02-8.31 1.74-7.82 3.877-15.58 7.528-22.77a70.274 70.274 0 0 1 4.339-6.63zM93.629 36.01c.17-2.69-1.545-4.41-3.218-6.24-1.068-1.16-.343-3.74 1.006-4.62a4.945 4.945 0 0 0 .917-1.11 5.261 5.261 0 0 0-1.409-.53 78.69 78.69 0 0 0-5.319-.23 6.256 6.256 0 0 1-5.091-2.56 3.283 3.283 0 0 0-2.99-.73c-2.937 1.22-5.738 2.77-8.57 4.24-1.934 1-3.782 2.19-5.765 3.08-2.023.9-3.752-.15-4.4-2.27a19.664 19.664 0 0 0-1.482-3.2c-.594-1.13-.587-2.21.556-2.86 2.5-1.43 4.64-3.3 8-3.15 10.379.45 20.562 1.67 30.254 5.65a2.328 2.328 0 0 1 1.371 1.23c.607 4.44.311 8.75-2.439 12.55a3.855 3.855 0 0 1-.722.71 1.991 1.991 0 0 1-.702.04zM36.096 47.06c3.775-2.29 4.981-6.35 4.954-11.19 2.669.25 5.177.49 7.862.74 1.327 4.56 3.5 9.26 3.167 14.55-.157 2.46-.282 4.86-2.709 6.25-2.683 1.54-5.3 1.56-7.822-.46-.513-.41-1.285-.48-1.843-.85a2.785 2.785 0 0 1-1.105-1.24c-.855-2.47-1.608-4.97-2.507-7.8zm58.167-33.09c-3.677-.85-7.61-2.14-11.637-2.59-4.858-.53-9.8-.35-14.7-.47a1.409 1.409 0 0 0-.2.02c-3.133.34-3.566-.18-2.284-3.01 1.152-2.53 2.356-5.05 3.723-7.48a2.225 2.225 0 0 1 2.107-.3c5.263 3.24 11.2 2.66 16.944 3.17a16.643 16.643 0 0 1 2.242.18 2.975 2.975 0 0 1 2.617 3.1 69.144 69.144 0 0 0 1.185 7.38zM74.181 164.96a9.015 9.015 0 0 0 .723 2.28c2.582 3.79 2.606 8.09 2.6 12.42 0 1.11-2.4 3.2-3.834 2.8a21.89 21.89 0 0 0-9.057-.81 1.421 1.421 0 0 1-1.219-.56c-1.32-3.42-2.552-6.87-3.691-10 4.997-2.11 9.676-4.1 14.475-6.13zm42.385-117.8c.064-4.51.742-5.65 3.805-6.77a5.172 5.172 0 0 1 4.937.72c4.622 2.86 5.575 7.6 6.829 12.19 1.073 3.94.947 3.97-3.03 5.53-.573.22-1.154.43-1.742.61-2.91.89-2.7.77-4.21-1.88a25.171 25.171 0 0 0-4.565-5.75c-1.551-1.46-2.443-2.88-2.027-4.65zm30.891 153.52c1.323 3.09 2.189 6.04 3.747 8.56 2.534 4.09 1.9 8.19 1.031 12.47-.42 2.06-2.172 1.99-3.494 2.23a9.276 9.276 0 0 1-3.68-.6 1.552 1.552 0 0 1-.236-1.12c.874-6.26-1.755-11.51-4.8-16.78l7.429-4.76zM27.98 64.62c-1.253 2.6-2.366 4.94-3.5 7.27-1.782 3.67-3.861 4.5-7.581 2.75a35.066 35.066 0 0 1-5.57-3.39c-2.733-2-5.482-3.49-8.864-1.66A29.144 29.144 0 0 0-.01 71.31a8.183 8.183 0 0 1 8.312-5.07c1.637.1 3.276.22 4.906.4a3.184 3.184 0 0 0 3.512-1.86c1.1-2.1 2.686-2.54 5.177-2.57 2.713-.03 4.136 1.67 6.083 2.41zm26.9 126.33c4.981.48 8.5-2.37 11.7-5.43a7.332 7.332 0 0 1 5.723-1.95c1.791.02 3.582.01 5.608.01l1.409 3c1.467 3.11 1.283 4.25-1.2 6.42a2.487 2.487 0 0 1-1.5.39c-6.145.03-12.293.12-18.435-.03-1.2-.03-2.381-1.05-3.571-1.61l.265-.8zm39.874-142.1a5.608 5.608 0 0 0 1.471 1.46c2.694 1.04 2.52 2.84 1.751 5.12-1.025 3.02-1.546 6.22-3.875 8.69-1.5 1.58-4.449 1.6-5.68-.11-.834-1.16-1.707-2.29-2.691-3.61 3.258-2.98 3.928-8.86 9.023-11.55zm6.382-27.88a44.093 44.093 0 0 1-5.4-1.43 75.354 75.354 0 0 0-29.062-5.13c-3.13.02-6.253 1.25-9.378 1.93a5.5 5.5 0 0 1-1.386.33 4.882 4.882 0 0 1-1.371-.47 2.871 2.871 0 0 1 .735-1.3c3.078-1.07 6.173-2.78 9.3-2.87a109.592 109.592 0 0 1 18.369 1.04 79.319 79.319 0 0 1 14 3.78c1.713.58 3.07 2.22 4.589 3.38l-.397.74zm-47.093 89.46a642.02 642.02 0 0 1-1.783 3.98.686.686 0 0 1-.132.16c-2.032 2.2-8.716.83-9.606-2.02a39.158 39.158 0 0 1-1.183-4.78c-.537-2.98 1.33-4.63 4.2-3.55a22.352 22.352 0 0 0 6.279 1.51c2.22.18 1.744 2.54 2.224 4.7zm42.45-46.27c.991-3.24 2.02-6.41 2.911-9.62.334-1.2.866-1.89 2.114-1.5 2.653.82 5.294 1.68 7.906 2.63a41.947 41.947 0 0 1 3.81 1.84c-1.606 1.27-2.758 2.72-4.232 3.23-3.93 1.35-8 2.31-12.015 3.41a1.3 1.3 0 0 1-.495.01zm-51.944 1.7c-2.864.97-5.623 1.89-8.3 2.79-.75-1.98-1.294-3.42-1.691-4.46 1.555-2.17 3.017-4.21 4.589-6.4 3.845.64 4.27 4.29 5.401 8.07zm70.678 1.62a24.58 24.58 0 0 1-1.373-2.31c-.46-1.07-1.172-2.2-1.1-3.26.06-.93 1.04-1.81 1.613-2.71 1.053-1.65 2.105-3.31 3.347-5.26 1.346 1.68 2.663 3.28 3.912 4.93a1.174 1.174 0 0 1 .051 1.1c-2.083 2.48-4.217 4.92-6.451 7.51zm-39.144.13c-4.3.9-8.337 1.74-12.374 2.58l-.3-.59c2-4.62 7.493-5.78 10.232-10.55.899 3.16 1.612 5.66 2.441 8.56zm12.581-13.69c-1.588 2.33-3.077 4.51-4.525 6.63a7.325 7.325 0 0 1-4.894-7.87c3.011.4 5.982.79 9.418 1.24zm-11.448.82c1.5 2.33 2.781 4.23 3.958 6.2a2.1 2.1 0 0 1 .156 1.6 22.311 22.311 0 0 1-1.669 3.52 2.37 2.37 0 0 1-1.359.99 1.833 1.833 0 0 1-.892-1.11 34.68 34.68 0 0 1-1.775-6.95c-.106-1.37 1.012-2.83 1.58-4.25zm6.3 32.93c-.964-2.98-1.779-5.49-2.716-8.39 2.527-.53 4.956-1.03 7.809-1.63-1.742 3.43-3.309 6.52-5.09 10.02zm-.234-25.96c1.679 1.31 3.021 2.37 4.363 3.42l-.186.67c-2.13.35-4.259.7-6.916 1.14l2.742-5.23zm16.286-39.52c1.189.41 2.122.73 3.056 1.06l.1.56c-.955.38-1.909.77-3.151 1.28v-2.9z"/></svg>