<svg xmlns="http://www.w3.org/2000/svg" viewBox="0 0 164.94 215.03"><defs><style>.cls-1{fill:#fff;fill-rule:evenodd}</style></defs><path class="cls-1" d="M139.94 65.35l4.92 14.37-46.37 1.02c1.39-5.14 2.69-10 4-14.87l-.84-.27c-.38.92-.83 1.82-1.14 2.77-1.09 3.39-2.2 6.79-3.17 10.22a2.813 2.813 0 0 1-3.36 2.33 36.329 36.329 0 0 0-3.9.09c-2.5.1-3.21.92-2.73 3.34 1.15 5.89 2.35 11.78 3.55 17.66.65 3.18 1.38 6.34 1.98 9.52a1.993 1.993 0 0 1-.4 1.7 1.868 1.868 0 0 1-1.72-.31 51.828 51.828 0 0 1-5.08-4.85c-1.92-2.2-3.55-4.64-5.39-6.9a5.139 5.139 0 0 1-1.15-5.2c2.12-6.03 4.23-12.07 6.52-18.04 2.84-7.42 5.51-14.94 8.95-22.09a27.41 27.41 0 0 1 7.52-8.96c2.38-1.94 5.51-.82 8.2.78a25.307 25.307 0 0 0 17 3.47 6.9 6.9 0 0 0 3.42-2.14 6.457 6.457 0 0 1 7.58-1.55c5.46 2.11 9.43 5.57 11.67 11.26 3.38 8.6 7.38 16.95 10.94 25.48 1.49 3.58 2.51 7.36 3.72 11.06a4.714 4.714 0 0 1-1.14 4.91c-3.22 3.65-6.3 7.43-9.47 11.12a16.949 16.949 0 0 1-2.13 1.81l-.7-.26a19.978 19.978 0 0 1 .22-3.11c2.01-8.77 4.07-17.53 6.12-26.28.6-2.54-.44-3.88-3.07-3.88l-3.66.05c-4.7-.01-3.85.93-5.86-3.96-1.43-3.48-2.64-7.06-3.95-10.59zM90.18 85.53l64.55-1.34c-2.26 10.64-4.45 20.97-6.75 31.82-5.2 0-10.3-.07-15.39.02-11.36.2-22.72.42-34.08.78-2.17.07-2.91-.62-3.26-2.72-1.57-9.42-3.32-18.8-5.07-28.56zm35.5 15.81c-.93-1.15-2.19-2.85-3.6-4.42a2.186 2.186 0 0 0-1.81-.7 2.116 2.116 0 0 0-1.07 1.64 20.68 20.68 0 0 0 .25 5.04 3.064 3.064 0 0 0 3.6 2.54c1.75-.23 2.59-1.48 2.63-4.1zm9.18-77.19c0 4.22.2 8.27-.05 12.29-.3 5.11-2.69 9.45-7.28 11.61-6.62 3.11-13.61 1.89-17.44-5.48-2.49-4.78-4.86-9.59-7.68-14.2-2.11-3.46-2.17-7.45-1.8-11.35.12-1.22 1.08-2.39 1.8-3.49a62.356 62.356 0 0 1 3.72-5.26 27.916 27.916 0 0 1 4.64-5.1c4.75-3.56 10.24-3.44 15.87-2.83 5.91.65 9.76 3.89 12.52 8.88a10.959 10.959 0 0 0 2.26 2.81c3.39 3.01 4.44 9.2 2.33 13.2-1.41 2.67-3.82 4.79-3.97 8.22-.04.98-1.98 1.88-3.23 2.97-1.54-5.47.46-10.35 1.22-15.31-4.7 1.66-9.31 3.29-13.91 4.91-3.2 1.13-6.26 1.07-8.86-1.4-1.61-1.54-3.13-2.27-5-.38-.32.32-1.09.15-1.6.34-.57.21-1.48.5-1.54.88-.35 2.02-.49 4.08-.7 6.14.32.02.65.05.98.08a20.149 20.149 0 0 1 .39-3.9 4.56 4.56 0 0 1 1.69-1.76c2.91-2.37 4.96-.24 7.32 1.24 2.33 1.46 4.97 1.12 7.54.26 2.8-.95 5.63-1.82 8.45-2.71.76-.25 1.54-.44 2.33-.66zm4.97 101.32c5.77-.16 5.97.02 8.34 5.29 2.95 6.53 3 13.38 2.19 20.28-.9 7.72-2.02 15.42-3.14 23.12-.4 2.75-1.29 5.44-1.5 8.19a21.377 21.377 0 0 0 .8 5.89c.68 3.21.08 4.4-3.17 4.98-5.49.99-10.07-1.08-13.82-4.89-.67-.68-.68-2.74-.15-3.7a8.515 8.515 0 0 0 .88-6.53 20.7 20.7 0 0 1-.32-3.87c-.36-6.39-1.14-12.8-.97-19.17.22-8.09 1.01-16.18 1.98-24.21.51-4.24 2.19-5.24 6.44-5.38.81-.03 1.63 0 2.44 0zm-74.8 17.16c-2.61-.36-4.62-.64-7.26-1.01.46 4.77.88 9.25 1.33 13.72.11 1.05.38 2.08.46 3.12.54 6.57 1.39 5.59-5.44 8.02-6.21 2.21-12.74 2.28-19.24 2.33-3.99.03-4.03.02-4.05-4.1-.01-1.53.23-3.06.23-4.59a10.491 10.491 0 0 0-.34-2.08c-1.46.49-3.04 1.59-3.87 1.18a40.916 40.916 0 0 1-6.67-4.58c-.21-.16.16-1.21.41-1.78 1.74-4.1 3.63-8.15 5.27-12.3 1.53-3.88 5.01-5.84 7.93-8.36.35-.3 1.37.1 2.06.27 2.3.6 4.6 1.71 6.9 1.7a6.753 6.753 0 0 0 4.59-2.51 4.3 4.3 0 0 1 4.32-1.89c2.55.25 5.1.51 7.65.71 2.28.18 3.79 1.12 4.16 3.57.4 2.63.95 5.24 1.56 8.58zm-25.41 6.58c-.83-.75-1.47-1.32-1.79-1.6.6-.93 1.03-1.59 1.45-2.25a10.15 10.15 0 0 0-2.51-.11 1.859 1.859 0 0 0-1.23 1.12 22.642 22.642 0 0 0-.39 3.3c.64.37 1.5.87 2.36 1.38l2.11-1.84zm-.39-6.94c.06-.38.12-.76.17-1.14a29.9 29.9 0 0 0-3.23-.68 3.29 3.29 0 0 0-1.34.57 2.783 2.783 0 0 0 .94 1.19 24.9 24.9 0 0 0 3.46.06zm76.22 10.34c-.83 7.32-1.96 14.61-2.36 21.94-.19 3.43.75 7 1.66 10.38.85 3.13-.79 5.42-2.31 7.46-.73 1-3.5 1.44-4.8.87a63.478 63.478 0 0 1-8.91-5.37 1.91 1.91 0 0 1-.54-1.66c1.68-6.13-.31-12.04-.97-18.03-.96-8.81-3.07-17.52-2.51-26.47.14-2.26.53-4.51.69-6.77a9.121 9.121 0 0 1 5.41-7.86c5.21-2.45 10.6-.64 12.01 5.93 1.38 6.38 1.79 12.97 2.63 19.58zm44.41 10.82v24.83c0 3.42-.53 3.93-3.97 3.92-1.71-.01-3.41-.03-5.11-.05-1.81-.02-2.59-.97-2.67-2.74-.09-1.93-.5-3.86-.47-5.78a36.825 36.825 0 0 1 .73-5.19c.29-1.75.68-3.48.91-5.23.83-6.25 1.84-12.48 2.36-18.75.44-5.46.45-10.98.38-16.46-.02-2.14 1.13-2.55 2.69-3.04 3.81-1.18 5.13-.3 5.14 3.67.02 8.27 0 16.55 0 24.82h.01zm-66.6-18.18c1.08 14.12 2.06 27.7 3.16 41.27.64 7.81.45 8.01-7.2 7.61-2.36-.12-3.62-.77-3.64-3.31-.04-3.39-.34-6.78-.35-10.18q-.015-19.335.11-38.68a12.72 12.72 0 0 1 .55-3.57c.61-2.03 2.4-2.63 5.24-2.23 2.16.3 2.18 1.69 2.14 3.32-.05 2.1-.01 4.21-.01 5.77zM115 192.61a11.477 11.477 0 0 1 .59-2.38c1.25-2.55.87-5.03.44-7.74a49.348 49.348 0 0 1-.26-10.1c.34-7.1 1.08-14.2 1.26-21.3.08-3.13 1.57-4.97 3.82-6.57a1.634 1.634 0 0 1 1.31-.26c1.59 1.91 4.59 2.69 4.69 5.82.31 9.87.67 19.74.96 29.62a5.247 5.247 0 0 1-.5 3.05c-2.07 2.81-.49 5.18.51 7.69a12.616 12.616 0 0 1 .44 2.48 13.363 13.363 0 0 1-2.42.31c-3.5-.16-7-.39-10.84-.62zM0 202.32c.01-7.03 5.56-12.36 12.85-12.32 6.91.04 12.14 5.56 12.11 12.79A12.482 12.482 0 0 1 0 202.32zm58.86-34.75c.64 4.89 1.29 9.93 1.98 14.96.26 1.88-.7 2.94-2.37 2.89a51.555 51.555 0 0 1-8.86-.97c-.7-.15-1.09-1.84-1.75-3.07a12.591 12.591 0 0 1-2.01.09c-1.56-.13-2.03.64-1.85 2.04.26 2.03-.76 3.25-2.67 3.2a43.739 43.739 0 0 1-8.79-.96c-.8-.18-1.62-2.1-1.69-3.26a87.408 87.408 0 0 1 .17-9.71 2.061 2.061 0 0 1 1.41-1.41c4.42-.42 8.89-.45 13.29-1.07 4.29-.6 8.51-1.74 13.14-2.73zm-18.95-39.21c-5.37-.59-9.71-3.61-12.72-8.63a3.285 3.285 0 0 1-.23-2.09c.31-1.65.89-3.25 1.17-4.91.26-1.47.92-2.17 2.44-1.98a8.051 8.051 0 0 1 1.21.03c5.52 1.51 9.07-1.36 12.26-5.3 2.12-2.63 2.51-2.43 4.17.36 2.42 4.08 2.83 8.63 3.05 13.11.29 5.88-2.86 8.6-11.35 9.41zm-14.44-10.05c-.99-1.67-2.54-3.24-2.84-5.03-.5-2.91-.18-5.97-.19-8.96a1.042 1.042 0 0 1 .21-.68c2.85-2.87 5.44-6.09 8.65-8.49 4.25-3.19 9.37-2.57 13.42.84 2.38 2 2.34 4.04.01 5.88a7.444 7.444 0 0 0-2.1 2.31c-2.04 4.05-5.36 5.55-9.75 5.43-5.26-.14-5.26-.06-5.98 5.27-.14 1.03-.34 2.05-.51 3.07l-.92.36zm70.64 1.7c1.59-.08 3.04-.19 4.48-.23q22.77-.585 45.54-1.15c3.92-.1 3.99 0 3.34 4.72-4.35 0-8.8-.06-13.24.02q-18.27.315-36.54.74c-3.84.09-3.84.12-3.58-4.1zm34.61 71.9c4.95 2.6 9.51 4.75 14.73 2.71.41 1.47.76 2.69 1.17 4.17-4.59-.31-9.19-.94-13.65.26l-.05 1.03c.91.09 1.83.19 2.75.26 4.34.34 8.69.7 13.03 1.01 2.43.17 1.97 1.83 1.83 3.34a2.267 2.267 0 0 1-2.8 2.28c-3.96-.36-7.91-.74-11.87-1.11-.65-.06-1.29-.18-1.94-.22-4.13-.31-5.01-1.1-4.7-5.21a83.383 83.383 0 0 1 1.5-8.52zM108.63 199c-3.35-1.57-7.09-.72-10.43-1.08l2.24-4.98c3.88 1.66 7.98 4.39 12.99 1.79.71 2.47 1.47 4.81 2.04 7.19a2.561 2.561 0 0 1-1.99 3.17 16.255 16.255 0 0 1-4.46 1c-4.14.12-8.28.02-12.42-.01-2.66-.02-1.83-2.18-2.09-3.59-.26-1.43.06-2.62 1.93-2.62 4.02.02 8.04.01 12.06.01l.13-.88zm-44.48-67.41c3.9-.14 7.58-.15 11.23-.44 1.47-.12 2.86-.97 4.33-1.31a7.828 7.828 0 0 1 3.51-.26c3.05.79 3.76 3.07 1.73 5.48a2.775 2.775 0 0 1-2.36.51c-2.67-.76-4.95-.18-7.4 1.07a52.922 52.922 0 0 1-8.42 2.99 1.572 1.572 0 0 1-1.33-.81c-.5-2.26-.83-4.56-1.29-7.23zm-43.29 25.56a50.1 50.1 0 0 1 5.11 2.73 2.568 2.568 0 0 1 .67 2.22 39.232 39.232 0 0 1-1.81 5.76 4.99 4.99 0 0 0 1.16 5.91c1.73 1.72 1.56 2.69-.4 4.38a9.7 9.7 0 0 0-1.43 2.2c-1.04 1.62-2.13 1.38-2.93-.11-1.46-2.69-3.81-5.32-1.13-8.63.26-.32-.04-1.08-.03-1.64.04-3.39.06-6.79.17-10.18a14.856 14.856 0 0 1 .62-2.64zm62.22-29.72c4.76-3.02 5.72-9.15 9.58-13.13l1.1.38c.14 2.44.28 4.89.44 7.33.13 1.99-.23 4.29 3.38 4.47-1.39 2.1-2.54 3.84-3.38 5.12h-6.46c-1.26-1.12-2.67-2.39-4.66-4.17zM40.6 198.21c1.75 1.45 3.22 2.62 4.62 3.86a11.245 11.245 0 0 1 1.96 2.12 1.952 1.952 0 0 1-1.38 3.24c-4.58.78-9.08.81-12.7-2.74-1.67-1.65-.86-3.66-.59-5.99 3.11 1.36 5.91 1.51 8.09-.49zm12.95.02c2.31-.68 4.09-1.32 5.94-1.68a3.569 3.569 0 0 1 2.19.66c2.14 1.3 4.28 2.62 6.29 4.12a3.066 3.066 0 0 1 1.17 2.26 2.462 2.462 0 0 1-1.82 1.4 27.928 27.928 0 0 1-12.18-1.17 2.322 2.322 0 0 1-1.21-1.54 34.335 34.335 0 0 1-.38-4.05zm72.65-52.31a15.019 15.019 0 0 1-3.17-11.86 20.665 20.665 0 0 1 1.08-3.99c1.21-3.37 3.65-4.71 7.59-4.12-2.49 2.33-2.69 5.42-3.09 8.43-.37 2.8-.54 5.63-.97 8.42a13.779 13.779 0 0 1-1.44 3.12zm-9.3-.52c-.3-1.09-.69-2.17-.9-3.28-.56-3.02-.76-6.14-1.63-9.07-.7-2.37-2.17-4.51-3.31-6.76 3.36-1.64 7.82 2.15 8.29 5.45.34 2.41.98 4.86.77 7.23-.19 2.19-1.34 4.3-2.07 6.45-.38-.01-.77-.02-1.15-.02zm-84.37 42.88c2.92.45 5.44.84 7.97 1.24 0 2.18.38 4.57-.17 6.72-.25 1-2.24 1.9-3.58 2.19-1.39.29-3.43.24-3.72-1.74-.41-2.74-.35-5.56-.5-8.41zm19.79-.93h6.62a37.9 37.9 0 0 1 .31 6.45 3.285 3.285 0 0 1-2.44 2.05c-1.43.05-3.55-.28-4.19-1.24a6.637 6.637 0 0 1-.3-7.26zm64.59-61.42h8.73c-4.12 3.97-3.26 9.02-3.61 13.76l-.69-.02c-.14-1.49-.23-2.99-.44-4.47a21.182 21.182 0 0 0-.95-4.94c-.6-1.44-1.81-2.63-3.04-4.33zm-70.53 4.1c-2.22 3.39-6.64 3.45-11.07 0h11.07z"/></svg>