<svg xmlns="http://www.w3.org/2000/svg" viewBox="0 0 368 153"><defs><style>.cls-1{fill:#314f95;fill-rule:evenodd}</style></defs><path class="cls-1" d="M368 115.76c-6.776.02-13.552.07-20.327.03a3.555 3.555 0 0 1-3.568-2.68c-1.256-4.62-4.35-7.92-7.8-10.9-7.633-6.58-16.77-8.28-26.428-6.98-4.65.62-8.611 3.52-11.942 6.74-5.121 4.96-9.913 10.27-11.428 17.59-.319 1.54-.362 3.13-.591 4.69-.418 2.85-1.636 4.07-4.5 4.15q-6.018.195-12.042.04a2.841 2.841 0 0 1-1.935-1.41q-5.457-10.44-10.725-20.97c-.748-1.5-1.442-2.19-3.4-2.1-5.721.25-11.462.09-17.356.09v-29.2h8.064q61.473.045 122.947.08c.345 0 .69-.04 1.035-.06v40.89zm0-43.37l-98.176-.03q-15.774 0-31.549.04h-2.789c1.545-2.45 2.794-4.55 4.187-6.55a2.635 2.635 0 0 1 1.682-.62q27.9-4.14 55.81-8.22c9.027-1.31 18.074-2.49 27.1-3.78a5.15 5.15 0 0 0 4.538-3.38c6.494-14.72 13.282-29.32 19.973-43.96.229-.5.476-.99.688-1.5C351.3.01 351.299 0 356.173.01c3.941.02 7.882.06 11.823.1V3c-2.076-.01-4.151-.04-6.226-.01-6.006.09-6.573.88-8.248 5.51-4.807 13.31-9.83 26.54-14.63 39.85a37.06 37.06 0 0 0-2.059 8.77c-.334 3.31 1.946 5.37 5.221 5.37q12.971-.015 25.942-.01v9.91zm0 59.07h-20.767v-10.33H368v10.33zM195.781 76.84v29.02h-2.321c-5.4-.02-10.8-.09-16.2 0a2.74 2.74 0 0 0-1.928 1.35q-5.5 10.53-10.807 21.16a2.922 2.922 0 0 1-3.149 1.95c-3.526-.14-7.06-.05-10.591-.09-3.491-.03-4.677-1.12-5.135-4.59-1.913-14.5-10.473-23.61-23.942-28.27-5.033-1.74-10.469-.85-15.523.71a30.105 30.105 0 0 0-17.487 13.75 10.075 10.075 0 0 0-1.046 2.45c-.607 2.23-1.784 3.29-4.063 3.39-1.728.08-3.459.1-5.188.11-6.363.01-12.726-.03-19.088.01a6.536 6.536 0 0 1-5-2.24c-3-2.91-6.543-5.27-9.825-7.9Q25.743 92.605 7.023 77.54a6.829 6.829 0 0 1-.575-.7h189.329zm-.518-2.63h-7.34q-80.166-.045-160.333-.07c-7.545 0-15.091.04-22.636.05-3.334 0-4.577-1.26-4.577-4.59q0-30.66-.014-61.34A22.285 22.285 0 0 0 .09 4.59c-.357-2.13.222-2.88 2.488-2.88Q20.44 1.695 38.3 1.7c13.362 0 26.723.03 40.084-.03a3.273 3.273 0 0 1 3.633 2.55c4.057 11.94 9.587 23.25 15.032 34.6 2.231 4.65 4.26 9.4 6.3 14.14.748 1.73 2.362 1.8 3.741 2.01 8.073 1.21 16.174 2.22 24.251 3.4q29.259 4.26 58.5 8.64a2.667 2.667 0 0 1 1.7.92c1.232 1.88 2.311 3.87 3.718 6.28zM49.969 64.3H89.22c3.39 0 4.219-.39 5.259-3.46a8.1 8.1 0 0 0 .052-4.23 76.286 76.286 0 0 0-2.688-9.3Q84.396 27.315 76.689 7.4a2.826 2.826 0 0 0-2.177-1.24c-3.456-.1-6.919.04-10.379.05q-25.131.015-50.262 0c-6.428 0-7.541 1.11-7.684 7.64-.013.62-.016 1.24-.024 1.86q-.207 17.025-.409 34.06c-.037 3.37-.13 6.75.017 10.12.138 3.16 1.59 4.4 4.733 4.4q19.731.01 39.461.01zm34.434 58.5v10.52H.49V81.07c.812.55 1.432.92 2 1.35 7.509 5.76 15.047 11.47 22.5 17.29 8.7 6.79 17.31 13.69 25.98 20.51a11.38 11.38 0 0 0 7.255 2.59c8.026-.03 16.053-.01 24.08-.01H84.4zm231.45 28.44a25.525 25.525 0 1 1 .134-51.05c14.55.23 25.521 11.33 25.615 25.69.087 13.83-11.797 25.36-25.753 25.36zm-.09-11.1a14.43 14.43 0 0 0 14.828-14.27 14.676 14.676 0 1 0-14.832 14.27zm-174.489-12.1c-.263 14.26-11.882 25.23-26.452 24.97-13.519-.24-25.09-12.21-24.814-25.67a25.635 25.635 0 1 1 51.262.7zm-25.141 13.92a14.431 14.431 0 0 0 14.211-15.33 14.749 14.749 0 0 0-15.094-13.73c-8.206.38-14.622 7.15-14.229 15.02a14.426 14.426 0 0 0 15.108 14.04zm49.911-11.94c3.044-5.9 6.219-11.54 8.867-17.41 1.448-3.21 3.217-4.45 6.807-4.19 5.087.36 10.221.15 15.332.05 1.659-.03 2.174.56 2.163 2.13-.036 5.01.037 10.03.038 15.04 0 1.6-2.795 4.64-4.332 4.64-9.4.02-18.794-.01-28.191-.03a3.256 3.256 0 0 1-.688-.23zm99.359-1.61c-.793.04-1.457.09-2.12.09q-12.749.015-25.5.02a5.414 5.414 0 0 1-5.352-5.52c.083-4.74.073-9.49.011-14.23-.02-1.56.445-2.15 2.129-2.12 6.079.1 12.161 0 18.241.08a2.863 2.863 0 0 1 2.168.97c3.477 6.56 6.831 13.19 10.207 19.8a4.473 4.473 0 0 1 .213.91zM53.076 37.69c-.285-2.79 1.516-4.62 3.079-6.52.907-1.11 2.108-2 2.905-3.16a10.383 10.383 0 0 1 14.149-2.6 11.047 11.047 0 0 0 4.33 1.14c5.911.79 8.554 6.29 5.388 11.34-2.767 4.41-4.923 4.53-8.454.65a17.824 17.824 0 0 0-3.451-2.51 1.531 1.531 0 0 0-1.179-.21c-3.064 1.29-6.1 2.67-9.148 3.99-1.886.81-3.769 1.66-5.72 2.28-.325.11-1.244-.77-1.451-1.35a14.774 14.774 0 0 1-.452-3.05zm-4.954 19.23c-4.306-1.58-6.5-.03-7.235 4.58h-7.238l-.426-.43c2.428-2.76 4.7-5.68 7.326-8.24a11.419 11.419 0 0 1 9.925-3.28 11.916 11.916 0 0 1 1.563-2.66c.874-.83 1.767-.72 2.575.42 1.305 1.83 2.862 3.49 4.155 5.33.56.79 1.209 2.04.942 2.76-.275.74-1.619 1.09-2.618 1.69.5 1.06 1.226 2.63 2.089 4.48H42.1c-.431-3.07.071-3.76 3-4.19l3.018-.46zm29.127-14.24a96.746 96.746 0 0 1-6.289 8.18c-3.381 3.58-7.936 3.55-11.763.36a11.55 11.55 0 0 1-4.212-6.18c-.281-1.17-.063-1.84 1.117-2.19a25.507 25.507 0 0 0 6.957-3.39 18.368 18.368 0 0 1 6.719-2.31c.891-.17 2.139.78 3.022 1.47 1.483 1.18 2.809 2.55 4.445 4.06zM25.84 61.92H15.622c-1.074-4.63-2.146-9.2-3.192-13.78-.609-2.66-1.324-5.32-1.713-8.01-.332-2.3.63-3.01 2.865-2.64 3.579.6 5.9 2.36 6.884 6.07 1.494 5.62 3.37 11.13 5.07 16.69a16.528 16.528 0 0 1 .3 1.67zm53.489-17.6c2.637 1.27 3.079 2.08 2.291 4.51-1.248 3.85-2.642 7.65-3.861 11.51-.738 2.34-2.441.98-3.746 1.28 1.787-5.84 3.548-11.56 5.312-17.3z"/></svg>