<svg xmlns="http://www.w3.org/2000/svg" viewBox="0 0 123 218.03"><defs><style>.cls-1{fill:#fff;fill-rule:evenodd}</style></defs><path class="cls-1" d="M61.65 86.93c8.38 4.31 16.79 3.92 25.25 1.35.01-.25.01-.51.01-.76a17.045 17.045 0 0 0-2.48.2c-7.07 1.58-14.04 1.71-20.87-1.2-1.37-.59-2.33-.97-2.1-2.88.25-1.99-.2-4.05-.2-6.08a13.609 13.609 0 0 0-1.23-6.24 10.8 10.8 0 0 1 .38-9.69c1.48-2.9 5.91-4.35 8.86-3.08 4.52 1.96 9.2 1.38 13.89.93a12.694 12.694 0 0 1 5.26.16c2.77 1 2.74 4.01 3.14 6.35a38.36 38.36 0 0 1 .02 7.19 7.913 7.913 0 0 0 4.52 6.78c2.56.96 2.87 1.71 1.73 4.13-.3.64-.58 1.29-.73 1.63-1.9.45-3.57.85-5.24 1.24l-.11.64c2.3.14 2.75 1.75 2.92 3.44.89 8.46 1.96 16.91 2.51 25.4.5 7.84.62 15.72.54 23.57a66.72 66.72 0 0 1-3.3 19.73c-.62 1.92-1.57 2.38-3.64 2.33-6.36-.17-12.73-.13-19.08.23-6.23.36-11.86-1.41-17.29-4.12a2.694 2.694 0 0 1-1.14-2.02c-.41-10.39-.6-20.78-1.14-31.16-.29-5.52.81-10.83 1.41-16.24.87-7.86 4.62-14.58 8.11-21.83zm19.86-10.12c-3.12-2.92-6.32-5.92-9.67-9.06a12.694 12.694 0 0 0 9.67 9.06zm-2 101.81c1.54 7.78 1.34 15.43.57 23.13-.34 3.43.13 6.96.36 10.43.22 3.32-.58 4.36-3.83 4.57-3.02.19-6.05.4-9.08.55-.96.04-2.11.25-2.35-1.24a2 2 0 0 1 1.55-2.48c1.37-.43 2.74-.89 4.14-1.21 2.58-.59 3.28-1.63 3.08-4.31a99.308 99.308 0 0 0-6.71-28.45c-1.87 0-3.74.1-5.6-.02-3.49-.21-4.97-1.46-5.42-4.89-.55-4.17-.86-8.36-1.29-12.74a4.744 4.744 0 0 1 1.1.23c5.61 2.83 11.57 3.38 17.74 2.99 5.12-.33 10.26-.38 15.39-.57.86-.04 1.73-.1 2.58-.22 3.05-.41 3.56-.83 4.14-3.91q1.2-6.3 2.19-12.64c1.69-10.73.91-21.5.21-32.24-.51-7.9-1.53-15.78-2.35-23.66-.08-.78-.5-1.54-.54-2.32a9.863 9.863 0 0 1 .34-2.2c.78.21 1.94.17 2.27.68.83 1.27 1.79 2.79 1.79 4.21 0 2.97.16 5.66 2.8 7.56a2.068 2.068 0 0 1 .76 1.04c1.26 4.52 3.25 9 3.56 13.58.91 13.27 1.07 26.59 1.66 39.89.26 5.87.8 11.74 1.27 17.6.36 4.45-2.16 6.99-6.61 6.63-1.92-.15-3.86-.21-5.85-.32.28 3.77.64 7.29.77 10.82.1 2.81-.13 5.64-.13 8.46-.01 5.13-.07 10.27.1 15.41.09 2.71-.81 4.06-3.52 4.27-3.23.26-6.47.52-9.71.72-.97.06-2.11.26-2.36-1.23a2.048 2.048 0 0 1 1.38-2.59c1.35-.48 2.7-.98 3.99-1.45-.51-9.81-.99-19.58-1.54-29.35-.28-5.15-1.1-5.7-6.85-4.73zM89.59 12.96c2.17-.23 4.17-.58 6.18-.6a2.877 2.877 0 0 1 3.26 2.76 11.377 11.377 0 0 0 .1 1.31c.84 4.37.28 5.28-4.51 6.54 1 1.79 1.87 3.52 2.9 5.14 1.45 2.31.85 6.53-1.33 7.67a11.372 11.372 0 0 1-3.07.61 4.892 4.892 0 0 0 .58 1.57c1.62 2.06.9 3.61-.58 5.47-2.52 3.18-4.76 6.59-7.03 9.96-.88 1.3-1.53 2.75-2.39 4.32-5.15-.1-10.64 1.22-15.91-2.16 1.32-2.09 2.44-4.21 3.89-6.06a11.658 11.658 0 0 0 2.43-7.26c0-.97-1.3-1.96-2.2-3.2-.75 3.15-.82 3.18-4.49 2.61-.86-1.89 1.33-4.97-2.23-6.47 1.21-.3 2.42-.61 3.94-1-.41-1.29-.9-2.84-1.49-4.69-.39.57-.61.87-.81 1.2-.79 1.25-1.21 1.85-2.89.48-2.19-1.79-3.69-3.54-2.26-6.16a21.163 21.163 0 0 1 4.46-5.32c1.05-.94 1.76-2.7.56-3.81-1.58-1.46-.69-2.38.51-3.05 2.24-1.26 3.33-3.33 4.39-5.5 1.35-2.73 2.84-5.27 6.49-5.21a4.655 4.655 0 0 0 2.38-.95c2.03-1.32 4.16-1.68 6.06-.15 1.79 1.44 1.48 3.71 1.08 5.67a2.817 2.817 0 0 0 .47 2.48 18.822 18.822 0 0 1 1.51 3.8zm2.77 5.59c-.53-2.31-1.78-4.16-3.04-4.17s-2.52 1.91-2.52 3.79c.01 1.71 1.91 4.13 2.97 3.54 1.1-.61 1.74-2.07 2.59-3.16zm-9.58-5.16c2.69-1.63 3.64-4.44 2.35-6.28-.6-.85-1.93-1.19-2.92-1.77-.51.93-1.55 1.96-1.41 2.77a29.24 29.24 0 0 0 1.98 5.28zm7.38 16.89c.78-.75 1.89-1.37 2.24-2.28.4-1.07-1.57-3.51-2.48-3.54-1.33-.04-2.64 1.44-2.75 3.09-.12 1.9 1.01 2.34 2.99 2.73zM63.41 28.5c.36.51.9 1.27 1.44 2.04a21.2 21.2 0 0 0 2.02-1.88 1.742 1.742 0 0 0 .33-1.42 32.426 32.426 0 0 0-1.58-3.18c-.63.9-1.3 1.77-1.87 2.71a6.464 6.464 0 0 0-.34 1.73zm-18.16 79.55a7.883 7.883 0 0 1 2.64 1.04c2.03 1.89 3.66 4.03 3.03 7.15a28.127 28.127 0 0 0-.35 3.91c-.11 1.82-.43 3.15-2.8 2.09-.55-.25-1.46.37-2.22.53-1.71.34-3.03.78-4.74-1.06-2.61-2.82-2.45-5.19-.92-8.23.34-.69-.27-1.96-.67-2.86a2.557 2.557 0 0 0-1.82.22c-3.08 1.92-4.74 1.55-6.69-1.75-1.32-2.25-2.61-4.54-3.78-6.87A107.456 107.456 0 0 0 7.31 74.13c-1.81-1.82-2.39-3.61-.87-5.97 1.01-1.56.52-3.25-.64-4.65-1.53-1.84-3.14-3.62-4.66-5.46a4.513 4.513 0 0 1-.39-5.49c.94-1.67 2.19-1.88 3.46-.44a33.4 33.4 0 0 1 3 4.24c.73 1.16 1.17 2.51 1.95 3.63 1.64 2.3 2.96 2.57 5.28 1.23 1.83-1.06 3.51-.99 4.81.74a141.745 141.745 0 0 1 8.42 11.62c5.09 8.44 9.85 17.08 14.68 25.67a5.153 5.153 0 0 1 .61 2.92c-.27 2.42-.01 4.58 2.29 5.88zm53.24-31.07l.63 2.8c-2.13-2.06-3.87-3.64-5.46-5.35a2.685 2.685 0 0 1-.76-2.09c1.15-3.55.13-6.91-.76-10.25a6.387 6.387 0 0 1 .71-5.4c1.65-2.56 3.15-5.24 5.02-7.61 2.34-2.97 4.47-2.78 6.75.35l3.29 5.12c2.45 3.4 5.1 6.66 7.49 10.11 2.83 4.07 6.25 7.86 7.33 12.93a8.375 8.375 0 0 1-2.67 8.61 58.824 58.824 0 0 1-5.48 3.88c-1.37.92-2.79 1.77-4.34 2.75a18.115 18.115 0 0 0-1.59-3.04 39.685 39.685 0 0 0-4.28-4.78 1.56 1.56 0 0 1-.12-2.55c1.03-1.23 2.15-2.39 3.37-3.72-4.76-4.94-6.69-10.82-6.71-17.45l-.73.14c0 1.52-.08 3.05.03 4.56a19.633 19.633 0 0 0 .63 3.65c1.11 4.24 1.13 4.24-.63 8.54l-1.72-1.2zm10.6 15.99c-1.35.9-2.59 1.33-3.05 2.18-.29.52.44 1.81.99 2.54 1.21 1.62 2.67 3.06 3.87 4.68a2.333 2.333 0 0 1 .32 2.05 2.134 2.134 0 0 1-1.9.84 10.289 10.289 0 0 1-3.37-2.18c-1.67-1.69-3.14-3.58-4.65-5.42a3.5 3.5 0 0 1-.9-1.69c-.23-3.06-.09-6.02 1.89-8.67 1-1.33 1.93-1.29 2.76-.22 1.52 1.97 2.83 4.1 4.04 5.89zM97.47 46.52c-2.44 4.05-4.81 7.99-7.2 11.94l-4.31-2.15c1.35-1.98 2.68-3.94 4-5.91l2.51-3.82c.78-1.18 1.46-2.57 3-.64.34.44 1.28.39 2 .58zm-46.02 64.47c-.99-1.26-1.92-2.43-2.61-3.3 2.85-5.84 5.59-11.44 8.32-17.05l.23.13c-1.96 6.68-3.92 13.35-5.94 20.22zm19.4-63.6c-1.9 3.16-3.61 5.99-5.31 8.82l-.5-.31c1.6-6.54 2.15-7.39 5.81-8.51zm-6.14 3.59c-1.25 2.57-.94 6.01-4.39 7.67.13-3.54 1.37-6.1 4.39-7.67z"/></svg>