<svg xmlns="http://www.w3.org/2000/svg" viewBox="0 0 81 49"><defs><style>.cls-1{fill:#659a19;fill-rule:evenodd}</style></defs><path class="cls-1" d="M76.947 42.4h-4.609c-.226 0-.223-.281-.223-.424a9.275 9.275 0 0 0-18.548 0 .341.341 0 0 1-.348.424H34.938a.326.326 0 0 1-.351-.424 9.275 9.275 0 0 0-18.548 0c0 .142-.076.424-.59.424h-2.265a4.087 4.087 0 0 1-4.1-4.047v-8.7c0-1.253 1.594-1.224 1.594-1.224h14.16a3.606 3.606 0 0 0 3.626-3.579v-1.07a3.606 3.606 0 0 0-3.626-3.578H10.45s-1.367 0-1.367-.984V17.98a.957.957 0 0 1 1.05-1.032h21.373a3.607 3.607 0 0 0 3.626-3.579V12.3a3.607 3.607 0 0 0-3.626-3.578H10.133a1.043 1.043 0 0 1-1.05-1.071v-3.6c0-2.226 1.846-4.047 5.733-4.047h38.193A3.732 3.732 0 0 1 57 4.047V9.79a.6.6 0 0 0 .631.613h4.686a7.347 7.347 0 0 1 5.915 3.552l3.427 6.847c1.025 1.954 2.518 2.375 5.127 3.044C78.952 24.4 81 24.4 81 30.8v7.6a4.038 4.038 0 0 1-4.053 4zM69.6 23.1a4.813 4.813 0 0 1-.413-.658l-3.049-6.093a6.536 6.536 0 0 0-5.263-3.16h-3.292c-.612 0-.585.364-.585.364v9.484a.538.538 0 0 0 .54.458h11.535c.455-.005.637-.257.527-.395zM33.317 12.3v1.074a1.806 1.806 0 0 1-1.813 1.789H6.487a1.806 1.806 0 0 1-1.813-1.789V12.3a1.806 1.806 0 0 1 1.813-1.789h25.019a1.806 1.806 0 0 1 1.813 1.789zM26.65 23.78v1.074a1.807 1.807 0 0 1-1.813 1.79H1.813A1.807 1.807 0 0 1 0 24.854V23.78a1.806 1.806 0 0 1 1.813-1.789h23.024a1.806 1.806 0 0 1 1.813 1.789zm-1.338 11.172a7.025 7.025 0 1 1-7.116 7.024 7.069 7.069 0 0 1 7.116-7.024zm0 10.078a3.054 3.054 0 1 0-3.093-3.054 3.074 3.074 0 0 0 3.093 3.054zm37.529-10.078a7.025 7.025 0 1 1-7.117 7.024 7.069 7.069 0 0 1 7.117-7.024zm0 10.078a3.054 3.054 0 1 0-3.094-3.054 3.075 3.075 0 0 0 3.094 3.054z"/></svg>