<svg xmlns="http://www.w3.org/2000/svg" viewBox="0 0 23 22"><defs><style>.cls-1{fill:#659a19;fill-rule:evenodd}</style></defs><path class="cls-1" d="M22.579 15.882a1.24 1.24 0 0 1-.452.268 1.315 1.315 0 0 1-.419.07h-7.7a1.29 1.29 0 0 1-1.291-1.287v-2.865a1.289 1.289 0 0 1 1.291-1.286h7.7a1.315 1.315 0 0 1 .419.069A1.292 1.292 0 0 1 23 12.068v2.865a1.279 1.279 0 0 1-.421.949zm-5.873-2.553a.645.645 0 0 0-.646-.643h-.429a.654.654 0 0 0-.4.139.631.631 0 0 0-.248.5v.428a.645.645 0 0 0 .646.643h.429a.645.645 0 0 0 .646-.643v-.428zm4.292-3.44h-6.991a2.245 2.245 0 0 0-.261.015 2.19 2.19 0 0 0-1.932 2.17v2.861a2.193 2.193 0 0 0 2.195 2.188h7.663v3.59A1.29 1.29 0 0 1 20.381 22H1.291A1.29 1.29 0 0 1 0 20.713V6.376a1.343 1.343 0 0 1 .046-.337 1.293 1.293 0 0 1 1.248-.95h19.089a1.285 1.285 0 0 1 1.289 1.287v3.513H21zm-12.681-5.7L14.9 2.4l2.154-.586a1.286 1.286 0 0 1 1.586.9l.4 1.472H8.317zm-4.2 0L12.326.136a1.294 1.294 0 0 1 1.73.581l.486.978-9.169 2.494H4.117z"/></svg>