<svg xmlns="http://www.w3.org/2000/svg" viewBox="0 0 72 72.031"><defs><style>.cls-1{fill:#659a19;fill-rule:evenodd}</style></defs><path class="cls-1" d="M27.61 44.516c6.46 6.424 13.94 12.561 16.87 9.6 4.2-4.24 6.79-7.931 16.12-.48s2.2 12.473-1.87 16.584c-4.7 4.742-22.29.332-39.72-17.008S-2.96 18.276 1.74 13.532c4.07-4.11 9.02-11.282 16.53-1.993s3.84 11.906-.36 16.148c-2.93 2.959 3.24 10.403 9.7 16.829zm9.37-30.65a4.142 4.142 0 0 0-3.31 1.064 3.8 3.8 0 0 0 .01 5.313 4.2 4.2 0 0 0 2.11 1.064 18.14 18.14 0 0 1 14.95 14.98 4.17 4.17 0 0 0 1.06 2.112 3.784 3.784 0 0 0 5.3.014 4.187 4.187 0 0 0 1.06-3.319 25.649 25.649 0 0 0-21.18-21.228zm18.27 2.915c7.07 7.081 10.08 15.116 9.1 21.629a4.277 4.277 0 0 0 1 3.408 3.778 3.778 0 0 0 5.33.011 4.739 4.739 0 0 0 1.11-2.4c.81-5.626-.21-16.948-11.22-27.979S38.26-.603 32.65.208a4.693 4.693 0 0 0-2.39 1.11 3.791 3.791 0 0 0 .01 5.338 4.238 4.238 0 0 0 3.4 1c6.5-.975 14.52 2.044 21.58 9.125z"/></svg>