<svg xmlns="http://www.w3.org/2000/svg" viewBox="0 0 105 147"><defs><style>.cls-1{fill:#659a19;fill-rule:evenodd}</style></defs><path class="cls-1" d="M52.5 0C23.55 0 0 24.276 0 54.116a54.265 54.265 0 0 0 4.59 22.09c13.13 29.606 38.29 60.864 45.69 69.739A2.908 2.908 0 0 0 52.5 147a2.873 2.873 0 0 0 2.21-1.047c7.4-8.873 32.57-40.128 45.7-69.739a54.265 54.265 0 0 0 4.59-22.09C104.99 24.279 81.44 0 52.5 0zm0 82.224c-15.04 0-27.27-12.61-27.27-28.109S37.46 26.003 52.5 26.003s27.27 12.61 27.27 28.112S67.53 82.227 52.5 82.227z"/></svg>