<svg xmlns="http://www.w3.org/2000/svg" viewBox="0 0 161.062 141.938"><defs><style>.cls-1{fill:#659a19;fill-rule:evenodd}</style></defs><path class="cls-1" d="M144.175-.007h-127.3a16.935 16.935 0 0 0-16.881 17v83.976a16.932 16.932 0 0 0 16.881 16.991h96.713l18.581 18.927a16.868 16.868 0 0 0 28.886-11.95V16.988a16.935 16.935 0 0 0-16.88-16.995zM88.131 93.307a10.5 10.5 0 0 1-21 0v-.238a10.5 10.5 0 0 1 21 0v.242zm21.124-51.15c0 15.423-10.621 21.753-23.782 24.418l-.361 2.187a6.778 6.778 0 0 1-6.519 5.956h-.962a6.682 6.682 0 0 1-6.523-5.956l-1.2-8.262c-.6-4.013 1.69-6.8 5.555-7.294 10.5-1.334 15.327-4.621 15.327-10.578v-.23c0-5.463-4.1-8.632-11.107-8.632a22.317 22.317 0 0 0-14 4.863 9.245 9.245 0 0 1-5.43 1.949 8.484 8.484 0 0 1-5.316-15.073c6.4-5.352 14.486-8.761 25.107-8.761 17.381 0 29.209 9.006 29.209 25.169v.244h.007z"/></svg>