<svg xmlns="http://www.w3.org/2000/svg" viewBox="0 0 124 105.063"><defs><style>.cls-1{fill:#305094;fill-rule:evenodd}</style></defs><path class="cls-1" d="M43.038 59.459q-11.05-8.145-11.05-15.734 0-10 11.6-27.272 4.233-6.13 4.232-7.261 0-1.612-3.919-4.357l-1.567-.969Q37.315-.007 35.751-.007q-2.352 0-10.893 8.715T8.164 34.285Q.013 51.149.014 66.156a46.172 46.172 0 0 0 8.307 26.869q8.306 12.023 21.63 12.022a22.976 22.976 0 0 0 17.321-7.1A23.611 23.611 0 0 0 54.088 81q0-13.39-11.05-21.541zm69.829 0q-11.132-8.145-11.129-15.734 0-10 11.755-27.272 4.233-6.13 4.233-7.261 0-1.612-3.919-4.357l-1.567-.969q-5.017-3.873-6.583-3.873-5.49 0-20.612 22.27T69.919 66.156a46.166 46.166 0 0 0 8.308 26.869q8.305 12.023 21.63 12.022a23.042 23.042 0 0 0 17.242-7.1 23.472 23.472 0 0 0 6.9-16.944q-.004-13.393-11.132-21.544z"/></svg>