<svg xmlns="http://www.w3.org/2000/svg" width="199.032" height="169.969" viewBox="0 0 199.032 169.969"><defs><style>.cls-1{fill:#fff;fill-rule:evenodd}</style></defs><path class="cls-1" d="M199.016 84.97a19.815 19.815 0 0 1-19.715 19.872l-112.017-.013 30.285 30.536c8.2 8.276 8.619 21.273.923 29.052-7.7 7.734-20.588 7.325-28.8-.946L6.45 99.68c-8.227-8.269-8.644-21.272-.937-29.037.212-.186.436-.328.636-.517l.724-.893 62.4-62.912c8.1-8.16 20.894-8.48 28.589-.714s7.371 20.674-.712 28.844L66.769 65.089h112.532a19.785 19.785 0 0 1 19.715 19.881z"/></svg>