<svg id="Слой_1" data-name="Слой 1" xmlns="http://www.w3.org/2000/svg" viewBox="0 0 263.32 102.25"><defs><style>.cls-1{fill:#fff;fill-rule:evenodd;}.cls-2{fill:#020202;}</style></defs><title>320</title><path class="cls-1" d="M38.77,6,22.51,26.38,3.16,27.67,5,99.35l47.74,2.06,173.93.77,38.71,2.06V25.6l-55.23.52-131.35.26-36.9.52Z" transform="translate(-2.04 -3.75)"/><path class="cls-2" d="M264.47,24.69l-8.53.22-8.53.26-17.06.54-8.53.27-162.54.32-8.53.32L42.28,27,39,5.21,37.94,3.75l-16.38,23,.93-1.54L3,26.39l-1,.06,0,1,1.17,59L4.52,99.14l0,.49.48,0,13.15.46,13.14.53,13.14.53,13.14.59,167.15.64,13.14.69,25.42,1.35c0,.52,0,1,0,1.57v-1.57l.85,0,.84,0v-.85l.13-9.14.09,11.47c.07-6.09.08-12.18.12-18.28l0-62.16v-.9Zm-1.16,78.13v-8.3l0,8.3Zm0-15.1c0,5,0,10.07,0,15.1L237.93,102l-13.15-.44L57.63,101l-13.14-.54-13.14-.61L18.2,99.28,5.54,98.63,4.89,86.35l-.76-58,18.49-1,1.58-.09-.66-1.45L38.93,6.68,42.19,27.2l8.58,0,8.53-.07L221.85,27l8.53-.11,17.06-.22,8.53-.12,7.64-.14ZM238.57,32.38l-4.48.21-4.48.23c-3,.18-11.44-.12-14.42.09,3,0,11.45.42,14.44.42l4.49,0,4.49-.07,9-.18c2.81-.06,5.61-.14,8.42-.22l.31,9.79,1.08,0-.31-10.34,0-.55-.55,0c-3,.1-6,.19-9,.32ZM8.73,95c-.13-1.66-.27-3.33-.41-5-.16-1.83-.31-3.66-.49-5.49,0,1.84.08,3.67.14,5.51s.1,3.67.17,5.51h.22v.2c2.18-.09,4.36-.17,6.53-.29s4.36-.21,6.53-.34c-2.18,0-4.36-.06-6.54-.07S10.78,95,8.73,95Z" transform="translate(-2.04 -3.75)"/></svg>