<svg id="Слой_1" data-name="Слой 1" xmlns="http://www.w3.org/2000/svg" viewBox="0 0 263.32 102.25"><defs><style>.cls-1{fill:#fff;fill-rule:evenodd}.cls-2{fill:#020202}</style></defs><title>320</title><path class="cls-1" d="M38.77 6L22.51 26.38 3.16 27.67 5 99.35l47.74 2.06 173.93.77 38.71 2.06V25.6l-55.23.52-131.35.26-36.9.52z" transform="translate(-2.04 -3.75)"/><path class="cls-2" d="M264.47 24.69l-8.53.22-8.53.26-17.06.54-8.53.27-162.54.32-8.53.32-8.47.38L39 5.21l-1.06-1.46-16.38 23 .93-1.54L3 26.39l-1 .06v1l1.17 59 1.35 12.69v.49H5l13.15.46 13.14.53 13.14.53 13.14.59 167.15.64 13.14.69 25.42 1.35v1.57-1.57h1.69v-.85l.13-9.14.09 11.47c.07-6.09.08-12.18.12-18.28V24.56zm-1.16 78.13v-8.3 8.3zm0-15.1v15.1l-25.38-.82-13.15-.44L57.63 101l-13.14-.54-13.14-.61-13.15-.57-12.66-.65-.65-12.28-.76-58 18.49-1 1.58-.09-.66-1.45L38.93 6.68l3.26 20.52h8.58l8.53-.07L221.85 27l8.53-.11 17.06-.22 8.53-.12 7.64-.14zm-24.74-55.34l-4.48.21-4.48.23c-3 .18-11.44-.12-14.42.09 3 0 11.45.42 14.44.42h4.49l4.49-.07 9-.18c2.81-.06 5.61-.14 8.42-.22l.31 9.79h1.08l-.31-10.34v-.55h-.55c-3 .1-6 .19-9 .32zM8.73 95c-.13-1.66-.27-3.33-.41-5-.16-1.83-.31-3.66-.49-5.49 0 1.84.08 3.67.14 5.51s.1 3.67.17 5.51h.22v.2c2.18-.09 4.36-.17 6.53-.29s4.36-.21 6.53-.34c-2.18 0-4.36-.06-6.54-.07S10.78 95 8.73 95z" transform="translate(-2.04 -3.75)"/></svg>