<svg id="Слой_1" data-name="Слой 1" xmlns="http://www.w3.org/2000/svg" viewBox="0 0 463.28 79.29"><defs><style>.cls-1{fill:#fff;fill-rule:evenodd}</style></defs><title>768</title><path class="cls-1" d="M35.92 26.58l-12.74 16L8 43.59l1.44 56.24 37.4 1.62 393.27-.82 30.32 1.62V40.54l-43.26.4-359.92 1.63-28.9.43z" transform="translate(-7.15 -25.11)"/><path d="M469.41 40.79l-6.67.17-6.67.21-13.34.42-6.67.21-384.12 1-6.68.2-6.63.27-2.54-17-.86-1.15-12.81 18 .72-1.2-15.22 1h-.78v.77l.92 46.13 1 10v.38h.38l10.28.36 10.28.41 10.28.41 10.28.46 387.73-.21 10.28.54 19.89 1.06v1.22-1.22h1.32v-.67l.1-7.15.07 9c.05-4.77.06-9.53.09-14.3V40.77zm-.91 61.12v-6.49 6.49zm0-11.81v11.81l-19.85-.66-10.28-.35-387.74.32-10.28-.43-10.28-.47-10.28-.47-9.91-.51-.51-9.61-.6-45.36 14.47-.8 1.24-.07-.48-1.13 12-15 2.55 16h6.71l6.68-.05 384.13-.76 6.67-.08 13.35-.17 6.67-.09 6-.11zm-19.34-43.29l-3.51.16-3.51.18c-2.34.14-8.95-.09-11.28.07 2.34 0 9 .33 11.29.33h3.51l3.51-.05 7-.14c2.2 0 4.39-.11 6.59-.17l.24 7.61h.84l-.24-8.09v-.43h-.43c-2.34.08-4.68.15-7 .25zM12.38 96.48c-.1-1.3-.21-2.6-.32-3.91s-.24-2.86-.39-4.29c0 1.44.06 2.87.11 4.31s.08 2.87.14 4.31h.17v.16c1.7-.07 3.41-.14 5.11-.23s3.41-.16 5.11-.27c-1.71 0-3.41 0-5.12-.06s-3.19-.02-4.81-.02z" transform="translate(-7.15 -25.11)"/></svg>