<svg xmlns="http://www.w3.org/2000/svg" viewBox="0 0 467.32 103.82"><defs><style>.cls-1{fill:#fff;fill-rule:evenodd}</style></defs><title>1200</title><path class="cls-1" d="M65.18 4.28L36.33 40.46 2 42.75 5.18 94l84.73 3.66 308.7 1.37 68.7 3.66v-63.6l-98 .92-233.13.46-65.5.92z"/><path d="M467 73.89v-36.6h-1.58l-15.13.4-15.12.47-30.25 1-15.12.49-288.27.56-15.12.56-15 .61-5.8-38.77L63.67 0l-29 40.92 1.64-2.74-34.55 2.17-1.76.11.06 1.75 2.08 29.3L4.4 94.23v.87h.85l23.35.9 23.31.94 23.31.94 23.3 1.05L395 100l23.3 1.23 46.59 2.49 1.49.08v-1.52 1.33l.65.17c.09-10.85-.13-19.03-.03-29.89zm-3.6 26.9V86l.08 14.8zm0-26.92c0 10.19-.08 17.13-.05 26.92l-45-1.5-23.35-.8-296.46-.88-23.31-1L52 95.56l-23.3-1.08-22.5-1.16L5 71.43 3.76 43.87l32.73-1.82 2.81-.16-1.17-2.58L65.42 5.23l5.78 36.56 15.22-.06 15.13-.12 288.28-.12 15.17-.18 30.26-.39 15.13-.21 13.53-.25zM419.49 51l-8 .37-7.95.41c-5.3.31-20.28-.21-25.58.16 5.31 0 20.3.76 25.61.74l8-.09 8-.12 15.91-.33c5-.1 10-.26 14.94-.4l.56 17.45 1.91-.06-.54-18.43v-1h-1c-5.3.18-10.61.35-15.91.57zM11.85 86.81c-.23-3-.49-5.93-.74-8.9-.28-3.26-.55-6.52-.88-9.78 0 3.27.14 6.55.24 9.82s.18 6.54.31 9.81h.39v.36c3.86-.16 7.73-.31 11.59-.52s7.72-.37 11.59-.61c-3.87-.08-7.73-.1-11.6-.13-3.62-.06-7.26-.05-10.9-.05z"/></svg>