<svg xmlns="http://www.w3.org/2000/svg" viewBox="0 0 370 176.031"><defs><style>.cls-1 { fill: #fff; fill-rule: evenodd; }</style></defs><path class="cls-1" d="M642.993 248.982c13.934.021 27.868.065 41.8.059q44.1-.019 88.208-.08h2.873v29.544c-1.421 0-2.854.009-4.287 0-4.736-.033-9.473-.138-14.206-.038a3.018 3.018 0 0 0-2.026 1.533q-5.492 10.557-10.78 21.219a3.113 3.113 0 0 1-3.358 2.054c-3.477-.161-6.966-.06-10.449-.115-3.5-.055-4.863-1.158-5.2-4.642-1.294-13.284-9.469-21.5-20.353-27.676-4.523-2.568-9.543-1.822-14.329-1.237-9.689 1.185-17.113 6.214-22.341 14.434a13.664 13.664 0 0 0-1.352 3.231c-.59 1.873-1.807 3.078-3.74 3.1-6.818.064-13.638 0-20.458-.02v-41.366zm0-75.628c5.22-.032 10.441-.106 15.66-.035a2.476 2.476 0 0 1 1.752 1.281c7.348 16.206 14.724 32.4 21.835 48.712a5.686 5.686 0 0 0 4.971 3.824c11.437 1.605 22.882 3.161 34.311 4.824 15.9 2.314 31.794 4.745 47.7 7.019a5.108 5.108 0 0 1 4.394 2.9c.718 1.464 1.619 2.838 2.64 4.6h-2.913q-63.3-.022-126.595-.043c-1.253 0-2.507.023-3.76.036v-10.025c8.634 0 17.269-.095 25.9.072 2.465.048 4.138-.691 4.837-2.936a10.046 10.046 0 0 0 .435-4.623 51.431 51.431 0 0 0-2.284-8.21c-4.884-13.372-9.857-26.711-14.813-40.056-1.286-3.461-2.633-4.386-6.346-4.418-2.576-.022-5.153 0-7.729 0v-2.924zm0 2.924c2.576 0 5.153-.024 7.729 0 3.713.032 5.06.957 6.346 4.418 4.956 13.345 9.929 26.684 14.813 40.056a51.431 51.431 0 0 1 2.284 8.21 10.046 10.046 0 0 1-.435 4.623c-.7 2.245-2.372 2.984-4.837 2.936-8.631-.167-17.266-.069-25.9-.072v-60.171zm0 119.5h20.9v10.445h-20.9v-10.443zm173.329-15.462v-29.4h190.878c-1.54 1.264-2.68 2.228-3.84 3.162-14.517 11.621-29.217 23.023-43.415 35.019-3.291 2.781-6.294 3.37-10.076 3.305-6.749-.116-13.5-.058-20.252-.131-2.731-.029-3.583-1.014-4.521-3.663-1.453-4.1-4.3-7.3-7.549-10.075a30.833 30.833 0 0 0-24.7-7.216 24.874 24.874 0 0 0-10.324 4.239c-7.315 4.941-12.829 11.5-15.127 20.278a38.147 38.147 0 0 0-.649 4.739c-.416 3.2-1.69 4.361-4.969 4.4-3.762.048-7.526-.02-11.286.083a2.439 2.439 0 0 1-2.54-1.629c-3.583-7.157-7.253-14.271-10.824-21.434a2.6 2.6 0 0 0-2.831-1.745c-5.913.16-11.832.07-17.975.07zm.56-32.065c1.384-2.381 2.469-4.388 3.711-6.293a2.688 2.688 0 0 1 1.716-.931q26.849-4.017 53.712-7.95c9.85-1.437 19.718-2.75 29.563-4.22 1.607-.24 3.113-.569 4.023-2.6 5.419-12.106 11.068-24.11 16.826-36.55a42.518 42.518 0 0 1 3.357 4.125 3.083 3.083 0 0 1-.066 2.27c-3.211 9.326-6.5 18.625-9.71 27.951a49.9 49.9 0 0 0-1.832 6.622 8.389 8.389 0 0 0 .074 4.085c1.034 3.082 1.916 3.53 5.277 3.53 26.263 0 52.526-.031 78.787.041 2.97.008 5.1-.3 5.24-5.073.15-5.347-.27-10.708-.32-16.063-.08-9.747-.02-19.5-.11-29.241-.03-3.12-.13-6.213-2.88-8.586-.8-.694-.73-2.4-1.12-3.848h9.87v2.38q0 32.792-.01 65.584c0 3.665-1.14 4.812-4.85 4.812q-88.192-.018-176.388-.04h-14.87zm196.028 7.08v52.8h-84.445v-10.662h1.965c8.009 0 16.018-.036 24.027.016a11.977 11.977 0 0 0 7.86-2.827c7.3-5.913 14.508-11.943 21.911-17.724 9.1-7.109 18.362-14.015 27.562-21a9.678 9.678 0 0 1 1.12-.601zm-317.623 70.9a25.791 25.791 0 0 1-25.687-25.838c.087-14.687 11.393-25.575 25.729-25.8 14.215-.221 25.894 11.636 25.861 25.844a25.921 25.921 0 0 1-25.903 25.792zm.329-11.222a14.6 14.6 0 0 0 14.565-14.809 14.769 14.769 0 1 0-29.535.421 14.559 14.559 0 0 0 14.97 14.386zm175.569-12.378a25.8 25.8 0 1 1 51.6-.433c.148 13.776-11.538 25.7-25.321 25.829a25.673 25.673 0 0 1-26.279-25.398zm25.115 14.206a14.552 14.552 0 0 0 15.4-14.212c.379-7.963-6.09-14.808-14.343-15.175a14.891 14.891 0 0 0-15.161 13.7 14.562 14.562 0 0 0 14.104 15.687zm44.262-128.837l43.988 26.265.6-.721c-1.563-1.412-3.181-2.769-4.662-4.262-.59-.595-1.34-1.606-1.185-2.217a3.092 3.092 0 0 1 1.927-1.94 55.086 55.086 0 0 1 6-.6c.755-.076 1.494-.371 2.246-.4.876-.028 2.4-.091 2.517.249a8.646 8.646 0 0 1 .083 3.265 2.51 2.51 0 0 1-.75.847c3.012 2.411 5.454 5.219 5.706 9.018a70.455 70.455 0 0 1-.188 12.461c-.6 5.342-.845 5.315-6.175 5.316h-17.694l1.26-10.9c1.165.342 2.113.568 3.023.9 2.859 1.036 5.692 2.15 8.561 3.157a2.713 2.713 0 0 0 3.423-1.193c.659-.977 1.561-1.8 2.178-2.794 1.769-2.863.438-6.113-3.5-7.519 1.245 1.666 2.2 2.936 3.145 4.216a2.011 2.011 0 0 1 .569.975c-.209 3.585-4.734 6.369-7.952 4.845a123.955 123.955 0 0 1-22.13-13.6c-1.837-1.4-4.273-2.016-6.13-3.4-4.938-3.677-9.747-7.531-14.525-11.417a28.621 28.621 0 0 1-3.622-3.894 1.429 1.429 0 0 1-.021-1.3c1.075-1.842 2.235-3.636 3.308-5.357zm-94.21 117.047h-9.37c-6.468 0-12.936.011-19.4-.005-1.842 0-4.744-2.892-4.744-4.731 0-5 .1-10.007.024-15.01-.028-1.845.623-2.361 2.43-2.33 5.979.1 11.961.075 17.942.01a2.743 2.743 0 0 1 2.861 1.8c2.7 5.485 5.53 10.9 8.308 16.349.59 1.162 1.162 2.336 1.949 3.917zm-100.193-2.182c1.637-3.247 3.271-6.513 4.927-9.768 1.8-3.529 3.552-7.081 5.474-10.54a3.009 3.009 0 0 1 2.168-1.329c6.257-.106 12.518-.02 18.776-.091 1.5-.017 1.913.55 1.917 1.943.013 5.277.435 10.583-.028 15.813-.138 1.56-2.623 4.1-4.111 4.159-9.512.364-19.046.161-28.572.136a2.02 2.02 0 0 1-.551-.323zm227.576-126.565c.092-3.391 1.173-6.733 4.946-8.7a8.472 8.472 0 0 1 8.285.647c1.982 1.449 3.891 2.9 6.6 3.183 3.65.382 7.936 5.786 8.016 10.163a81.6 81.6 0 0 1-.76 12.194c-.38 2.959-3.069 4.322-5.34 5.751a2.423 2.423 0 0 1-2.029-1.01c-1.1-2.424-2.706-4.594-2.951-7.473-.145-1.705-1.513-3.308-2.34-4.953-.249-.494-.58-.952-.788-1.462-1.252-3.056-2.647-3.92-5.986-3.771a21.8 21.8 0 0 1-4.351-.032c-2.928-.463-3.349-1.089-3.302-4.537zm-189.376 45.039c-.37-3.273-1.1-6.553-1.039-9.819.135-7.563-.027-15.23 1.194-22.647a42.832 42.832 0 0 1 10.419-21.953c4.278-4.746 8.619-9.434 12.954-14.127a2.7 2.7 0 0 1 1.889-.8 6.55 6.55 0 0 1-.526 1.513c-7.549 11.565-12.718 24.268-17.01 37.267a124.28 124.28 0 0 0-5.54 27.352 17.537 17.537 0 0 1-1.03 3.4zm47.687-52.712c-1.118 1.616-2.228 3.239-3.356 4.849a105.7 105.7 0 0 0-13.417 26.724c-2.368 6.973-3.107 14.5-4.628 21.761a11.992 11.992 0 0 1-1.078 2.4l-1.076-.143c-.462-2.686-1.3-5.37-1.312-8.059-.035-6.3-.328-12.711.705-18.873a28.651 28.651 0 0 1 8.79-16.239c4.307-4.032 8.726-7.946 13.13-11.874a8.679 8.679 0 0 1 1.851-.982l.391.436zm142.887 13.755c2.439 0 4.426.056 6.409-.013 3.012-.1 3.957.524 5.234 3.222.791 1.669 2.335 3.116 2.677 4.834a32.657 32.657 0 0 0 3.182 8.905 2.2 2.2 0 0 1-.567 2.009c-3.1 2.561-10.646 3.036-13.691.985-3.765-2.536-5.376-7.547-4.074-12.455a20.345 20.345 0 0 0 .4-3.064c.162-1.571.305-3.145.43-4.423zm-123.319 3.478c-1.118 1.285-2.232 2.572-3.355 3.853a65.129 65.129 0 0 0-11.414 18.558c-2.077 5.144-2.711 10.866-4.055 16.314a9.4 9.4 0 0 1-1.167 2.131 5.84 5.84 0 0 1-1.409-1.8c-2.113-8.736-3.311-17.429 2.46-25.386a19.8 19.8 0 0 1 3.911-4.268c4.16-3.128 8.479-6.047 12.764-9.006a10.018 10.018 0 0 1 1.98-.82zm104.255 49.468c-2.367 0-4.735-.029-7.1.015-1.075.02-1.863-.14-2.189-1.374-.37-1.4.614-1.78 1.5-2.062 2.843-.909 5.732-1.671 8.587-2.544 3.223-.986 6.46-1.944 9.622-3.1.9-.331 1.535-1.355 2.35-1.986a11.939 11.939 0 0 1 2.25-1.447c1.237-.573 2.135-.174 2.063 1.281-.117 2.357-.334 4.713-.647 7.05a2.336 2.336 0 0 1-1.131 1.338 21.321 21.321 0 0 1-13 2.841c-.768-.068-1.539-.012-2.305-.012zm14.367-60.262c.722 2.822.582 3.016-2.091 3.017-8.62 0-17.241-.044-25.86.042a8.772 8.772 0 0 0-4.586.97c-2.261 1.52-4.3 1.434-6.722.093.356-.974.707-2.146 1.226-3.238a1.672 1.672 0 0 1 1.19-.848c12.292-.045 24.585-.036 36.843-.036zm-44.832 9.55c-.064-3.041 1.4-4.305 3.841-3.926a20.151 20.151 0 0 1 9.624 4.671 1.469 1.469 0 0 1 .281 2.418c-1.2 1.6-2.088 3.434-3.276 5.045a2.134 2.134 0 0 1-1.878.693 27.976 27.976 0 0 1-5.608-4.088c-1.388-1.454-2.188-3.476-2.988-4.813zm12.736 50.5c-3.834.345-3.84.347-4.864-2.713-1.055-3.155-2.135-6.3-3.135-9.474-.736-2.333-.507-2.748 2.2-4.308 1.93 5.492 3.835 10.909 5.799 16.495zm.881-11.994c2.833 3.856 2.03 9.081 6.512 11.6l-.386.587c-1.273 0-2.548.045-3.816-.031a1.191 1.191 0 0 1-.9-.65q-1.008-5.073-1.868-10.174a3.738 3.738 0 0 1 .458-1.332z" transform="translate(-643 -152)"/></svg>