<svg xmlns="http://www.w3.org/2000/svg" viewBox="0 0 229.188 215.687"><defs><style>.cls-1{fill:#fff;fill-rule:evenodd}</style></defs><path class="cls-1" d="M164.76 170.451a3.15 3.15 0 0 0-.661-.155 15.472 15.472 0 0 1-7.347-1.573c-5.363-2.745-11.261-4.492-17.011-6.441-7.455-2.528-15.006-4.777-22.451-7.335a8.076 8.076 0 0 1-3.65-2.837c-5.937-8.3-11.749-16.68-17.563-25.062-1.246-1.8-2.338-3.7-3.622-5.743a8.622 8.622 0 0 0-.7.905c-6.225 11.039-10.518 22.9-14.906 34.721a3.892 3.892 0 0 0 .191 2.756c3.843 7.868 7.716 15.724 11.724 23.511 1.895 3.682 4.1 7.206 6.436 11.279-4.06 2.168-7.916 4.55-12.04 6.315-2.765 1.184-4.7-.359-5.958-3.212-3.159-7.171-6.459-14.28-9.773-21.381a10.414 10.414 0 0 0-2.108-2.943c-7.013-6.9-7.683-15.4-6.165-24.366 1.512-8.928 3.315-17.806 4.883-26.724.455-2.589.415-5.264.88-7.851a2.981 2.981 0 0 1 1.907-1.909c2.589-.546 5.277-.631 7.871-1.164a22.121 22.121 0 0 0 4.594-1.785 2.871 2.871 0 0 0 .73-1.163l-.462-.426a13.2 13.2 0 0 1-2.148 1.092c-2.223.675-4.47 1.718-6.724 1.762-5.178.1-6.143-.688-7.374-5.5-1.475-5.766-2.279-11.7-3.535-17.524-.738-3.422-1.788-6.776-2.7-10.16l-.674.01c-1.738 2.958-3.376 5.98-5.237 8.859-2.853 4.415-7.032 7.436-11.537 9.942-5.681 3.159-11.5 6.068-17.261 9.089l-.774.473c-3.546 1.9-3.614 1.908-5.49-1.575-1.072-1.991-1.961-4.081-3.058-6.057-1.2-2.157-.175-3.126 1.663-4.2 5.3-3.083 10.626-6.157 15.666-9.63a63.409 63.409 0 0 0 9.41-8.152 16.481 16.481 0 0 0 3.266-5.908 171.488 171.488 0 0 0 5.8-17.852c1.212-5.1 3.733-8.223 8.793-9.094l7.772 11.787.616-.374c-.214-.391-.41-.793-.645-1.171-1.945-3.129-3.935-6.233-5.808-9.405a4.18 4.18 0 0 1-.01-1.895 4.577 4.577 0 0 1 1.648.091c2.954 1.381 5.728.938 8.613-.787l7.635 4.763c.946-2.951-.3-6-1.857-9.046 3.07-1.006 6.01-1.921 8.916-2.931a79.708 79.708 0 0 0 21.79-12.09c4.875-3.689 9.5-4.8 15.092-2.3a58.639 58.639 0 0 0 6.8 2.1c-2.928 3.551-5.611 6.906-8.437 10.14a5.123 5.123 0 0 1-2.462 1.046q-15.156 4.1-30.327 8.155l-.88.236c-6.784 1.885-6.638 2.358-7.692 9.18-.99 6.413-3.146 12.647-4.733 18.974a4.638 4.638 0 0 0 .078 2.188c2.663 10.373 5.386 20.732 8.026 31.111a24.656 24.656 0 0 1 .419 3.9c8.459 2.155 14.918-2.534 21.831-5.718-6.7.721-12.642 5.382-20.117 3.441-2.986-10.871-6-21.838-9-32.809a3.242 3.242 0 0 1-.157-1.518c1.387-5.829 2.879-11.634 4.21-17.476.45-1.975.388-4.064.831-6.04a3.353 3.353 0 0 1 1.66-2.224q7.225-2.392 14.584-4.376c.869-.236 1.962.253 2.931.486 2.351.566 4.713 1.1 7.029 1.789 3.846 1.139 7.641 2.45 11.5 3.553a22.5 22.5 0 0 0 4.061.467c2.433.229 4.614.817 5.814 3.283a4.1 4.1 0 0 0 1.55 1.233c.945.61 2.26.938 2.839 1.78 4.412 6.417 8.667 12.94 13.012 19.4 1 1.489.792 2.445-.715 3.515-2.4 1.706-4.624 3.665-7.189 5.732l-14.229-19.332c-4.392 2.345-8.3-.711-12.461-1.46-3.024-.543-5.973-1.5-9.571-2.432.62 3.551.946 6.532 1.682 9.409a110.9 110.9 0 0 0 7.755 21.927c1.019 2.058.3 5.017.154 7.552-.026.454-1.128.844-1.727 1.272-.521.372-1.034.754-1.551 1.132l.339.626c.824-.246 1.655-.474 2.473-.741 1.978-.646 2.977-.08 3.338 1.993a112.827 112.827 0 0 0 8.3 26.105 87.852 87.852 0 0 0 4.728 8.519 3.609 3.609 0 0 0 1.436 1.35c4.283 2.107 8.526 4.319 12.923 6.167 4.738 1.992 9.627 3.629 14.456 5.407 1 .366 2.03.63 3.018 1.013 7.557 2.934 8.639 4.448 8.074 11.753a47.8 47.8 0 0 0-.34 6.805c.522-3.152 1.144-6.291 1.539-9.458.421-3.378 1.076-3.888 4.483-2.967 4.984 1.349 6.118 3.82 5.01 9.079-1.118 5.306-1.634 10.736-2.535 16.092a36.864 36.864 0 0 1-1.645 6.337c-.313.869-1.328 1.488-2.024 2.221a8.469 8.469 0 0 1-1.556-2.239c-1.085-3.848-1.986-7.747-3.015-11.611-.477-1.787-1.1-3.537-1.65-5.3zM67.725 56.778l-.244.218 4.253 4.669.556-.507zm109.223 32.593a11.054 11.054 0 0 0-.4-2.544c-1.621-3.984-3.334-7.932-5.114-12.125l2.213-1.51 6.835 8.289c.954-1.211 1.878-2.473 2.9-3.652.832-.961 1.7-.931 2.746-.084 2.868 2.329 5.828 4.547 8.729 6.837a1.761 1.761 0 0 1 .738 1.047c.056 3.371.034 6.743.034 10.426-.7 0-1.518-.053-2.322.01-2.225.172-3.15 1.776-2.178 3.753 1.3 2.643 2.694 5.243 3.857 7.943a2.4 2.4 0 0 1-.581 2.194c-10.262 7.9-20.422 15.956-30.963 23.48-5.9 4.211-4.418 3.828-9.382-.645-8.748-7.883-14.947-17.615-19.384-28.451a2.826 2.826 0 0 1 .443-2.508c10.278-10.075 22.013-18.265 34.182-25.88.188-.118.4-.2.886-.431l6.061 14zM77.481 25.123c-.794 2.293-1.147 4.476-2.234 6.2a63.272 63.272 0 0 1-6.733 9c-1.862 2.035-4.23 1.726-6.836.47-6.462-3.114-9.087-9.156-11.8-14.966-1.832-3.918.029-7.778 3.956-10.657l.94-.635c1.427-1.1 2.972-3.27 4.246-3.121 5.5.64 11.078 1.776 13.425 7.876a5.141 5.141 0 0 0 3.351 3.335c.747.262 1.114 1.602 1.685 2.498zm-34.769-11.5a50.129 50.129 0 0 1 2.712-5.392 28.916 28.916 0 0 1 3.46-3.893 6.236 6.236 0 0 1 5.436-2.246A6.282 6.282 0 0 0 59.374.629c1.372-1.163 2.746-.485 4.059.609a5.848 5.848 0 0 0 3.108 1.449c4.571.245 7.411 3.141 9.3 6.617 1.581 2.915 2.053 6.43 2.974 9.691.309 1.094.3 2.14-1.155 2.457-1.309.285-2.583.461-3.329-1.048a12.187 12.187 0 0 1-1.031-2.017c-1.419-5.171-5.755-6.32-10.168-7.383a2.654 2.654 0 0 1-.444-.1c-5.632-2.486-8.114 1.986-11.2 5.053-1.172 1.168-2.1 2.578-3.282 3.736-1.786 1.751-3.7 1.15-4.393-1.289a10.585 10.585 0 0 1-.381-1.767c-.094-.9-.1-1.807-.147-2.711zm186.471 105.352l-9.04 15.774c-1.729-2.509-3.209-4.86-4.895-7.055-2.246-2.924-4.725-5.671-6.942-8.615a4.609 4.609 0 0 1-.954-3.152 52.883 52.883 0 0 1 2.006-7.348c.334-1.012 1.061-1.538 2.286-.749 5.807 3.744 11.656 7.418 17.539 11.145zM66.628 215.336a32.894 32.894 0 0 1 2.827-3.573c3.011-2.815 6.076-5.576 9.228-8.231a6.444 6.444 0 0 1 2.668-.788c1.716-.384 3.619-.38 5.124-1.153 2.132-1.093 3.925-2.819 5.954-4.137 2.406-1.563 3.2-1.314 4.545 1.136a54.3 54.3 0 0 1 2.644 4.954 2.452 2.452 0 0 1-1.513 3.64c-2.117.8-4.2 1.7-6.292 2.565-3.683 1.528-7.275 3.345-11.067 4.528a31.176 31.176 0 0 1-14.118 1.059zM152.2 86.021l-1.286-3.982c-.409 5.027-5.283 4.629-8.191 6.81l1.9 3.135-2.464 2c-1.362-2.5-2.67-4.816-3.866-7.191-.148-.295.335-.878.467-1.345a3.835 3.835 0 0 0 .361-1.782 3.082 3.082 0 0 1 1.567-3.8 27.593 27.593 0 0 0 2.306-1.838c2.532-2.019 3.249-2.025 5.9-.063 2.2-1.44 3.5-1.205 4.834.87 2.558 4.003 2.435 4.732-1.528 7.186zM10.735 97.097c1.413 3.275 2.818 6.419 4.122 9.6.655 1.6-1.457 3.434-3.467 2.669s-3.085-.144-4.12 1.364a4.975 4.975 0 0 1-.965.953c-1.2.991-2.071 2.948-4.1 1.813-1.747-.974-2.557-4.292-2.092-6.187.954-3.9 3.471-6.344 6.886-8.118 1.267-.657 2.501-1.396 3.736-2.094zm65.647-53.026L69.9 40.787c1.678-1.182 2.827-2.4 4.223-2.837 1-.307 2.477 3.528 2.259 6.121zm-8.657 12.707l4.565 4.38-.556.507-4.253-4.669z"/></svg>