<svg xmlns="http://www.w3.org/2000/svg" viewBox="0 0 235.88 220.156"><defs><style>.cls-1 { fill: #fff; fill-rule: evenodd; }</style></defs><path class="cls-1" d="M1373.35 252.614q26.46.011 52.91.021h180.46c.83 0 1.66-.014 2.48-.021v7.829c-.82.038-1.64.112-2.47.112q-115.455.007-230.91 0c-.83 0-1.65-.073-2.47-.112v-7.829zm43.03-120.727c4.37 1.046 8.53 2.507 12.08 5.418a24.162 24.162 0 0 1 7.5 26.768 24.338 24.338 0 0 1-47.12-6.013c-1.21-12.26 7.48-23.468 19.98-25.8a5.314 5.314 0 0 0 .94-.37h6.62zm-2.54 17.475h-.33c0-2.331.06-4.663-.04-6.989a3.65 3.65 0 0 0-.93-1.385 5.1 5.1 0 0 0-1.15 1.266 5.446 5.446 0 0 0-.33 2.016c-.04 2.607.05 5.219-.08 7.822a11.648 11.648 0 0 1-.81 3.467 3.7 3.7 0 0 0 .71 4.349 16.436 16.436 0 0 1 2.15 2.4l6.3 9.907a4.933 4.933 0 0 0 1.52 1.031 8.142 8.142 0 0 0 .62-2.179 3.824 3.824 0 0 0-.84-1.62c-1.98-3.213-4-6.406-5.96-9.633a4.522 4.522 0 0 1-.79-2.055c-.09-2.798-.04-5.598-.04-8.397zm195.36 119.738c-.68.034-1.37.1-2.05.1q-115.665.006-231.33 0c-.83 0-1.65-.063-2.47-.1v-6.6h235.85v6.6zm-180.71-24.41h-2.34c-12.21.073-24.41.126-36.61.249-1.53.016-2.27-.281-2.68-1.959-2.75-11.165-5.66-22.294-8.55-33.563h42.08l8.1 35.273zm-22.58-17.364c.04-.313.07-.626.1-.939-.78-.689-1.46-1.754-2.35-1.981a2.015 2.015 0 0 0-2.51 2.039 1.893 1.893 0 0 0 2.05 2.257c.94-.09 1.81-.892 2.71-1.376zm68.4-7.653c1.04 2 2.07 4.008 3.11 6.012l.78-.44c-.54-.85-1.02-1.747-1.63-2.54a3.6 3.6 0 0 1-.7-3.813 18.027 18.027 0 0 0 .68-3.214c.31-1.689.68-3.3 3.57-2.784.49 2.394.87 5.22 1.67 7.92 1.51 5.085-1.52 8.685-3.74 12.606a4.077 4.077 0 0 0-.48 2.085c.24 4.93.55 9.857.84 14.971h-13.73q-.345-10.959-.68-21.969l-1.02.006v22.338c-3.27 0-6.13.126-8.97-.1-.6-.048-1.47-1.351-1.56-2.147-.45-4.153-.37-4.156-4.62-4.173-3.31-.014-6.62 0-9.93-.106a4.205 4.205 0 0 1-1.56-.868c.49-.425.95-1.17 1.48-1.228 6.07-.666 12.15-1.214 18.23-1.85a2.651 2.651 0 0 0 .98-.864c-1.75-1.461-.95-3.521-.82-5.144.57-7.024 1.47-14.022 2.33-21.02a2.481 2.481 0 0 1 1.1-1.306c1.84-1.319 3.75-2.546 5.59-3.863 1.35-.963 2.18-.648 2.92.786 1.78 3.4 3.65 6.753 5.5 10.111a3.065 3.065 0 0 0 .73.664zm32.47 31.011h-21.55l-.1-.708c5.41-4.074 11.35-5.983 18.22-3.861.58-1.9.58-1.9-5.76-2.554-.27-5.919-.54-11.877-.81-17.835l-.7-.069a14.445 14.445 0 0 0-.29 2.339c.16 4.595.3 9.194.63 13.779.12 1.672-.38 2.311-2.02 2.535-4.21.574-7.89 2.128-10.71 5.566-.65.8-2.4.716-3.96 1.122-.31-4.5-.6-8.514-.85-12.53a11.013 11.013 0 0 1 1.14-6.079 175.876 175.876 0 0 0 7.46-18.688c.58-1.609.34-3.525.41-5.3.11-2.407 1.12-3.138 3.23-2.187 2.76 1.244 5.55 2.445 8.21 3.875a4.42 4.42 0 0 1 1.84 2.4c3.11 9.76 3.42 19.923 4.27 30.013.22 2.638.85 5.246 1.34 8.182zm-43.02-64.423c-.68-4.353 3.34-4.971 5.58-6.95a7.788 7.788 0 0 1 1.48-.713c1.28-.678 2.94-2.269 3.74-1.915 3.58 1.585 8.06 2.051 9.81 6.425.59 1.457.96 3.011 1.66 4.4a23.075 23.075 0 0 0 2 2.427 3.548 3.548 0 0 1 .94 2.093 9.884 9.884 0 0 1-1.33 3.838c-2.77 4.2-5.85 8.183-10.9 9.873a3.982 3.982 0 0 1-2.92-.275c-2.81-1.642-5.5-3.561-6.63-6.791-1.23-3.487-2.24-7.048-3.3-10.591a8.444 8.444 0 0 1-.13-1.821zm27.93-.334c0 .254-.01.734 0 1.214.03 1.075.04 2.117-1.46 2.2-1.41.074-2.63-.092-3.02-1.765-.29-1.265-.6-2.532-.99-3.769-.61-1.915-1.37-3.631-3.52-4.5a78.272 78.272 0 0 1-7.55-3.681c-1.41-.755-2.32-.044-3.33.7-2.78 2.05-5.54 4.139-8.39 6.108-2.13 1.477-3.89.509-4.02-2.1-.28-5.831 4.28-12.065 9.87-13.233 1.15-.239 2.44.326 3.66.324a9.143 9.143 0 0 0 3.53-.456c1.79-.779 2.89-.3 4.12 1.08a14.054 14.054 0 0 0 3.26 2.128c1.02.625 2.3 1.012 3.06 1.862 4.16 4.661 4.55 5.945 4.78 13.888zm90.54-4.565c-.19 2.177-.36 4.2-.55 6.516h-2.31c-8.61 0-17.22-.139-25.82.043-4.33.092-7.75-2.148-11.44-3.721-.48-.206-.39-1.732-.61-2.838h40.73zm-195.77 69.45v-5.075h41.07v5.075h-41.07zm158.22-34.364c.27-1.075.61-2.139.78-3.23a1.507 1.507 0 0 1 1.79-1.469c7.98.04 15.99-.321 23.94.173 4.1.254 8.09 2 12.14 3.073l.23.664c-.68.445-1.36 1.276-2.04 1.279-15.13.074-30.27.056-45.6.056 3.45-.57 1.29-3.286 2.25-5.056h6.78c-.27 1.526-.54 2.959-.8 4.392l.53.118zm37.12-8.249c-8.21-.654-16.32 1.134-24.14-1.922-2.75-1.074-5.67-1.732-8.46-2.7a4.28 4.28 0 0 1-1.26-1.456 4.4 4.4 0 0 1 1.68-1.009c5.93-.153 11.89-.635 17.77-.147 4.61.381 9.12 1.976 13.65 3.11a1.689 1.689 0 0 1 .73 1.227 22.2 22.2 0 0 1 .03 2.898zm-6.65 11.905c.54 3.064.57 3.267-2.09 3.651a61.1 61.1 0 0 1-9.64.718c-10.28-.158-20.55-.513-31.03-.8l-.17-3.572h42.93zm.14 11.92v3.823h-44.29a2.129 2.129 0 0 1 .5-.516c4.63-1.245 9.25-2.49 13.88-3.7a13.413 13.413 0 0 1 3.24-.581c8.32-.048 16.63-.027 24.97.167l-34.11 3.012.02.262zm-39.71-1.106h6.41l.05.531c-3.47.865-6.93 1.73-10.05 2.51a61.144 61.144 0 0 1-1.18-6.47 2.519 2.519 0 0 1 1.68-1.665 18.357 18.357 0 0 1 3.9-.092h26.43l.11.555c-2.22.556-4.43 1.134-6.66 1.661a62.069 62.069 0 0 1-7.04 1.532c-2.31.268-4.68.044-7.02.1-2.25.055-4.55-.258-6.75.2zm-84.32 19.93h-21.94v-5.094h21.94v5.094zm77.86-.791v-2.192h46.15c.04.675.08 1.373.12 2.192h-46.27zm46.15-5.561v1.963c-.68.044-1.28.117-1.88.117q-21.09 0-42.2-.014a3.763 3.763 0 0 1-1.43-.065 1.351 1.351 0 0 1-.69-1 1.44 1.44 0 0 1 .65-1.056 2.615 2.615 0 0 1 1.22-.076q21.3.007 42.61.024c.54-.003 1.07.064 1.72.111zm-33.08-64.464c.1-1.261.46-2.025 1.85-2.023q19.815.023 39.63 0a6.375 6.375 0 0 1 .98.354 21.213 21.213 0 0 1-1.8 1.763 1.944 1.944 0 0 1-1.01.05q-18.99-.007-37.98-.023c-.53-.003-1.07-.076-1.67-.121zm18.06 16.538l11.94.52a1.006 1.006 0 0 1 .64-.426c2.88-.065 5.77-.053 8.66-.064a.407.407 0 0 1 .2.013c2.12 1.348.69 3.4.96 5.112a1.2 1.2 0 0 1-1.63 1.453q-10.455-2.913-20.91-5.831l.14-.777zm-5.45-7.8h15.27c3.58 0 7.17.055 10.75-.045 1.5-.042 2.28.563 2.78 2.138-4.66.734-8.97 2.641-13.85 1.381-4.91-1.268-9.96-1.982-14.95-2.939v-.535zm-24.76 50.322a41.1 41.1 0 0 1 5.34-.729q19.23-.168 38.46-.15a4.056 4.056 0 0 1 1.53.8 4.286 4.286 0 0 1-1.57.76q-20.25.033-40.51-.029h-3.18l-.07-.652zm45.32 2.894a21.861 21.861 0 0 1-2.23.22c-9.99.013-20.01-.343-29.98.181-3.85.2-7.74.8-11.64.836-.68.007-1.36 0-2.09 0-.43-1.437-.21-2.222 1.39-2.221q21.72.019 43.43.02a4.987 4.987 0 0 1 1.08.239l.04.725zm-25-52.794l13.98 5.1-.17.772a26.747 26.747 0 0 1-14.36-.557c.19-1.87.37-3.6.55-5.335v.018zm-12.38 18.823v-6.841c2.84.875 5.52 1.6 8.09 2.6.35.137.4 1.677.18 2.452a2.561 2.561 0 0 1-1.49 1.7c-2.16.207-4.36.089-6.78.089zm-115.43 1.29q4.2 17.538 8.39 35.077l-.49.389a3.254 3.254 0 0 1-1.13-1.1q-3.84-16.836-7.56-33.7a1.546 1.546 0 0 1 .14-.563zm59.33.965c1.57.69 2.86 2.616 4.98.349a34.231 34.231 0 0 1-3.74 12.944c-.77-3.664-1.32-6.958-2.2-10.158-.39-1.381-.46-2.312.96-3.135zm93.51 8.536h-43.84l-.01-.519h43.79zm-10.14-18.806h-16.53a17.538 17.538 0 0 1 16.53 0zm-90.87 19.746q-1.215-2.588-2.42-5.175c-1.3-2.826-1.3-2.827 1.39-4.639.84.749 1.71 1.485 2.53 2.28a1.457 1.457 0 0 1 .49.988c-.41 2.069-.88 4.125-1.38 6.174a1.471 1.471 0 0 1-.68.3l.07.068zm74.06-22.47c-.38.481-.69 1.293-1.16 1.392-2.98.638-6 1.12-8.99 1.649-.67-3.147-.3-3.635 2.25-3.645 2.53-.009 5.06 0 7.58 0l.32.6zm6.83 32.131c6.79-2.535 14.81-3.958 19.42-3.349-6.57 1.904-12.47 4.493-19.42 3.342zm-8.64-21.5c.33-1.388.58-2.428.9-3.786l11.03 3.4-.07.384h-11.86zm-66.47-1.806c2.48-2.284 2.8-2.4 6.01.428 1.86 1.632-.53 2.9-.85 4.652-2.3-1.387-4.24-2.712-5.16-5.089zm69.56-15.454c-.26 1.269-.47 2.3-.75 3.648-3.27-.894-6.35-1.741-9.44-2.589l.08-.74a49.032 49.032 0 0 1 10.11-.328zm16.6 19.5h-20.11c1.25-1.639 16.59-1.588 20.11-.014zm-85.61-.887c-2.53 3.435-4.03 3.485-6.28.21 2.5-2.778 4.36-2.84 6.28-.224zm87.61.09c5.42-.83 13.04-.516 14.57.81-5.25.24-9.94.678-14.57-.824zm-20.19-13.727h-8.89c.08-.943.15-1.779.24-2.905 3.08.831 5.92 1.6 8.76 2.368l-.11.523zm22.63-2.361c-4.67 2.721-8-.171-11.6-1.537l.11-.6zm10.78 2.39h-12.92c4.33-2.578 8.63-1.243 12.92-.014zm-110.99 14.894a3.765 3.765 0 0 1-.42-5.254l4.41 2.362c-1.28.914-2.57 1.851-3.99 2.878zm-37.2 33.849c-1.4.155-1.86-.681-1.8-1.852.07-1.293.17-2.907 1.97-2.659a3.019 3.019 0 0 1 2.01 2.033 1.947 1.947 0 0 1-2.18 2.464zm133.39-15.273l8.55-2.334v2.761h-8.4zm-25.75-44.354c2.16.894 3.93 1.625 5.69 2.356l-.02.377h-6.34c.17-.716.38-1.576.67-2.747zm41.68 9.862c-1.86-.36-3.57-.694-5.28-1.027l-.08-.487c1.99-.45 3.97-.9 6.38-1.447-.4 1.154-.69 1.985-1.02 2.947zm-37.13 15.332a9.694 9.694 0 0 1-1.73.363q-2.475.071-4.95-.016a1.65 1.65 0 0 1-.88-.592.954.954 0 0 1 .36-.6c2.38-.038 4.76-.028 7.15-.028l.05.859zm31.56 1.85h5.85l.86 2.531c-2.48-.766-4.59-1.419-6.71-2.072v-.471zm-26.74-22.624c-2.43.186-4.85.415-7.27.535a7.386 7.386 0 0 1-2.98-.5q5.115 0 10.24-.011a.045.045 0 0 0 .01-.038zm4.19 8.026l-5.57 1.187c.38-1.912 1.92-2.245 5.57-1.201zm-11.98 4.005h4.55c-.19 1.881-1.45 1.893-4.55-.014zm36.3 70.83v72.376h-180.62v-66.66300000000001c0-5.194.55-5.713 5.96-5.713h174.66zm-92.96 65.943v-.092q39.72 0 79.43-.017a13.885 13.885 0 0 0 3.04-.4c1.21-.279 1.38-1.109 1.03-2.22a9.832 9.832 0 0 1-.65-2.886q-.06-22.656-.02-45.312c0-4.974.44-4.768-4.83-4.764q-77.88.05-155.75.058c-3.33 0-3.38.078-3.4 3.324q-.165 23.685-.34 47.371a8.258 8.258 0 0 1-.42 2.122c-.21.728-.52 1.427-.79 2.139a8.6 8.6 0 0 0 2.24.632q40.23.053 80.46.031zm92.92 9.6c.44 4.085.22 4.394-3.97 4.406-13.31.037-26.61 0-39.92.007q-26.88 0-53.76.014c-23.5.007-47.01.052-70.52-.014-4.03-.012-8.07-.493-12.26-.768v-3.645h180.43zm-172.92-120.266c-.9.484-1.77 1.286-2.71 1.376a1.893 1.893 0 0 1-2.05-2.257 2.015 2.015 0 0 1 2.51-2.039c.89.227 1.57 1.292 2.35 1.981-.03.313-.06.626-.1.939zm80 110.652q-40.23 0-80.46-.028a8.6 8.6 0 0 1-2.24-.632c.27-.712.58-1.411.79-2.139a8.258 8.258 0 0 0 .42-2.122q.195-23.685.34-47.371c.02-3.246.07-3.322 3.4-3.324l155.75-.058c5.27 0 4.83-.21 4.83 4.764q-.015 22.656.02 45.312a9.832 9.832 0 0 0 .65 2.886c.35 1.111.18 1.941-1.03 2.22a13.885 13.885 0 0 1-3.04.4q-39.72.032-79.43.017v.076zm80.85-52.733h-160.1v49.744h160.1v-49.744zm0 0v49.744h-160.1v-49.744h160.1z" transform="translate(-1373.34 -131.875)"/></svg>