<svg xmlns="http://www.w3.org/2000/svg" viewBox="0 0 128.031 220"><defs><style>.cls-1{fill:#f39400;fill-rule:evenodd}</style></defs><path class="cls-1" d="M59.015 37.204l8.818.927.574 4.019c.481-1.473 1.917-1.539 3.577-1.04a4.455 4.455 0 0 0 1.526.347c3.627-.282 4.6 1.967 5.079 5 2.47 15.444 5.378 30.828 7.408 46.329 1.247 9.518 1.111 19.214 1.75 28.819.423 6.371 1.059 12.731 1.719 19.082.339 3.259.345 3.5-2.758 4.557-15.392 5.226-30.782 4.956-46.188 0-1.355-.436-1.511-1.217-1.433-2.354.629-9.159 1.159-18.326 1.9-27.477.915-11.323 2-22.632 3.016-33.946 1.062-11.84 2.142-23.679 3.168-35.522a2.561 2.561 0 0 1 2.151-2.675c2.61-.658 5.133-1.68 7.757-2.253a2 2 0 0 0 1.821-2.086c.053-.585.08-1.17.115-1.727zm20.713 8.01a46.028 46.028 0 0 1 1.906 4.643c2.728 9.3 5.362 18.63 8.08 27.935a8.24 8.24 0 0 0 1.45 3c4.669 5.5 9.421 10.924 14.153 16.368a2.032 2.032 0 0 0 .828.738c4.4.931 6.828 4.538 9.22 7.649 1.941 2.523 4.812 4.63 5.416 8.156a2.165 2.165 0 0 0 1.439 1.232c1.908.475 3.352 1.437 3.769 3.412a95.128 95.128 0 0 1 1.712 9.514c.326 3.059.2 6.166.294 9.252a4.777 4.777 0 0 1-2.31 4.557c-4.811 3.063-9.513 6.706-15.595 6.011a119.32 119.32 0 0 1-14.026-2.912 2.671 2.671 0 0 1-1.541-1.942c-.392-5.773-.685-11.556-.82-17.34a3.7 3.7 0 0 1 1.455-2.656c1.547-1.053 1.5-2.311 1.391-3.9-.147-2.161.047-4.345.1-6.52a1.06 1.06 0 0 1 .112-.646c2.5-1.142 1.8-4.126 3.408-5.849a5.367 5.367 0 0 0-.7-7.926 39.783 39.783 0 0 0-4.134-2.715c-1.214-.746-2.541-1.32-3.7-2.135-2.876-2.014-4.958-4.308-5.532-8.221-1.94-13.228-4.326-26.389-6.541-39.576zM115.1 145.901l.673-.151c-.069-.948-.2-1.9-.2-2.844.02-4.82.094-9.64.1-14.46a4.108 4.108 0 0 0-.454-2.124c-2.4-3.72-.823-8.112 3.409-9.308l2.329-.667-.325-.872-6.527 2.8a18.9 18.9 0 0 0-.967-2.27 3.311 3.311 0 0 0-1.366-1.591c-3.448-.975-6.924-1.879-10.432-2.6a10.805 10.805 0 0 0-3.208.194v8.165a15.314 15.314 0 0 0 .407-4.276c0-2.015 1.032-3 2.984-2.637a92.524 92.524 0 0 1 7.877 1.779c3.272.9 3.447 1.336 3.54 4.728.07 2.541-.851 5.3 1.513 7.436a2.722 2.722 0 0 1 .3 1.739c-.007 4.863-.066 9.727-.056 14.59a14.04 14.04 0 0 0 .403 2.369zm-18.96-12.844l1.008.389c.226-.619.784-1.349.621-1.837-.757-2.279.491-2.421 2.151-2.26 3.226.314 6.451.63 9.642.942-2.474-2.5-10.766-3.677-13.9-1.8l1.331 2.09-.851 2.476zm12.806-23.093c.944-1.7-.468-5.166-2.568-6.527-1.3-.841-2.52-.726-3.644 1.026 3.51.244 5.732 1.881 6.214 5.501zm-7.45 6.427l9.161.775.033-.477-11.108-1.4v3.318l.523.146zm3.29 6.846a7.637 7.637 0 0 0-7.326-.633zm-87.662-4.486l-2.041-2.25-.624.438 2.9 4.781 1.181-.429c-.4-2.222-.8-4.444-1.2-6.65 4.062-.924 5.913.3 5.975 4.176.125 7.822.108 15.648 0 23.471a3.573 3.573 0 0 1-3.031 3.935c-3.7.967-7.056 1.216-10.715-.162-2.18-.822-4.706-.819-7.09-.969-1.65-.1-2.236-.788-2.232-2.38 0-1.8-.2-3.6-.256-5.4a3.341 3.341 0 0 1 .285-1.712c2.834-4.776 3.092-10.125 3.63-15.446a55.771 55.771 0 0 1 1.544-6.741c2.326 2.322 1.958 6.276 5.894 6.09-.533-.475-1.052-.968-1.6-1.422-1.844-1.521-1.747-3.168-1.32-5.513.9-4.966 4.768-7.692 7.481-11.207 5.642-7.308 11.785-14.226 17.59-21.411a14.31 14.31 0 0 0 1.911-4.462c3.188-9.469 6.328-18.955 9.5-28.43a19.266 19.266 0 0 1 .784-1.76l.543.118c-.275 2.223-.623 4.439-.813 6.669-.812 9.522-1.73 19.04-2.289 28.578-.246 4.186-2.453 6.974-5.266 9.488-4.477 4-9.083 7.857-13.635 11.774-1.479 1.273-2.893 2.634-4.45 3.8-5.236 3.93-4.5 6.405-3.273 11.418.102.4.293.775.619 1.608zm5.154 1.723l-.643.046c-1.169 7.32-3.036 14.564-2.191 22.1 2.934.365 2.947.365 2.89-2.479-.036-1.8-.213-3.609-.163-5.408.107-3.789.357-7.574.47-11.362a18.376 18.376 0 0 0-.361-2.897zM7.585 131.221l-.309.4L11 134.907l2.96-1.291c-.684-.374-1.652-1.111-1.816-.961-1.114 1.017-1.679-.053-2.438-.448-.693-.359-1.414-.659-2.121-.986zm6.87 1.271a5.371 5.371 0 0 0-5.288-3.709zm65.06 26.345c-.434 10.886-.742 21.779-1.352 32.656-.332 5.925-1.231 11.817-1.766 17.734-.282 3.114.691 4.083 3.85 4.585a14.684 14.684 0 0 1 4.306 1.177 3.188 3.188 0 0 1 1.332 2.381c.02.425-1.3 1.3-2.014 1.306-3.814.037-7.63-.158-11.447-.226-1.823-.033-2.551-1.187-2.7-2.724-.156-1.558.014-3.145-.068-4.714-.225-4.344-.592-8.682-.742-13.028-.163-4.714-.11-9.436-.22-14.153-.051-2.145-.254-4.287-.411-6.429-.218-2.994-.523-5.984-.673-8.981q-.356-7.09-.544-14.19c-.088-3.194.019-3.239 3.055-3.575 2.533-.281 5.069-.553 7.591-.917 1.71-.247 2.352.55 2.358 2.117.009 2.332 0 4.664 0 7zm-31.048-9.356l12.579 1.71c0 3.544.167 7.219-.039 10.874-.33 5.843-.93 11.67-1.369 17.507-.157 2.1-.121 4.209-.268 6.308-.535 7.649-1.06 15.3-1.689 22.942-.4 4.836.114 5.547 4.943 6.362a10.186 10.186 0 0 1 3.608 1.165 2.974 2.974 0 0 1 1.131 2.3 2.307 2.307 0 0 1-1.769 1.361 201.01 201.01 0 0 1-12.349-.3c-2.2-.122-2.585-2.048-2.478-3.678a106.005 106.005 0 0 0-1.137-20.669 43.526 43.526 0 0 1 .279-11.006c1.134-8.842.124-17.578-.753-26.34-.277-2.773-.456-5.56-.689-8.536zM57.5 38.766c-3.41 1.225-6.214 2.261-9.043 3.225a8.06 8.06 0 0 1-1.887.179 6.158 6.158 0 0 1-.123-2.329c.748-2.037 1.84-3.949 2.538-6a5.5 5.5 0 0 0 .1-3.33c-2.467-7.094-3.025-13.9 2.255-20.111a3.7 3.7 0 0 0 .92-2.009c.124-2.408 1.625-3.791 3.405-4.993A43.8 43.8 0 0 1 60.23.539a4.329 4.329 0 0 1 2.807-.457c3.609.969 7.231 1.927 9.444 5.493.71 1.143 2.143 1.813 3.155 2.794.65.629 1.752 1.811 1.584 2.084-.621 1.009-1.643 2.4-2.592 2.461-3.385.227-6.881.527-9.862-1.875-1.237-1-2.57-1.11-3.543.6-.7 1.238-1.544 2.4-2.344 3.583-1.576 2.328-3.569 3.869-5.977 3.459.385 1.9.921 3.911 1.165 5.955a35.242 35.242 0 0 1-.027 4.73c-.028 1.617-.283 3.034 1.422 4.4 1.18.942 1.346 3.152 2.038 5zm18.854-17.735c-.189 5.554-.808 10.83-6.392 13.937-7.021 3.907-13.682 1.2-14.6-7.578-.21-2.015-.4-4.037-.461-6.06a2.932 2.932 0 0 1 .66-1.887c1.53-1.7 3.39-3.135 4.722-4.965 1.217-1.673 2.315-2.28 4.3-1.456 3.163 1.315 6.306 2.865 9.952 2.075a1.917 1.917 0 0 1 1.2 1.248c.332 1.53.431 3.113.619 4.686zm23.388 126.9c4.476-.532 2.977 3.532 5.013 5.638l1.955-4.864 3.014.435c-.049 3.339-1.752 5.775-3.668 8.067-.883 1.057-1.862.608-2.688-.267-2.368-2.515-3.163-5.633-3.626-9.009zm18.243-.811l1.871 4.506c3.022-2.166 1.464-7.17 5.794-8.58-.119 4.349-1.076 8.257-3.588 11.632a1.819 1.819 0 0 1-3.31-.271 27.222 27.222 0 0 1-2.037-5.192c-.122-.413.63-1.084 1.27-2.095z"/></svg>