<svg xmlns="http://www.w3.org/2000/svg" viewBox="0 0 73.41 213.469"><defs><style>.cls-1 { fill: #fff;fill-rule: evenodd; }</style></defs><path class="cls-1" d="M1729.28 340.576l-10.82.553c-2.07-23.019-4.08-45.513-6.11-68.145h-4.2c-.32 5.87-.63 11.64-.97 17.407-.77 12.866.48 25.659 1.39 38.462.21 2.959.69 5.9 1.06 8.845.25 1.954-.3 3.085-2.56 3.1-2.88.023-5.76.382-8.65.4a2.2 2.2 0 0 1-1.47-1.5c-1.76-14.681-3.5-29.365-5.1-44.064-.94-8.639-1.6-17.308-2.46-25.957-.18-1.776-.72-3.513-1.03-5.279-.45-2.528.45-3.483 2.9-3.556 5.44-.161 10.87-.588 16.31-.615 3.81-.019 7.62.468 11.43.68a31.8 31.8 0 0 0 4.21 0c4.09-.321 5.06.957 5.7 5.026 1.7 10.675-.41 21.252-.31 31.87.09 9.15.49 18.3.67 27.447.09 4.842.01 9.692.01 15.326zm-21.78-82.229c-6.23 1.173-12.27 1.627-18.26-.186a2.766 2.766 0 0 1-1.66-1.758 55.783 55.783 0 0 1-.83-8.144c-.09-10.251-.03-20.5-.03-31.058a3.1 3.1 0 0 0-.84.525c-1.97 4.412-4.03 8.79-5.85 13.267-.96 2.357-2.58 3.039-4.91 3.092-4.63.1-6.73-1.578-6.82-6.123-.16-8.221-.1-16.446-.2-24.668-.03-2.208.81-3.148 3.07-2.986 2.09.151 4.21.059 6.32.088 2.05.028 2.9 1.034 2.75 3.121-.4 5.656-.72 11.319-1.06 16.846a45.321 45.321 0 0 0 1.76-17.86c-.4-4.373 1.46-7.894 3.04-11.6a2.1 2.1 0 0 1 .99-.921c2.26-1.03 4.51-2.1 6.85-2.918a2.412 2.412 0 0 1 2.13.886c2.76 4.81 5.35 9.713 8.04 14.56.98 1.76 2.1 3.443 3.15 5.161l.79-.528a18.146 18.146 0 0 1-2.08-3.167 10.244 10.244 0 0 1-.75-3.9c.01-1.3.62-2.586.77-3.9.26-2.239 1.12-3.753 4.17-3.633.62 3.011 1.09 6.243 1.99 9.347 1.76 6.049-1.69 10.379-4.49 14.988a3.971 3.971 0 0 0-.47 2.179q1.065 17.7 2.2 35.393l.23 3.897zm19.21-50.662a13.041 13.041 0 0 0-.38 2.524c.61 13.778 1.18 27.56 1.95 41.33.36 6.466.56 6.6-5.89 7.34a85.63 85.63 0 0 1-10.3.2c-1.98-.012-2.99-.846-3.14-3.136-.76-12.109-1.73-24.205-2.56-36.311a5.614 5.614 0 0 1 .8-2.438c.36-.77 1.01-1.414 1.32-2.2 2.75-7.064 5.59-14.1 8.11-21.253.67-1.914.38-4.18.47-6.287.11-2.764 1.41-3.632 3.92-2.476q5.745 2.646 11.44 5.4a1.982 1.982 0 0 1 1.02 1.282 394.068 394.068 0 0 1 4.31 40.144c.35 8.042 1.66 16.041 2.51 24.062.19 1.792.29 3.593.45 5.389.11 1.311-.39 2.184-1.77 2.218-2.7.069-5.41.133-8.11-.023-.41-.024-1.03-1.234-1.07-1.92-.24-4.851-.32-9.71-.53-14.563q-.825-19.14-1.72-38.275a4.628 4.628 0 0 0-.3-.993zm-37.8-46.962c-.55-2.22.94-3.233 2.38-4.238 2.86-2 5.71-4.017 8.63-5.912a2.992 2.992 0 0 1 2.13-.13l2.96 1.22c5.53 1.47 8.33 5.349 9.83 10.6a6.988 6.988 0 0 0 2.37 3.417c1.04.779 1.66 1.471 1.23 2.646-.77 2.107-1.31 4.462-2.64 6.162a54.854 54.854 0 0 1-7.93 8.254c-3.89 3.241-8.23 2.337-12.23-2.7-1.89-2.374-2.98-5.427-4.21-8.267a31.647 31.647 0 0 1-1.65-5.612c-.4-1.783-.59-3.622-.87-5.44zm32.61-.772v2.577c-.02 1.247.21 2.632-1.73 2.67-1.57.031-2.99-.072-3.42-2.02-.34-1.524-.77-3.03-1.22-4.527-.69-2.3-1.68-4.253-4.19-5.265a83.732 83.732 0 0 1-8.58-4.193c-1.68-.92-2.78-.116-4 .789-3.29 2.437-6.55 4.912-9.91 7.248-2.2 1.534-4.27.522-4.43-2.133-.31-5.006.52-9.55 5.46-12.259a13.815 13.815 0 0 0 2.06-1.541 8.471 8.471 0 0 1 7.38-1.943 12.369 12.369 0 0 0 5.36-.572c1.79-.514 3.23-.241 4.05 1.3.98 1.822 2.47 2.375 4.31 2.807a7.725 7.725 0 0 1 3.12 1.8c4.61 4.051 5.93 9.373 5.74 15.262zm-33.3 190.214c1.8-1.266 3.6-2.538 5.4-3.793a3 3 0 0 0 1-.579c1.56-3.487 4.57-2.254 7.19-2.262 2.02-.006 4.05 0 5.98 0a1.393 1.393 0 0 1 .35.446c.2 1.9 1.17 4.389.32 5.548-.78 1.079-3.49.849-5.37 1.018q-5.94.534-11.89.855a12.336 12.336 0 0 1-2.68-.435zm28.85 1.835a18.62 18.62 0 0 1-2.93-.364 7.291 7.291 0 0 1-1.83-1.137 8.339 8.339 0 0 1 1.26-1.485c1-.735 2.2-1.221 3.13-2.031.86-.749 1.41-1.841 2.21-2.676a3.782 3.782 0 0 1 1.78-1.165c1.95-.393 3.96-.473 5.9-.913 1.4-.319 2.28-.147 2.65 1.34.19.755.41 1.506.64 2.251.78 2.547-.32 4.625-3.02 5.07-3.13.519-6.31.731-9.79 1.11zm-49.01-153.035l.51-6.315c.13-1.479.78-2.251 2.42-2.14 2.41.164 4.84.176 7.26.248 1.71.051 2.35.9 2.1 2.586-.29 1.922-.47 3.861-.74 6.143zm71.46 66.761a62.836 62.836 0 0 1 1.87 6.78c.29 1.779-.22 3.494-2.69 3.246-1.99-.2-4.44.547-5.76-1.329a13.271 13.271 0 0 1-1.68-5.276 8.421 8.421 0 0 1 .52-2.93zm-57.72-79.373c2.04-7.292 4-14.286 6.09-21.775.64 3.874 2.82 7.056 1.34 10.872a52.868 52.868 0 0 0-2.23 6.924c-.65 2.762-2.56 3.592-5.2 3.979zm-7.19 3.222c-1.84.159-3.19.023-2.23-2.21a.75.75 0 0 0-.03-.465c-1.44-4.487.17-8.074 3.35-11.146a14.846 14.846 0 0 1 2.33-1.525c.22 1.057.75 2.164.59 3.16-.27 1.664-1.12 3.227-1.45 4.888a21.467 21.467 0 0 0-.36 4.871c.05 1.785-.1 3.106-2.2 2.427zm12.28-26.874c-2.38 8.438-4.72 16.732-7.06 25.027l-1.24-.152c0-1.853-.36-3.8.07-5.543 1.51-6.15 3.35-12.219 4.95-18.35.47-1.805 1.39-1.798 3.28-.983zm28.95 27.231c-.07 5.823-2.11 10.337-4.49 14.941l-.37-1.791c-.76-3.572-1.6-7.13-2.22-10.726-.15-.844.46-1.819.7-2.629 2.35.142 3.75 3.409 6.38.205zm-15.86-.88c5.54 3.448 2.82 7.572 1.49 11.691a83.362 83.362 0 0 1-3.87-8.754c-.21-.652 1.54-1.952 2.38-2.937zm14.06 1.7c-2.56-1.739-4.97-3.144-5.88-6 2.59-2.373 4.53-2.359 7.23.724 1.71 1.952-.88 3.341-1.35 5.279zm-12.62-2.082c2.66-2.692 5.6-3.769 7.34-.256-2.56 4.226-4.94 3.94-7.34.259zm.18-2.059l-4.54 3.292c-1.89-1.27-2.16-3.267-.72-6.114l5.26 2.825z" transform="translate(-1668.06 -138.531)"/></svg>