<svg xmlns="http://www.w3.org/2000/svg" viewBox="0 0 130 216.031"><defs><style>.cls-1 { fill: #fff;fill-rule: evenodd; }</style></defs><path class="cls-1" d="M183.434 594.508c-.47 4.216-1.025 8.424-1.383 12.649-.285 3.366-.248 6.758-.508 10.127a6.881 6.881 0 0 1-3.386 5.816c-2.9 1.708-5.729 3.546-8.575 5.35-1.584 1-2.2.772-2.513-1.083-.433-2.605-.612-5.27-1.26-7.816-.764-3-1.987-5.887-2.881-8.861-1.965-6.544-3.8-13.16-3.649-20.049.1-4.472.82-8.931 1.3-13.392.165-1.527.4-3.052.7-4.559.274-1.4.953-1.914 2.523-1.4q13.449 4.371 26.964 8.534c2.656.815 5.407 1.34 8.137 1.888 2.8.562 3.781 1.458 3.844 4.349.088 4.046-.018 8.1-.033 12.144-.012 3.151.051 6.3-.036 9.453q-.162 5.842-.531 11.678c-.142 2.269-.621 4.525-.67 6.792-.066 3.1-1.7 4.989-4.184 6.466-2.524 1.5-4.9 3.27-7.489 4.637-6.289 3.322-12.671 6.465-19 9.707-3.118 1.6-6.428 2.925-8.267 6.281a4.564 4.564 0 0 1-1.955 1.213 9.942 9.942 0 0 0-1.967.889c-1.742 1.492-4.063 1.269-5-.913-1.437-3.332-2.6-6.791-3.708-10.251a2.135 2.135 0 0 1 1.728-3c1.062-.247 2.076-.7 3.125-1.011a5.36 5.36 0 0 0 4.006-3.378 3.384 3.384 0 0 1 2.351-1.9c4.15-.3 7.271-2.64 10.4-4.926 3.914-2.86 7.708-5.888 11.517-8.89a2.176 2.176 0 0 0 .756-1.413c.337-6.231.6-12.466.914-18.7.077-1.538.367-3.07.371-4.606a6.838 6.838 0 0 0-.708-2.088zm-14.121-70.2c-4.052 1.392-7.706 2.605-11.31 3.948a2.022 2.022 0 0 0-.661 1.607c.091 3.308.256 6.615.465 9.918a6.587 6.587 0 0 0 .588 2.092c.631 1.484 1.369 2.922 2.009 4.4 2.081 4.809 1.488 5.992-3.634 7.343-5.248 1.385-6.111 1.094-8.42-3.771-1.315-2.772-2.212-5.742-3.357-8.6a65.073 65.073 0 0 0-2.925-6.783c-2.317-4.286-.449-11.638 3.64-14.305 2.79-1.819 5.352-3.991 8.143-5.808.907-.591 2.217-.56 3.711-.9.2-2.155 2.5-2.627 4.389-3.619 4.088-2.151 8.115-4.419 12.249-6.475a12.9 12.9 0 0 1 3.716-.694q3.332-.516 6.669-.987c1-.139 2-.219 3.406-.369a22.269 22.269 0 0 1-.764 3.406 78.186 78.186 0 0 1-3.494 7.848 4.166 4.166 0 0 0 .109 4.7 95.606 95.606 0 0 1 5.918 10.321c1.7 3.751 2.8 7.78 4.114 11.553.622-2.545-.177-5.171-1.213-7.7-1.055-2.579-2.234-5.12-3.54-7.581s-2.825-4.781-4.332-7.3c2.053.159 3.929.238 5.78.5a1.964 1.964 0 0 1 1.038 1.18c1.432 3.612 2.937 7.2 4.121 10.9a8.693 8.693 0 0 1-.218 4.077c-2.089 10.447-4.289 20.872-6.344 31.326-.649 3.305-.9 6.688-1.45 10.015-.368 2.213-.867 2.4-2.947 1.544-4.661-1.916-9.3-3.892-14-5.7a26.005 26.005 0 0 0-5.118-1.2c-2.868-.47-3.726-1.844-3.042-4.73.847-3.568 2.16-7.171 2.171-10.762.023-8.061 3.56-15.394 4.159-23.285.137-1.817.224-3.641.374-6.105zm40.47.209l-2.256-4.2.3-.2 2.609 1.854 2.314-13.766c2.379.086 5.018 2.472 5.665 5.157a39.658 39.658 0 0 0 8.216 16.888c.747.876.935 2.225 1.4 3.346.305.73.453 1.767 1.011 2.107 2.179 1.329 1.955 3.35 1.986 5.414a21.214 21.214 0 0 0 .588 3.394l.626-.108c0-2.451-.127-4.91.025-7.352.372-5.952 3.242-11.06 5.7-16.3 3.4-1.686 3.613-5.361 5.128-8.225a2.841 2.841 0 0 1 .637-.539l1.72 1.437a.994.994 0 0 0 .356-.3c.6-3.754 1.447-4.265 5.132-3.688a35.1 35.1 0 0 0 6.54.316c2.3-.076 3.684.806 3.895 3.151.417 4.64.016 9.147-3.044 12.957a3.61 3.61 0 0 1-2.259 1.448c-3.183 0-6.536.262-9.35-2.715 0 .674-.022 1.35 0 2.023.061 1.563.575 3.261.136 4.661-1.007 3.208-2.5 6.261-3.749 9.395-1.572 3.947-3.156 7.891-4.626 11.876-1.028 2.788-2 3.156-4.771 3.665-5.962 1.1-10.114-1.866-13.4-5.977-3.743-4.684-7.991-9.446-6.42-16.355a4.9 4.9 0 0 0-.038-1.535 1.521 1.521 0 0 0-.765-1.207c-.317 2.047-.586 4.1-.962 6.141-.748 4.046-1.56 8.079-2.332 12.121a7.684 7.684 0 0 0-.366 2.6c.827 4.675-.578 9.169-.971 13.741a1.848 1.848 0 0 1-.186.85c-2.326 3.4-2.2 7.315-2.354 11.165-.076 1.962-.927 2.5-2.856 2.12-3.659-.732-7.368-1.209-11.044-1.864-2.012-.358-2.645-1.515-2.271-3.492.257-1.358.232-2.768.466-4.132q2.259-13.132 4.6-26.251a5.21 5.21 0 0 1 .853-2.007c3.705-5.292 7.409-10.586 11.228-15.8.584-.769 1.751-1.113 2.889-1.81zm34.249 154.135h-5.11v-111.359h5.11v111.363zm-35.623-174.602c-1.227-.628-3.014-1.027-3.987-2.14-2.733-3.124-5.185-6.5-7.617-9.875a8.652 8.652 0 0 1-.874-2.926c-.355-1.422-.192-2.475 1.472-3.114a3.794 3.794 0 0 0 1.863-2.19c1.662-5.092 4.657-8.594 10.237-9.347.621-.084 1.183-.59 1.805-.69a3 3 0 0 1 1.982.129c2.176 1.586 4.118 3.52 6.38 4.956 3.612 2.293 3.025 5.742 2.162 8.738a37.884 37.884 0 0 1-4.712 10.138c-1.467 2.236-3.938 3.836-6.069 5.59-.562.462-1.52.441-2.642.731zm6.8 60.812v-7.062h4.85c15.35 0 30.7.039 46.049-.045 2.193-.011 3.124.547 2.821 2.848a33.466 33.466 0 0 0-.033 4.262h-53.69zm12.084-88.3c-.092.876-.118 1.766-.287 2.627a2.31 2.31 0 0 1-3.828 1.491c-.835-.591-1.6-1.282-2.383-1.949-2.252-1.926-4.457-3.912-6.771-5.76a2.717 2.717 0 0 0-2.162-.556 79.222 79.222 0 0 0-9.737 3.921c-1.2.615-1.939 2.3-2.66 3.62a15.848 15.848 0 0 0-1.348 3.717c-.454 1.8-1.675 2.029-3.2 1.836-1.755-.223-1.523-1.534-1.371-2.682l1.142-7.626c.512-3.89 3.586-5.911 6.036-8.369a2.914 2.914 0 0 1 1.857-.566 4.574 4.574 0 0 0 4.04-2.182c.89-1.333 2.207-1.286 3.727-.789a13.686 13.686 0 0 0 5 .789 6.123 6.123 0 0 1 4.717 1.235c1.95 1.67 4.192 3.157 5.647 5.2 1.147 1.608 1.293 3.932 1.884 5.938zm-46.146 190.389l-12.527 4.971a13.89 13.89 0 0 1-.628-3.895c.574-5.068 1.568-10.093 2.035-15.168.305-3.314 2.357-4.893 4.856-6.25 1.729-.94 3.564-1.68 5.324-2.565 1.86-.935 2.7-.608 2.6 1.517-.195 4.317-.7 8.62-1.047 12.93-.223 2.764-.402 5.532-.613 8.46zm-25.695 11.387c-3.282-.695-6.247-1.155-8.159-4.255-1.8-2.924-3.94-5.558-4.4-9.189-.19-1.487-1.331-2.9-2.209-4.24-1.159-1.762-2.149-3.47-1.455-5.714a7.765 7.765 0 0 0 .037-2.2c0-3.328.213-3.377 3.446-4.116a34.91 34.91 0 0 0 5.6-2.355 10.122 10.122 0 0 1 .618 1.363c.948 2.968 1.8 5.967 2.838 8.9.2.567 1.05.905 1.906 1.6-.693 1.343-1.416 2.818-2.207 4.255-1.945 3.537-1.58 4.953 1.067 7.982a10.828 10.828 0 0 1 2.918 7.969zm40.659.522c-.777.047-1.554.136-2.331.134-7.469-.021-14.937-.114-22.4-.049a3.088 3.088 0 0 1-3.356-2.459c-.517-1.624.423-2.533 1.7-3.072 2.815-1.185 5.637-2.385 8.54-3.32 2.187-.7 4.051.965 5.3 2.157 3.076 2.937 6.872 3.713 10.652 4.787a11.772 11.772 0 0 1 2.142 1.107zm11.489-155.767c-3.868 5.14-7.558 10.043-11.47 15.243.127-1.048.238-1.9.332-2.752.1-.948.252-1.9.275-2.849a23.391 23.391 0 0 1-.024-3.665 9.7 9.7 0 0 1 1.424-3.734c1.936-2.747 4.256-5.229 6.114-8.023 2.142-3.22 3.953-6.661 6.165-10.446.318.529 1.056 1.183.989 1.738-.444 3.638-1.062 7.255-1.639 10.978l-4.165-2.266-.663.547c.954 1.881 1.912 3.761 2.662 5.229zm-61.083 46.412c1.695-1.828 3.395-3.651 5.081-5.487.3-.329.546-.712.817-1.07a3.754 3.754 0 0 0-1.276-.624c-.556-.032-1.137.356-1.691.318-.716-.048-1.78-.134-2.026-.577a2.347 2.347 0 0 1 .405-2.092c.634-.758 1.988-1.048 2.371-1.854 1.236-2.605 3.538-2.41 5.783-2.868a40.079 40.079 0 0 0 6.154-2.3c1.939 3.118 1.7 4.925-1.105 7.27a4 4 0 0 0-.961.889c-2.45 4.227-7.107 5.658-10.676 8.461a7.524 7.524 0 0 1-2.279.8zm107.807-87.9a17.539 17.539 0 0 1 2.358 2.23c1.977 2.69 2.455 4.52.089 6.818a39.043 39.043 0 0 0-3.085 3.733c-1.255 1.568-1.251 3.148.239 4.509 2.815 2.571 3.217 5.575 1.845 8.975-4.643.838-10.915-1.982-8.768-7.1l3.1 2.8.651-.548c-.367-.638-.724-1.282-1.1-1.914a6.58 6.58 0 0 1 1.628-8.979c3.647-2.725 4.518-6.118 2.5-10.334zm-47.377 24.542l1.87-.275c-1.313 2.77-2.391 5.046-3.666 7.738-1.145-2.276-2.048-4.073-3.055-6.078l3.283-.656v-.346c-1.572-.22-3.141-.464-4.717-.653-3.528-.422-5.166-3.811-3.244-6.609a1.415 1.415 0 0 1 2.364-.417c.518.4.963.889 1.463 1.312 1.584 1.336 3.229 2.606 4.74 4.02a6.339 6.339 0 0 1 .959 1.968zm-16.417 9.7l-6.141-1.061 5.278-12.995 1.668.228c-.269 4.57-.525 8.965-.808 13.828zm7.174-.871c2.276 2.914 1.4 7.314-2.124 10.689-3.271-6.716-3.227-6.665 2.12-10.689zm.542-1.385c-.692-1.262-1.259-2.426-1.943-3.517-1.051-1.677-.38-2.706 1.18-3.42a2.7 2.7 0 0 1 3.483 1.157c1.707 2.389 1.271 3.289-2.723 5.78zm1.931 7.035c-1.306-5.039-.918-6.279 2.721-8.683 1.842 2.666.959 5.485-2.724 8.683zm-5.621-11.808c2.428 4.964 2.428 4.964-1.65 8.34-1.606-5.389-1.245-7.344 1.647-8.34zm3.394-3.614c-2.07 1.266-3.657 2.237-5.762 3.523a44.205 44.205 0 0 1 .572-4.589c.441-1.852 1.325-2.051 2.812-.811.673.564 1.379 1.093 2.375 1.873z" transform="translate(-139 -462.969)"/></svg>