<svg xmlns="http://www.w3.org/2000/svg" viewBox="0 0 201 212"><defs><style>.cls-1{fill:#f39400;fill-rule:evenodd}</style></defs><path class="cls-1" d="M30.547 30.689a39.06 39.06 0 0 0 11.724 15.6 20.339 20.339 0 0 0 5.777 3.264 8.1 8.1 0 0 0 9.043-2.112 21.756 21.756 0 0 0 1.446-1.858l.638.217a29.107 29.107 0 0 1 .988 4.283c.258 3.143.393 6.3.4 9.457 0 1.13-.681 2.25-.76 3.395-.145 2.091-.089 4.2-.089 6.3 0 12.176.718 24.371-.98 36.5-.424 3.034-1.161 3.641-4.619 3.274a18.882 18.882 0 0 1-.211-2.6q1.019-20.215 2.1-40.428c.19-3.549.5-7.091.711-10.638.073-1.216.012-2.44.012-3.66l-.526-.069a31.959 31.959 0 0 0-1.063 5.8c-.007 14.563-.178 29.113-1.818 43.607a30.269 30.269 0 0 0-.116 3.553c.01 1.846-1.118 2.718-2.677 3.187a84.56 84.56 0 0 1-4.888 1.325 34.869 34.869 0 0 1-5 .973c-1.686.143-3.126.145-4.428-1.816s-3.881-3.058-5.763-4.691a14.243 14.243 0 0 1-3.634-3.958c-1.956-3.925-3.574-8.024-5.253-12.084-1.271-3.075-2.377-6.218-3.652-9.29-.937-2.26-.271-4.293.353-6.487 1.756-6.174 3.414-12.384 4.814-18.646.4-1.8-.2-3.823-.343-5.744l-.5.011a51.649 51.649 0 0 1-.57 5.306c-.528 2.556-1.307 5.06-1.945 7.594-.512 2.034-.908 4.1-1.469 6.117-.879 3.157-1.929 6.268-2.741 9.441a4.933 4.933 0 0 0 .157 3.082c2.132 4.51 4.482 8.916 6.65 13.41.677 1.4 1.537 3.026 1.369 4.435-.142 1.187-1.548 2.325-2.583 3.279-1.855 1.71-3.852 3.265-6.037 5.092-1.214-2.323-2.178-4.233-3.2-6.112-3.29-6.057-6.7-12.05-9.872-18.171a16.509 16.509 0 0 1-.735-14.346c3.354-8.393 6.546-16.853 9.647-25.343.932-2.55 2.7-4.285 4.537-6.051a2.117 2.117 0 0 1 .884-.417q6.5-1.86 13-3.7l1.222-.281zm143.769 14.968c.952.093 1.915.121 2.853.29 2.121.383 4.265.71 6.334 1.293a6.8 6.8 0 0 1 4.477 3.946c4.45 8.946 7.9 18.3 11.661 27.522.371.912.7 1.846.98 2.789 1.045 3.446-.171 6.41-2.859 8.732-2.636 2.276-5.848 3.129-8.882 4.456a1.791 1.791 0 0 1-.77.134c-4.657-.2-9.312-.431-13.969-.622a70.747 70.747 0 0 1-8.02-.312c-3.2-.5-6.328-1.5-9.481-2.3-.375-.1-.707-.349-1.076-.481-3.8-1.36-4-1.794-2.67-5.875.557 0 1.137-.019 1.715 0a37.049 37.049 0 0 0 10.317-.546c2.881-.688 6.108.068 9.181.207l1.554.237c4.177.2 8.354.4 12.532.548 2.344.082 3.484-1.129 3.387-3.434a10.641 10.641 0 0 0-.143-3.136 19.456 19.456 0 0 0-2.112-3.478 21.106 21.106 0 0 1-1.254-1.875 14.4 14.4 0 0 1-.691-2.05 5.6 5.6 0 0 0-.99-2.037c-.109 1.291-.246 2.581-.32 3.874a2.661 2.661 0 0 1-1.872 2.651 12.441 12.441 0 0 0-2.937 2.22c-1.858 1.54-3.668 3.14-5.561 4.634a2.579 2.579 0 0 1-1.637.424c-2.419-.148-4.829-.466-7.249-.57-1.682-.073-3.375.092-5.061.172-1.376.065-2.749.22-4.124.232-4.427.037-4.753-.546-4.977-4.957-.211-4.15-.955-8.272-1.465-12.407h-.609c0 .566-.007 1.131 0 1.7.086 6.576.19 13.152.255 19.728.02 2.131-.406 4.032-2.7 4.984a3.058 3.058 0 0 0-1.229 1.757c6.657-3.972 11.642 1.175 17.754 2.324a5.439 5.439 0 0 1-1.248 1.5c-3.245.991-6.494 1.977-9.781 2.809a27.917 27.917 0 0 1-4.3.475c-2.771.254-4.724-1.378-5.858-4.117-2.66-6.428-4.549-13.12-4.238-20.265.163-3.736-.256-7.5-.18-11.24a88.38 88.38 0 0 1 .75-9.805c.336-2.535 1.957-4.152 4.386-5.112 5.165-2.042 10.272-4.231 15.42-6.367-.5-3.495-1.593-6.76-4.411-9.252-1.56-1.38-1.473-3.189-1.144-5.112a37.314 37.314 0 0 0 .749-7.177c-.1-3.849.559-6.909 4.63-8.58a24.153 24.153 0 0 0 5.818-3.977c2.54-2.089 5.325-2.316 7.815-.089a27.921 27.921 0 0 0 7.12 5.112c2.763 1.242 3.333 4.1 3.3 6.9-.035 2.943-.213 5.889-.456 8.824a16.975 16.975 0 0 1-7.3 12.967c-.521.373-1.006.8-1.508 1.2l.094.532zm-18.135 1.553h-.575a5.514 5.514 0 0 0-.319 1.564c.356 3.825 5.429 8.738 9.329 9.1 4.991.457 11.394-3.258 13.36-7.787a5.093 5.093 0 0 0 .018-1.5c-.654.581-1.061.952-1.477 1.311a50.7 50.7 0 0 1-4.635 3.938c-5.019 3.366-10.1 2.287-13.445-2.744-.824-1.253-1.508-2.589-2.256-3.882zm8.527-16.155l.581.331c.858-.672 1.747-1.311 2.565-2.03a7.854 7.854 0 0 0 1.589-1.733 10.9 10.9 0 0 0 1.481-3.15c.668-3.072.554-2.883 3.523-2.362 1.3.229 2.824-.482 4.164-.985a1.9 1.9 0 0 0 .32-1.7c-.116-.3-1.051-.333-1.626-.377a13.624 13.624 0 0 1-2.8-.108c-2.63-.794-5.209.3-5.309 2.981-.117 3.116-2.177 4.926-3.553 7.229-.362.601-.626 1.266-.935 1.904zm-15.96 171.48c.247 2.187 1.484 2.9 3.455 2.2a24.583 24.583 0 0 1 5.086-1.411 11.539 11.539 0 0 1 3.784.56c.941.212 1.824.687 2.765.894a3.738 3.738 0 0 1 2.962 4.23c-.24 2.12-1.3 3.011-3.614 2.979-4.4-.062-8.794-.145-13.192-.209-2.332-.034-3.719-1.625-2.841-3.764a14.392 14.392 0 0 0 .592-8.1 25.35 25.35 0 0 1 0-4.142c.071-12.163.325-24.33.143-36.49-.123-8.212-1.009-16.41-1.279-24.623-.224-6.815-.046-13.644-.046-20.752 13.442 4.911 27.111 6.761 41.062-.594.4 4.725.95 9.066 1.106 13.42.277 7.76.3 15.528.477 23.292.028 1.239.451 2.472.444 3.707-.016 2.542-.182 5.085-.318 7.626-.437 8.147-.99 16.29-1.274 24.442-.089 2.544-.662 5.089.2 7.724.66 2.012-2.174 4.57-5.057 5.043-.194.032-.392.036-.589.049-6.068.4-7.02-.586-6.664-6.72a28.91 28.91 0 0 0 .106-6.7c-1.767-9.759.1-19.712-1.649-29.431-1.33-7.376-3.05-14.68-4.606-22.015a2.352 2.352 0 0 0-.4-1.1 7.3 7.3 0 0 0-1.314-.92 3.5 3.5 0 0 0-.806 1.283c-.213 3.02-.135 6.071-.517 9.066-.757 5.93-1.785 11.826-2.632 17.746-.325 2.276-.449 4.58-.685 6.87-.674 6.537-1.329 13.077-2.057 19.608-.2 1.827-.647 3.627-.962 5.443-.483 2.776-.913 5.562-1.434 8.332-.434 2.313-1.877 3.071-3.886 1.956-2.286-1.265-4.279-.134-6.36.501zM15.481 108.291a30.081 30.081 0 0 1 1.413 2.844 1.679 1.679 0 0 0 2.044 1.329c3.217-.527 6.434-1.063 9.663-1.507a7.944 7.944 0 0 1 2.641.152c1.739.359 3.46 1.967 5.176-.077a1.106 1.106 0 0 1 .742.014 16.9 16.9 0 0 0 9.269-.964c2.025-.722 4.144-1.177 6.539-1.839.272 4.6.856 9.258.757 13.9-.215 10-.662 20-1.273 29.992-.2 3.24-1.346 6.411-1.812 9.649-.792 5.5-1.385 11.035-2.068 16.555-.184 1.486-.351 2.976-.6 4.452-.263 1.569-1.6 1.871-2.818 1.975-1.757.148-3.535.038-5.566.038l.586-1.008a3.384 3.384 0 0 1-2.749-3.607c.485-6.677.845-13.378 1.725-20.006a64.79 64.79 0 0 0 .127-17.837 1.479 1.479 0 0 0-.9-.968c-1.057 3.968-2 7.97-3.192 11.9a235.371 235.371 0 0 0-6.2 27.382c-.443 2.5-1.284 4.936-1.725 7.439a7.6 7.6 0 0 1-6 6.311c-1.991.5-4.319-.066-6.438-.465-1.618-.3-1.749-1.678-1.431-3.14.991-4.55 2.321-9.07 2.795-13.677.646-6.264.625-12.6.886-18.9a34.267 34.267 0 0 0 .147-4.891c-.6-5.8-1.032-11.649-2.115-17.367a68.5 68.5 0 0 1-.436-22.12c.241-1.782.23-3.6.335-5.4zm63.4-54.1c2.324 5.374 4.3 10.393 6.65 15.223a71.588 71.588 0 0 0 5.833 9.759c2.213 3.144 5.407 2.664 6.79-.834 1.328-3.36 2.539-6.766 3.806-10.15a2.331 2.331 0 0 1 .927-1.291c-.17 1.189-.42 2.373-.494 3.568-.28 4.529-.447 9.067-.759 13.594-.443 6.422 1.4 12.5 2.8 18.621 2.194 9.606 3.079 19.139.683 28.872-1.029 4.182-1.016 8.619-2 12.816-.889 3.782-1.6 7.749-5.51 10.152-4.434 2.728-8.842 5.3-14.261 4.482-4.288-.649-6.99-3.479-8.958-7.222-1.344-2.556-.56-5.09-.437-7.681.2-4.266-.059-8.561.267-12.813.471-6.159 1.47-12.279 1.919-18.439.68-9.338 3.724-18.432 2.651-27.957-.508-4.506-.636-9-3.2-13.022a9.094 9.094 0 0 1 .074-10.715 25.025 25.025 0 0 0 1.653-3.983c.39-.893.907-1.737 1.568-2.976zM52.104 36.153c-3.714.473-5.595-2-7.607-3.925a13.281 13.281 0 0 1-3.658-5.073c-1.4-4.381-4.619-8.394-3.43-13.365a11.8 11.8 0 0 1 2.406-4.355c1.733-2.165 3.8-4.062 5.565-6.2a7.762 7.762 0 0 1 5.858-3.2c3.1.007 6.248-.374 9.258 1.522 2.054 1.294 4.545 1.945 5.307 4.527a50.8 50.8 0 0 1 1.343 6.918 2.614 2.614 0 0 1-.485 2.046c-1.808 1.558-1.593 3.759-2.11 5.734a29.942 29.942 0 0 1-6.415 12.257c-1.657 1.904-3.474 3.684-6.03 3.118zm34.731 7.865c-2.562-3.1-1-5.538.926-8.01 1.827-2.339 1.722-3.8-.351-6.328 1.254 2.173.92 4.118-1.108 5.309a20.568 20.568 0 0 1-5.46 2.1 2.753 2.753 0 0 1-2.281-1.113c-2.447-3.911-4.694-7.88-4.195-12.847.182-1.812-.5-3.7-.672-5.564a5.977 5.977 0 0 1 .3-2.318c1.348-4.154 3.768-7.192 8.4-7.824a1.538 1.538 0 0 0 .578-.1c3.384-2.121 5.913-.294 8.2 1.935 3.536 3.443 5.534 7.55 5.149 12.682a5.56 5.56 0 0 0 1.061 3.23c1.894 2.784 3.338 5.664 3.02 9.146a6.559 6.559 0 0 1-.488 2.28 3.555 3.555 0 0 0-.123 3.328c.306.72-.212 2.016-.735 2.8a4.144 4.144 0 0 1-2.226 1.538c-2.776.732-4.4 2.616-5.728 5a20.82 20.82 0 0 1-2.718 3.547 1.591 1.591 0 0 1-1.342-.434c-.607-1.442-1.039-2.959-1.527-4.451-.498-1.531-.662-2.978 1.322-3.902zm-.768-28.328c2.133 4.093-1.523 8.472.844 12.553-1.92-4.099 1.726-8.474-.842-12.549zm59.391 87.39c4.576 1.05 8.765-.119 12.918-1.57a7.251 7.251 0 0 0 1.626-.693c7.605-5.031 16.076-4.32 24.532-3.787a1.586 1.586 0 0 1 1.771 1.756 87.089 87.089 0 0 0 1.169 9.572c.511 2.6-1.355 3.316-2.863 4.283-3.567 2.287-7.708 2.727-11.767 3.265-5.369.712-10.667-.185-15.884-1.327-3.448-.755-6.79-2-10.2-2.959-1.595-.451-2.256-1.311-1.949-3.026.328-1.794.439-3.625.649-5.51zM67.87 41.702l3.59.547.167-.485a16.749 16.749 0 0 1-1.917-.736 10.543 10.543 0 0 1-1.4-1.04c.569-.367 1.123-.761 1.715-1.087a3.13 3.13 0 0 1 .975-.094 25.572 25.572 0 0 1-1.822-2.39 4.346 4.346 0 0 1-.266-1.512 3.115 3.115 0 0 1 1.518.052c1.571 1.16 3.052 2.445 4.657 3.761-.838-2.474-3.685-3.789-4.186-6.342l.7-.448 8.429 7.285 3.791-2.214c-.018 2.269.579 4.2-1.185 5.7a1.471 1.471 0 0 0-.1 1.221c2.2 7.242 4.824 14.279 9.883 20.19a2.4 2.4 0 0 0 .161-.5c.157-1.739-.7-3.989 1.364-4.913 2.751-1.231 5.756-2.227 8.6-.179a2.577 2.577 0 0 1 .8 2.252c-2.009 5.98-4.157 11.913-6.293 17.85-.639 1.776-2.163 1.809-3.392 1.09a7.867 7.867 0 0 1-3.143-3.072c-2.609-5.586-4.98-11.284-7.416-16.95-5.053-11.756-2.89-9.136-13.859-16.294-.558-.365-1.091-.767-1.636-1.151zm28.271 143.7l-7.054-24.2 10.615-5.808c.626 5.836 1.274 11.807 1.9 17.78.254 2.414.426 4.838.723 7.247.153 1.237.033 2.043-1.361 2.558a44.664 44.664 0 0 0-4.821 2.431zm-64.749 20.674a30.894 30.894 0 0 0-3.508-.544c-2.522-.136-5.051-.16-7.577-.171-1.431-.007-2.863.121-4.3.151a2.375 2.375 0 0 1-.952-.228c-2.169-.939-3.575-7.459-1.836-9a3.24 3.24 0 0 1 2.415-.427 12.836 12.836 0 0 0 7.667-1.086 2.835 2.835 0 0 1 3.034.294c3.447 2.227 7.041 4.226 10.518 6.408.658.413 1.595 1.643 1.456 1.848a5.833 5.833 0 0 1-2.455 2.273c-1.242.467-2.705.334-4.46.49zm72.181-20.373c0 4.2.089 8.408-.083 12.6a2.876 2.876 0 0 1-1.77 2.107c-5.55.784-11.127 1.4-16.711 1.909a3.35 3.35 0 0 1-2.469-1.193c-1.233-1.573-.875-2.375.917-3.287q4.995-2.542 9.937-5.189a2.6 2.6 0 0 0 1.6-2.661 1.99 1.99 0 0 1 .744-1.621c2.278-1.106 4.635-2.048 6.965-3.046zm72.673 15.926c3.376-.213 6.245-.365 9.106-.608a1.614 1.614 0 0 0 1.188-.781c.6-1.682 1.3-1.155 2.257-.316 2.16 1.884 4.384 3.648 7.4 4.025a3.04 3.04 0 0 1 2.568 3.092 10.435 10.435 0 0 1-.871 4.041 2.233 2.233 0 0 1-1.736.55c-4.565-.228-9.133-.453-13.682-.868a5.921 5.921 0 0 1-3.383-1.421c-.756-.73-.912-2.1-1.3-3.195-.51-1.438-.993-2.895-1.545-4.511zm-70.7-142.589a17.075 17.075 0 0 0-1.4-1.269 4.514 4.514 0 0 0-1.967-1.188c-3.35-.125-6.805-.607-9.744 1.705-1.526 1.2-2.142 1.033-2.793-.765a5.61 5.61 0 0 1 1.731-6.494 2.082 2.082 0 0 0 .534-.572c1.643-3.159 4.438-4.974 7.521-6.41a1.836 1.836 0 0 1 1.629.1c2.14 3.643 5.182 6.879 5.472 11.394a23.944 23.944 0 0 1-.227 3.315zm-40.175 57.129a10.637 10.637 0 0 1 .641-7.837 64.267 64.267 0 0 0 3.113-7.642c.953-3.378 1.448-6.886 2.145-10.337.9-4.434 1.753-8.877 2.744-13.29a5.644 5.644 0 0 1 1.424-1.8 6.8 6.8 0 0 1 1.118 1.626 9.467 9.467 0 0 1 .507 2.9c-.027 5.689.118 11.368-2.18 16.816-1.538 3.647-3.305 7.314-2.9 11.52.059.619-.623 1.31-.962 1.967-.367-.587-.75-1.166-1.094-1.766a8.9 8.9 0 0 1-.424-1.065c-3.421 2.115-2.431 6.127-4.132 8.908zM39.487 187.06l8.821-.794c1.3 3.447 4.835 4.149 8.326 4.96a9.65 9.65 0 0 1 1.942.767 2.112 2.112 0 0 1 1.312 2.822c-.465 1.5-1.6 1.052-2.587 1.015-2.4-.092-4.806-.313-7.209-.314-1.947 0-3.892.306-5.842.357a9.126 9.126 0 0 1-3.2-.337c-3.375-1.188-4.262-4.334-2.194-7.326a10.971 10.971 0 0 0 .631-1.15zM56.131 42.429l2.023 1.9c-2.656 4.4-6.966 5.69-11.531 3.333-5.168-2.667-8.836-6.962-12.033-11.7a26.748 26.748 0 0 1-2.254-3.93 4.955 4.955 0 0 1 .053-2.033c.847.209 2.082.134 2.476.675 2.008 2.758 3.818 5.663 5.656 8.543.634.994 1.147 2.065 1.883 3.406 1.45-1.437 2.856-2.755 4.176-4.155 1.967-2.087 3.136-2 4.367.619.908 1.931 1.557 3.984 2.448 6.317zm34.906 134.908c.852 2.283 1.66 4.272 2.334 6.306.6 1.814-.515 3.2-1.773 4.04a18.792 18.792 0 0 1-4.681 1.842c-1.145.374-2.544.276-3.482.908-1.926 1.3-3.914.624-5.87.6a1.892 1.892 0 0 1-1.368-1.145 2.03 2.03 0 0 1 .592-1.692c1.92-1.662 3.947-3.2 5.919-4.8a6.3 6.3 0 0 0 1.71-1.6c1.435-2.69 4.297-2.966 6.619-4.459zm-75.276-71.408l8.363-6.836a22.4 22.4 0 0 0 2.3 2.54 206.997 206.997 0 0 0 7.452 5.746c1.086.8 1.675 1.655.461 2.645a2.253 2.253 0 0 1-1.952-.112 5.909 5.909 0 0 0-5.309-.242 33.581 33.581 0 0 1-7.9 1.33 2.318 2.318 0 0 1-1.669-1.142 38.442 38.442 0 0 1-1.746-3.929zm74.791 69.576l-4.764 2.61-2.62-9.643c-.533-1.962-1.044-3.93-1.6-5.884-.572-2 0-2.735 1.994-2.5.587.071 1.174.152 1.763.184a2.411 2.411 0 0 1 2.5 2.253c.831 4.31 1.793 8.592 2.727 12.98zM46.714 36.987l-4.286 3.45c-2.233-3.556-4.749-7.483-7.144-11.482a2.175 2.175 0 0 1 .255-1.959 11.645 11.645 0 0 1 2.233-1.781zm132.763 46.164c1.761-1.887 3.433-3.774 5.222-5.541.645-.638 1.571-1.475 2.375-.015a.658.658 0 0 0 .465.251c.65.061 1.766-.113 1.876.151a9.029 9.029 0 0 1 .774 3.392c0 1.691-1.943 2.905-3.788 2.644-2.213-.314-4.434-.564-6.924-.882zM54.89 125.791v-14.094l2.831-.6c.753 6.995-.315 13.408-2.831 14.694zm-1.247-83.006c-.709-1.771-1.356-3.384-2-5l.422-.468c.715.577 1.737 1.015 2.073 1.762.508 1.133 1.423 2.58-.495 3.706zm32.426-27.091c2.568 4.072-1.078 8.45.844 12.553-2.367-4.078 1.287-8.46-.844-12.553z"/></svg>