<svg xmlns="http://www.w3.org/2000/svg" viewBox="0 0 115 154">
  <defs>
    <style>
      .cls-1 {
        fill: #fff;
        fill-rule: evenodd;
      }
    </style>
  </defs>
  <path class="cls-1" d="M804.969,3550.12l-8.226-99.3a4.072,4.072,0,0,0-3.938-3.87H775.881c-0.235-16.57-12.868-29.95-28.383-29.95s-28.147,13.38-28.382,29.95H702.192a4.05,4.05,0,0,0-3.937,3.87l-8.227,99.3c0,0.12-.029.25-0.029,0.37,0,11.31,9.666,20.51,21.566,20.51h71.867c11.9,0,21.567-9.2,21.567-20.51A1.542,1.542,0,0,0,804.969,3550.12ZM747.5,3425.5c11.136,0,20.215,9.57,20.45,21.45h-40.9C727.284,3435.07,736.363,3425.5,747.5,3425.5Zm35.934,136.99H711.565c-7.463,0-13.516-5.29-13.634-11.81l7.875-95.2h13.28v12.91a3.976,3.976,0,1,0,7.933,0v-12.91h40.929v12.91a3.976,3.976,0,1,0,7.933,0v-12.91h13.281l7.9,95.2C796.949,3557.2,790.866,3562.49,783.432,3562.49Z" transform="translate(-690 -3417)"/>
</svg>
