<svg xmlns="http://www.w3.org/2000/svg" viewBox="0 0 75 52">
  <defs>
    <style>
      .cls-1 {
        fill: #659a19;
        fill-rule: evenodd;
      }
    </style>
  </defs>
  <path class="cls-1" d="M449.873,577.1l-38.709,37.818h0a7.379,7.379,0,0,1-10.264,0h0L379.126,593.65h0A6.986,6.986,0,0,1,377,588.636a7.175,7.175,0,0,1,7.258-7.091,7.319,7.319,0,0,1,5.132,2.077h0l16.642,16.259,33.577-32.8h0A7.321,7.321,0,0,1,444.742,565,7.176,7.176,0,0,1,452,572.09a6.98,6.98,0,0,1-2.126,5.014h0ZM449.58,565v0Z" transform="translate(-377 -565)"/>
</svg>
