<svg  xmlns="http://www.w3.org/2000/svg" viewBox="0 0 263.58 220.49"><defs><style>.cls-1{fill:#fff;}</style></defs><title>Cloud_2</title><path d="M183.54,223.23c-7.09-2-14.31-3.6-21.28-6a77.79,77.79,0,0,1-41-31.2c-.62-.93-1.31-1.8-1.93-2.67-23.58,10.37-44.39.18-52.38-19.77-21.49,2.08-29.8-4.12-31.6-23.92-10.05-2-19-6.44-24.61-15.4a63,63,0,0,1-5-10.72,32.4,32.4,0,0,1-2.19-11.72h0a32.06,32.06,0,0,1,1-8v0C7,84.21,12,76.21,20.61,71c4.61-2.8,9.82-4.61,15-7C37.58,42,47.2,34.43,71.08,36.88,75.58,23.6,84.06,13.56,97,7.72c4.32-2,9-3,13.61-4.42a46,46,0,0,1,15,.09c4.3,1.4,8.67,2.6,12.79,4.4,8.51,3.72,15,9.95,20.1,17.54,13.52-5.4,19.71-3.45,28.8,8.95,10-3.36,19.89-3.58,29.37,1.85a31.94,31.94,0,0,1,16.06,22c.32,1.52,1.82,3.57,3.19,4C251.42,66.73,261,77.82,261.6,92.39c.64,15.58-7.54,27.55-22.88,33.49a2.34,2.34,0,0,0-.4.25c-2.27,25.77-15,36.07-38.57,31.17-9.58,17.47-23.89,22.16-41.09,17.74.19,8.63,2.06,16.8,6.64,23.83,4.47,6.87,10.1,13,15.25,19.4,1.13,1.41,2.35,2.74,3.54,4.09Zm-24.25-62.6-.91,10.31C171.19,174.2,186,168.08,194.1,156c2-3,3.74-3.55,7-2.91a27.48,27.48,0,0,0,32.29-22.31c.71-4.13.45-8.42.65-12.88l2.64,3.88c13.49-6,20.36-18.65,18.06-32.85-1.85-11.43-11.93-22.2-21.37-23.11l-3.7,12.29L228.43,78c2.48-13.13-.45-24.61-10.72-33.27-10.47-8.83-22.33-9-34.49-3.91-5.58-11.44-13.39-15-21.37-10.38l3.9,18.44C155.39,22.31,137.56,8,116,10c-14.1,1.3-25.77,7.08-34.4,18.51C73.12,39.76,71,52.59,72.18,66.4a46,46,0,0,1-2.85-11.73c-.37-4.12-.08-8.3-.08-12.42-14.47-3.73-27.36,6.25-28.16,21.66l15.09,4c-25.62-1.72-41,7.16-45.43,27.36a32.37,32.37,0,0,0,3.44,23c6,10.84,15.53,16.47,27.37,18.49-1.65,13.83,10.35,26.61,27.59,18.56,10.57,21.73,31.67,31.26,46.13,21l-6-17.2c10.26,27,28.2,45.33,57.51,53.21C156.29,195.62,153.55,178.67,159.29,160.63Z" transform="translate(-3.57 -2.74)"/><path d="M167.15,7.87c8.41-3.72,18.54-1.34,25,5.06a7.17,7.17,0,0,0,5.14,1.77c21.66-2.34,41.14,9.36,49.14,29.42a8.71,8.71,0,0,0,4.9,4.2c8.24,2.81,13.38,8.28,15.79,16.51-5.08-7.52-11.33-13.21-20.82-14.44-.85-.11-1.72-1.72-2.21-2.8q-14.43-31.35-48.69-29.42c-1,.06-2.59,0-3.08-.62C186.08,9.4,177.55,7.07,167.15,7.87Z" transform="translate(-3.57 -2.74)"/><path d="M225.89,6.82c16.26-.4,30.55,13.93,29.39,30.34C251,20.78,241.14,11.1,225.89,6.82Z" transform="translate(-3.57 -2.74)"/><path class="cls-1" d="M159.3,160.56c-5.74,18-3,35,7.52,51.76-29.31-7.89-47.25-26.22-57.51-53.21l6,17.2c-14.46,10.25-35.55.72-46.13-21-17.24,8-29.23-4.73-27.59-18.56-11.84-2-21.41-7.65-27.37-18.49a32.37,32.37,0,0,1-3.44-23C15.2,75,30.57,66.13,56.2,67.85l-15.09-4c.8-15.41,13.69-25.39,28.16-21.66,0,4.12-.29,8.3.08,12.42A46,46,0,0,0,72.2,66.34c-1.18-13.81.93-26.64,9.42-37.89C90.25,17,101.92,11.24,116,9.94c21.56-2,39.39,12.32,49.74,38.89l-3.9-18.44c8-4.64,15.79-1.06,21.37,10.38,12.16-5.1,24-4.92,34.49,3.91,10.26,8.66,13.19,20.14,10.72,33.27l1.27.11,3.7-12.29c9.44.92,19.52,11.68,21.37,23.11,2.3,14.2-4.57,26.83-18.06,32.85l-2.64-3.88c-.2,4.47.06,8.76-.65,12.88a27.48,27.48,0,0,1-32.29,22.31c-3.29-.64-5.05,0-7,2.91-8.07,12.05-22.92,18.17-35.73,14.91Z" transform="translate(-3.57 -2.74)"/></svg>