<svg xmlns="http://www.w3.org/2000/svg" viewBox="0 0 101 93"><defs><style>.cls-1 { fill: #659a19; fill-rule: evenodd; }</style></defs><path class="cls-1" d="M462.655 694c-16.206 0-29.344-6.174-29.344-13.792v-2.991a6.933 6.933 0 0 1 .617-2.825c2.773 6.263 14.581 10.968 28.727 10.968s25.954-4.706 28.727-10.968a6.931 6.931 0 0 1 .618 2.825v2.991c0 7.617-13.139 13.792-29.345 13.792zm0-15.4c-16.206 0-29.344-6.174-29.344-13.792v-2.991a6.926 6.926 0 0 1 .617-2.825c2.773 6.262 14.581 10.967 28.727 10.967s25.954-4.705 28.727-10.967a6.927 6.927 0 0 1 .618 2.825v2.991c0 7.619-13.139 13.792-29.345 13.792zm0-16.229c-16.206 0-29.344-6.175-29.344-13.792v-2.991a6.926 6.926 0 0 1 .617-2.825c2.773 6.262 14.581 10.967 28.727 10.967s25.954-4.705 28.727-10.967a6.927 6.927 0 0 1 .618 2.825v2.991c0 7.621-13.139 13.793-29.345 13.793zm0-15.4c-16.206 0-29.344-6.175-29.344-13.792v-2.989a6.922 6.922 0 0 1 .617-2.824c2.773 6.262 14.581 10.967 28.727 10.967s25.954-4.7 28.727-10.967a6.923 6.923 0 0 1 .618 2.824v2.991c0 7.619-13.139 13.792-29.345 13.792zm0-15.4c-16.206 0-29.344-6.175-29.344-13.792v-2.991c0-7.618 13.138-13.792 29.344-13.792s29.345 6.178 29.345 13.796v2.991c0 7.617-13.139 13.792-29.345 13.792zm-71.655 40.368v-2.991a6.926 6.926 0 0 1 .617-2.825c2.774 6.262 14.581 10.967 28.727 10.967a60.664 60.664 0 0 0 8.178-.546v3.663a11.2 11.2 0 0 0 1.1 4.82 60.217 60.217 0 0 1-9.274.7c-16.21.004-29.348-6.171-29.348-13.788zm0-15.4v-2.991a6.93 6.93 0 0 1 .617-2.825c2.774 6.263 14.581 10.967 28.728 10.967a60.649 60.649 0 0 0 8.177-.546v8.644a60.655 60.655 0 0 1-8.177.544c-16.207.001-29.345-6.174-29.345-13.792zm0-15.4v-2.991c0-7.617 13.138-13.792 29.345-13.792a60.823 60.823 0 0 1 8.177.543v29.489a60.659 60.659 0 0 1-8.177.543c-16.207.003-29.345-6.171-29.345-13.789z" transform="translate(-391 -601)"/></svg>