<svg xmlns="http://www.w3.org/2000/svg" viewBox="0 0 119.969 137.031">
  <defs>
    <style>
      .cls-1 {
        fill-rule: evenodd;
      }
    </style>
  </defs>
  <path class="cls-1" d="M678.773,490.025H563.2a2.14,2.14,0,0,1-2.124-2.5l3.273-17.688a18.5,18.5,0,0,1,10.191-13.223l20.008-9.657,4.105-2.049-6.6,18.64,9.042-.672,19.923,23.975,19.923-23.975,9.042,0.672-6.459-18.64c1.149,0.617,2.3,1.263,3.474,1.824l20.5,9.882a18.5,18.5,0,0,1,10.19,13.223l3.273,17.688A2.151,2.151,0,0,1,678.773,490.025Zm-74.035-55.559c-21.415.2-27.73-8.787-27.73-8.787s12.229-.2,11.482-31.781c-0.746-31.613,14.153-36.807,19.693-38.883,16.162-6.037,24.286,3.537,24.286,3.537,18.746-1.684,23.913,18.333,21.616,41.13-2.3,22.824,10.507,26.361,10.507,26.361-8.813,8.788-27.358,8.227-27.358,8.227v5.755l0.029,0.421-16.248,46.407-16.277-46.492v-5.895Z" transform="translate(-561.031 -353)"/>
</svg>
