<svg xmlns="http://www.w3.org/2000/svg" viewBox="0 0 309 208"><defs><style>.cls-1 { fill: #314f95;fill-rule: evenodd; }</style></defs><path class="cls-1" d="M1870.99 1200.55c-1.2 2.3-2.07 4.87-3.68 6.84-4.56 5.56-10.52 8.68-17.82 7.93-6.59-.68-7.62-.09-7.64 6.51-.05 12.48-.03 24.97-.03 37.46 0 4.33.01 4.33-4.2 4.32h-16.67v-3.01c-.01-26.65.06-53.3-.12-79.94a10.729 10.729 0 0 1 4.41-9.2c6.25-4.89 13.06-7.95 21.32-6.92 4.9.61 9.65 1.3 14.25 3.34 6.05 2.69 8.85 7.39 9.72 13.63.2 1.41.31 2.82.46 4.24v14.8zm-308.99-14.8c.47-2.81.73-5.67 1.47-8.4a13.523 13.523 0 0 1 7.65-8.92c8.23-3.93 16.85-5.29 25.65-2.98a25.223 25.223 0 0 1 13.58 8.78 7.926 7.926 0 0 1 1.66 4.52q.12 41.64.03 83.28c0 .39-.07.78-.16 1.7-2.08 0-4.18.01-6.28 0-4.12-.03-8.25-.16-12.36-.07-1.77.04-2.1-.64-2.1-2.22.06-12.09.03-24.18.03-36.27 0-1.2 0-2.39-.02-3.58-.11-6.29-1.02-7.09-7.17-6.27-8.51 1.13-17.43-4.16-20.75-12.27-.35-.86-.82-1.67-1.23-2.5v-14.8zm89.03-122.75c3.88.97 7.2 2.98 10.56 5.13 5.49 3.52 7.89 11.87 5.86 18.1a55.97 55.97 0 0 1-8.07 15.22c-2.98 4.2-7.21 4.36-10.96 3.43a3.7 3.7 0 0 1-2.02-1.48 43.181 43.181 0 0 1-6.51-17.74c-.38-2.86 1.51-5.12 4.14-6.1a6.052 6.052 0 0 0 2.89-2.59 2.973 2.973 0 0 1 4.15-1.54c1.74.65 3.41 1.47 5.39 2.33-2.8-4.3-7.74-4.6-10.55-.98a3.5 3.5 0 0 1-1.75 1.49 4.682 4.682 0 0 0-4.54 3.83c-2.21-3.07-2.13-5.39-.08-7.96a10.836 10.836 0 0 0 1.87-3.26c1.24-3.75 3.29-6.67 7.24-7.88h2.38zm28.3 81.82c-.73-8.8 2.1-18.39-2.3-27.8 1.09 0 1.91.01 2.74 0 11.03-.04 22.05-.06 33.07-.19 1.45-.01 1.86.51 2.22 1.77 1.59 5.55 2.97 11.21 5.09 16.56 1.47 3.72 4.03 7 6.13 10.47a3.161 3.161 0 0 0 3.08 1.56 20.182 20.182 0 0 0 13.06-4.01c3.94-2.88 8.71-4.62 13.73-7.18-.35 6.41-.73 12.32-.97 18.24-.19 4.52-.24 9.05-.25 13.58a85.4 85.4 0 0 0 .3 10 11.8 11.8 0 0 0 2.08 4.87c1.02 1.52 1 2.32-.88 2.57-5.26.72-10.57 1.14-15.77 2.16-3.52.69-6.87 2.23-10.31 3.35a14.878 14.878 0 0 1-4.27 1.14c-9.75.1-19.5.08-29.25.02a3.523 3.523 0 0 1-2.46-.87c-2.67-3.27-5.18-6.68-7.7-9.98a7.462 7.462 0 0 0 4.67-5.88c1.34-7.5 2.49-15.03 3.38-22.59.45-3.87-3.11-7.52-7.38-7.9a74.7 74.7 0 0 0-8.01.11zm-28.58 39.67c.48.67 1 1.3 1.43 2 2.77 4.45 5.69 8.81 8.15 13.43a9.993 9.993 0 0 1 .57 5.69c-.59 4.16-1.51 8.28-2.41 12.39-1.23 5.64-2.91 11.2-3.76 16.89-.95 6.43-1.26 12.96-1.71 19.45a6.027 6.027 0 0 1-6.49 5.24 15.15 15.15 0 0 1-1.64-.27c-7.37-1.35-7.05-1.43-7.2-7.74-.32-13.43-.51-26.87-.75-40.31a5.88 5.88 0 0 1 .07-.71c.15-1.32.9-3.32.34-3.82a12.951 12.951 0 0 0-5.38-2.75 12.019 12.019 0 0 1-8.5-6.62 33.705 33.705 0 0 1-3.25-16.2 2.831 2.831 0 0 1 2-3c2.62-1.13 5.3-1.28 8.03-1.73 3.99-.66 7.82-2.3 11.75-3.41 8.3-2.34 16.68-4.28 25.03-.5a18.725 18.725 0 0 1 6.34 4.19 17.723 17.723 0 0 0 7.25 4.2c6.68 2.25 10.31 7.39 13.18 13.25a9.6 9.6 0 0 1 .43 4.91c-.83 8.55-1.67 17.11-2.75 25.63a127.742 127.742 0 0 1-2.49 13.11 54.438 54.438 0 0 0-1.78 15.77 3.185 3.185 0 0 1-1.62 2.47c-4.42 1.84-8.71.7-12.85-1.12a2.416 2.416 0 0 1-.71-2.2c1.03-3.34.12-6.52-.22-9.81-.61-6-.3-12.1-1.02-18.08a98.118 98.118 0 0 1-.59-21.86 1.462 1.462 0 0 0-.22-1.11c-2.05-1.31-4.02-2.92-6.27-3.71-2.36-.83-4.2-1.73-5.46-4.08a86.829 86.829 0 0 0-5.39-8.14 18.93 18.93 0 0 0-1.65-1.83l-.46.38zm137.96-26.04c4.74-1.05 9.09-2.24 13.51-2.91 2.94-.45 3.68-3.22 2.99-6.26a82.594 82.594 0 0 0-4.03-12.17c.79 3.48 1.05 7.19 2.5 10.37 1.71 3.75.53 6.58-4.41 6.94a25.984 25.984 0 0 0-6.4 1.41c-2.14.74-3.95 1.03-5.48-1.06a3.6 3.6 0 0 0-1.54-.97c-1.64-.7-3.38-1.17-4.93-2.02-1.43-.79-2.47-.83-3.48.54-1.17 1.59-2.7 1.36-3.46-.09-2.24-4.24-5.83-5.02-10.07-4.57-1.88.2-3.75.39-6.28.66v-15.69l-.84-.34c-1.43.74-2.91 1.41-4.29 2.23-5.21 3.05-10.24 6.42-15.63 9.1-2.48 1.24-5.6 1.31-8.46 1.54-.79.07-2.02-1.01-2.49-1.87-4.62-8.37-8.6-16.99-10.09-26.58-.5-3.25-.55-2.96 2.62-3.65 2.81-.62 4.74-1.34 5.85 2.6.8 2.83 3.22 5.21 4.94 7.78a2.436 2.436 0 0 0 .97.99c3.02 1.03 3.84 3.37 3.88 6.24a4.292 4.292 0 0 0 .1.94 1.708 1.708 0 0 0 .45.52 4.475 4.475 0 0 0 .39-1.81c-.89-2.79.97-4.01 2.83-5.24q9.03-5.97 18.07-11.92a52.164 52.164 0 0 1 4.73-3.12c1.96-1.01 2.5-.56 2.78 1.55a16.477 16.477 0 0 0 1 2.97c.92-.49 2.12-.76 2.72-1.51 1.58-1.94 2.86-1.52 4.24.1a1.288 1.288 0 0 0 .17.16c2.99 2.91 2.98 2.9 5.68-.39 1.1-1.34 2.22-2.67 3.61-4.33l5.17 4.96c1.87-.81 1.25-2.23 1.04-3.51-.4-2.42-.16-2.57 2.18-2.33 3.47.37 6.94.64 10.42.75a5.516 5.516 0 0 1 5.17 3.09c5.41 9.91 11.13 19.72 13.39 30.95 1.42 7.09 2.25 14.29 3.25 21.46.31 2.23-2.78 5.36-5.32 5.4-6.01.07-12.03.23-18.03-.05a38.766 38.766 0 0 1-8.75-1.89c-.53-.15-.97-1.57-.99-2.41-.03-2.21.2-4.42.32-6.56zm-3.78 23.83c1.62.24 3.26.44 4.87.73a31.1 31.1 0 0 1 11.45 4.97c2.67 1.73 5.83 2.73 8.8 3.99 1.64.7 4.06.86 3.98 3.09a8.243 8.243 0 0 1-2.13 4.97 26.69 26.69 0 0 1-21.47 8.77 16.242 16.242 0 0 0-7.05 1.66 12.507 12.507 0 0 1-7.04 1.42 4.355 4.355 0 0 0-1.79.74 5.428 5.428 0 0 0 1.02 1.43 5.625 5.625 0 0 1 2.64 5.25 11.525 11.525 0 0 0 1.46 6.33q6.375 12.12 12.35 24.44a33.878 33.878 0 0 1 2.12 7.3 2.078 2.078 0 0 1-1.06 1.66c-4.56 1.92-9.33 1.53-14.07 1.02a3.151 3.151 0 0 1-1.71-1.45c-3.78-5.69-7.77-11.26-11.17-17.17q-7.17-12.5-13.57-25.41c-2.75-5.53-1.39-10.85 1.84-15.98 4.49-7.11 9.84-13.09 18.13-15.63a77.746 77.746 0 0 1 7.65-1.5c.72-.14 1.42-.41 2.13-.62l-.09-.65h-7.62c0-3.13-.05-5.88.02-8.63a1.476 1.476 0 0 1 2.06-1.56 25.862 25.862 0 0 0 4.41.8 7.069 7.069 0 0 0 3.81-.56c3.09-1.91 6.01-1.94 9.5-.99 2.69.73 5.75.05 8.65-.01 2.05-.05 4.1-.19 6.15-.13a2.105 2.105 0 0 1 1.33 1.03c1.32 2.16 2.29 4.21 1.52 7.08-.61 2.25.03 4.88.37 7.31.44 3.23.13 3.8-3.08 3.37a15.147 15.147 0 0 1-4.63-1.67c-4.23-2.12-8.01-5.25-12.86-5.94-2.27-.32-4.59-.31-6.89-.45zm-188.82-82.61q7.125 1.17 14.26 2.32a5.186 5.186 0 0 0 1.86.16c3.93-.88 7.8-2.1 11.77-2.7 4.32-.67 8.72-.78 13.07-1.14.31 6.1 1.01 11.31 5.83 15.77.37-2.28.62-3.89.78-4.84a48.5 48.5 0 0 1 2.92 7.04 19.841 19.841 0 0 1 .25 6.62c-.81 8.47-2.06 16.9-2.62 25.38-.43 6.57-.16 13.19.02 19.79.05 1.76-.42 2.83-2 3.23-4.34 1.1-8.4 3.17-13.09 3.06-2.69-.07-5.41.76-8.52 1.26.36-1.45.6-2.51.88-3.55.57-2.11.97-4.19-.43-6.18a1.89 1.89 0 0 1-.32-1.37c1.16-4.68-1.88-8.57-2.36-12.92a35.445 35.445 0 0 1-.26-5.91c.39-7.27.86-14.55 1.37-21.81a27.594 27.594 0 0 0 .23-5.7c-.22.78-.45 1.56-.65 2.34-.74 2.94-1.68 3.34-4.6 2.23a103.368 103.368 0 0 0-10.73-3.76 16.9 16.9 0 0 0-6.76-.19c-4.71.79-11.7-2.46-13.56-6.88-1.77-4.2-3.95-8.35-3.33-13.31 4.54 1.46 8.19-.47 11.92-3.2 2.41 6.91 8.68 10.25 13.21 15.21l.63-.6q-5.07-4.875-10.12-9.74l.35-.61zm133.05 158.43a107.121 107.121 0 0 0-10.25 4.73 12.471 12.471 0 0 1-6.26 1.62 14.5 14.5 0 0 1-8.11-1.96c-4.39-2.56-9.02-4.65-14.18-5.17a6.334 6.334 0 0 1-1.43-.45c1.36-10.38 2.71-20.63 4.03-30.88q.885-6.855 1.64-13.71c.16-1.36.74-1.85 2.15-1.85 7.2-.01 14.41-.1 21.62-.2 1.75-.02 2.71.32 2.69 2.5a35.5 35.5 0 0 0 1.03 6.56c2.34 12.87 4.68 25.74 7.07 38.81zm49.72-43.18c1.87-.96 3.46-1.94 5.17-2.62 1.87-.75 3.85-1.68 5.8-1.73 8.88-.19 17.76-.09 26.64-.09a8.605 8.605 0 0 1 1.24.22v53.5a11.707 11.707 0 0 1-1.61.19c-5.55.02-11.1-.04-16.65.04-1.47.02-2.11-.39-2.36-1.9-.52-3.18-1.13-6.36-1.91-9.49a22.412 22.412 0 0 0-2.01-5.33c-4.19-7.56-8.63-14.99-12.67-22.63-1.01-1.91-.92-4.42-1.28-6.66-.2-1.25-.26-2.51-.36-3.5zm-117.88-97.9c1.24-2.36 2.55-4.5 3.51-6.79.76-1.83 1.66-1.79 3.05-.85 1.81 1.24 3.68 2.38 5.48 3.63a3.058 3.058 0 0 1 1.23 1.4c1.5 5.22 3.33 10.4 4.2 15.73.51 3.16-.95 6.61-.8 9.89a41.976 41.976 0 0 1-1.65 12.2 4.47 4.47 0 0 1-1.91 2.37c-2.56 1.58-5.05 3.15-6.29 6.67 2.42-1.81 4.44-3.33 6.81-5.11a12.526 12.526 0 0 1 .23 1.79c-.19 3.55-.34 7.11-.66 10.64a15.162 15.162 0 0 1-1.04 3.25c-.88-.47-1.78-.9-2.62-1.42-1.37-.87-2.76-1.74-4.04-2.73a2.115 2.115 0 0 1-.67-1.55c.09-2.27.37-4.54.47-6.81.09-2.03-.12-4.09.09-6.11.54-5.36 1.25-10.71 1.87-16.07a3.324 3.324 0 0 0-.52-2.32c-.28 1.93-.61 3.85-.84 5.78q-1.545 12.9-3.02 25.82c-.32 2.81-.95 3.67-3.73 3.37-3.95-.42-7.81-1.07-11.74.27-.81.28-1.95-.4-3.4-.76 0-6.13-.39-12.42.1-18.63.71-9.11 2.02-18.17 3.19-27.23a13 13 0 0 1 1.55-4.47c2.52-4.55 6.48-5.37 11.15-1.96zm84.19 90.36c.18 2.6.56 5.52.55 8.43-.02 3.69-.42 7.37-.55 11.06a113.89 113.89 0 0 0 2.68 28.4c.38 1.72-.05 2.61-1.84 2.71-4.09.25-8.19.53-12.29.72-1.55.07-2.39-.73-2.73-2.35-2.25-10.81-4.86-21.55-6.77-32.42-1.12-6.31-1.21-12.81-1.64-19.23-.23-3.33 1.04-5.96 3.44-8.48a25.684 25.684 0 0 1 17.12-8.25c6.15-.51 12.3-.86 19.15-1.33-.61 1.27-.84 2.35-1.49 3-4.57 4.53-9.18 9-12.23 14.82-.6 1.14-2.08 1.82-3.4 2.92zm-130.02 3.09c6.51 0 12.59-.03 18.68.08a2.373 2.373 0 0 1 1.14 1.78c.09 4.06-.06 8.12.04 12.17q.345 14.055.86 28.12a8.85 8.85 0 0 0 2.64 6.63c.98.93.75 3.14 1.1 4.99h-24.46v-53.77zm151.53-104.61c3.74-.44 7.38-.78 8.8-5.23-2.94 4.1-7.1 3.67-11.29 3.38a4.9 4.9 0 0 1-4.48-3.31 34.344 34.344 0 0 1-3.08-14.1c0-1.71-.76-3.44-1.23-5.15-.57-2.05-1.33-4.05-1.76-6.13a3.973 3.973 0 0 1 .43-2.98 59.041 59.041 0 0 1 6.32-6.03c2.68-2.19 5.62-1.37 8.54-.35a5.545 5.545 0 0 0 2.79.26c7.64-1.49 13.45 7.89 12.18 14.04-.3 1.47.21 3.09.08 4.62-.14 1.83.04 4.17-.99 5.34-2.67 3-3.26 6.07-2.49 9.89.83 4.07-1.16 6.82-5.24 7.38-2.92.39-5.92.23-8.58-1.63zm8.73 154.11c-.66.5-1.49 1.09-2.3 1.71a11.42 11.42 0 0 1-8.26 2.79c-4.1-.3-8.24-.11-12.36-.04-1.34.02-2.02-.32-2.17-1.77-.71-6.77-1.5-13.53-2.25-20.3-.27-2.52-.68-5.05-.73-7.58-.14-7.44-.15-14.88-.11-22.31.01-.67.81-1.34 1.25-2a20.556 20.556 0 0 1 1.4 1.96c.22.39.08.98.28 1.39 3.95 8.28 6.41 17.28 12.08 24.75 1.56 2.06 2.57 4.55 3.94 6.77 3.01 4.85 6.08 9.64 9.23 14.63zm-106.79-49.51c0 3.78-.15 7.26.03 10.72.58 10.95 1.26 21.89 1.98 32.82a6.947 6.947 0 0 0 2.35 4.96c.87.82.23 3.28.27 5-1.33-.07-2.86.27-3.94-.28-2.75-1.38-5.22-3.31-7.95-4.73a66.617 66.617 0 0 0-6.94-2.67c.31-4.54.22-9.5 1.09-14.29 1.82-10.08 4.13-20.07 6.32-30.08a2.166 2.166 0 0 1 1.46-1.38 47.264 47.264 0 0 1 5.33-.07zm-49.44-18.77c-1.13.06-2.37.13-3.97.22 0-3.95-.14-7.75.04-11.53.24-5.34-2.03-9.37-6.05-12.54a42.79 42.79 0 0 0-5.37-3.52 2.381 2.381 0 0 1-1.4-2.86c2.01-12.03 4.83-23.82 9.81-35a5.435 5.435 0 0 1 .46-.69c1.34.15 2.73.31 4.38.51 0 1.61-.02 3.25.01 4.89.16 8.8-.09 17.64.67 26.39.43 5.01 1.84 9.96 1.65 15.08-.08 2.3-.2 4.59-.22 6.89-.04 3.96-.01 7.92-.01 12.16zm-42.33-102.46c-2.26-.73-3.97-1.35-5.72-1.83-3.15-.86-3.65-1.57-3.2-5.05q5.385.9 10.77 1.79l.31-.61c-2.13-2.69-4.25-5.39-6.38-8.07a7.3 7.3 0 0 1-1.33-1.66 8.093 8.093 0 0 1-.15-2.27c.76.1 1.74-.07 2.23.34 2.36 2 4.55 4.19 6.87 6.24a8.211 8.211 0 0 0 1.95.95 9.031 9.031 0 0 0 .33-2.21c-.19-1.89-.53-3.77-.82-5.66a8.508 8.508 0 0 1-.42-2.8 14.356 14.356 0 0 1 1.45-3.18c.72.84 1.79 1.57 2.11 2.54a26.118 26.118 0 0 1 1.27 6.29c.22 3.36.69 6.43 4.79 8.13 1.67-1.16 3.73-2.71 5.9-4.08 1.36-.86 2.79-2.89 4.52-1.21 1.78 1.74-.31 3.24-1.18 4.51-2.36 3.43-5.51 6.42-7.32 10.09a11.205 11.205 0 0 1-6.66 5.9 9.3 9.3 0 0 1-8.04-.6 5.267 5.267 0 0 0-5.08-.36 6.352 6.352 0 0 1-1.83.48 4.427 4.427 0 0 1-1.41-.38 3.54 3.54 0 0 1 .56-1.38c1.63-1.38 3.35-2.63 4.99-4a13.751 13.751 0 0 0 1.49-1.91zm233.78 27.81a42.835 42.835 0 0 1 5.31.08 2.79 2.79 0 0 1 1.76 1.58c5.74 13.82 10.83 27.83 12.83 42.78a2.521 2.521 0 0 1-1.43 2.86 53.214 53.214 0 0 0-6.78 4.81 13.167 13.167 0 0 0-4.6 10.79c.11 3.94.02 7.9.02 12.05l-3.32-.31c-.37-6.61-.73-13.06-1.11-19.69-.2.04.09-.06.38-.06 5.47-.1 9.5-3.77 8.98-9.23-.71-7.5-2.14-14.93-3.4-22.36-1.27-7.46-4.4-14.23-7.95-20.83-.3-.56-.54-1.15-.78-1.73a2.351 2.351 0 0 1 .09-.74zm-117.98 31.62a7.453 7.453 0 0 1 .64 2.27 120.965 120.965 0 0 1-2.98 23.36c-1.36 5.48-4.58 6.34-9.04 4.79-.29-.1-.6-.21-.89-.32-5.09-1.89-5.59-2.24-4.94-7.53.91-7.38 2.29-14.71 3.51-22.06a5.654 5.654 0 0 1 1.17-2.32c-.82 2.72.88 3.6 2.77 4.12a31.2 31.2 0 0 0 5.81 1.11c3.05.25 3.62-.39 3.95-3.42zm-14.68 24.93l1.24.13 1.53-18.72c2.96.52 5.43.95 8.31 1.45-1.2 6.4-2.38 12.74-3.57 19.08l.67.16a13.906 13.906 0 0 0 1.01-2.53c.96-4.92 1.83-9.84 2.75-14.76.13-.69.16-1.79.56-1.96 1.97-.86 1.33-2.39 1.34-3.84-4.35.29-8.62.79-12.41-1.87-.49 7.77-.96 15.31-1.43 22.86zm93.46-22.75c.44 1.44 1.25 2.89 1.26 4.34.06 7.4-.08 14.8-.19 22.19-.05 3.89-2 5.81-5.86 5.88-1.11.01-2.22.03-3.33 0-3.78-.11-5.93-1.77-6.09-5.54-.36-8.1-.4-16.22-.5-24.33a6.272 6.272 0 0 1 .85-2.16c-.73 2.32.73 3.45 2.54 3.53a59.111 59.111 0 0 0 8.81-.52c1.89-.2 2.98-1.29 2.51-3.39zm-3.41 29.23l.62.09a5.939 5.939 0 0 0 .45-1.59c.04-3.1.16-6.21-.06-9.29-.16-2.27-.95-4.55 1.88-5.76a.314.314 0 0 0-.04-.18c-2.21.45-4.4 1.29-6.58 1.25-2.22-.05-4.41-.95-6.67-1.49a2.743 2.743 0 0 0 .78 1.1c1.88.88 1.84 2.35 1.73 4.14a78.2 78.2 0 0 0 .08 8.1 32.471 32.471 0 0 0 .52 3.52l.58-.07v-14.05h6.71v14.23zm-6.82-23.92c-.82 4.27-.79 4.31 3.25 4.2 1.02-.02 2.04 0 3.25 0v-4.2h-6.5zm10.22-1.3c-4.44.67-1.6 3.83-2.94 5.52 1.19.4 2.1.71 3.35 1.14-.14-2.41-.27-4.42-.41-6.66zm-11.55 5.34a23.157 23.157 0 0 0 .1-3.75 2.593 2.593 0 0 0-1.31-1.33 1.663 1.663 0 0 0-1.01.9c-.1 1.81-.05 3.63-.05 5.56l2.27-1.38zm-35.88 35.24c-1.03 3.7-1.96 7.26-3.06 10.77a2.131 2.131 0 0 1-1.67.92c-7.74.06-15.49.04-23.36.04v-11.73h28.09zm-48.46 63.37c5.03 0 9.11.14 13.18-.05a15.964 15.964 0 0 1 7.79 1.47c3.21 1.54 6.37 3.2 9.61 4.67 1.86.84 1.6 2.32 1.13 3.6a2.848 2.848 0 0 1-2.21 1.3c-9.11.09-18.23-.01-27.34.1-1.87.02-2.77-.71-2.73-2.37.08-3.11.39-6.21.57-8.72zm73.41.28c.08 3.48.21 6.51.19 9.55-.01 1.37-.75 2.05-2.29 2.04-9.34-.06-18.69 0-28.03-.09a2.461 2.461 0 0 1-1.89-1.39c-.06-1.1.14-2.86.85-3.26 3.51-1.98 7.2-3.63 10.86-5.33a4.508 4.508 0 0 1 2.51-.5 38.434 38.434 0 0 0 17.8-1.02zm46.08 1.44a17.759 17.759 0 0 1-.17 9.37c-.14.48-1.36.92-2.09.93-5.79.07-11.58.03-17.37.05l-7.13.1c-1.14 0-2.77.32-2.72-1.4.04-1.18.65-2.96 1.52-3.38a66.573 66.573 0 0 1 10.82-4.21c1.89-.53 4.1.32 6.13.13 3.59-.35 7.15-1.01 11.01-1.59zm-153.6-.21a24.713 24.713 0 0 0 13.34-.31 3.727 3.727 0 0 1 2.29.22c3.09 1.21 6.18 2.41 9.19 3.81a3.349 3.349 0 0 1 1.56 4.85 2.139 2.139 0 0 1-1.6.96c-7.51.03-15.02-.05-22.53-.01-1.4 0-2.17-.55-2.22-1.84-.09-2.5-.03-5.01-.03-7.68zm75.84-148.23c-2.68 0-3.1-.48-3.23-3.16a21.549 21.549 0 0 0-.58-3.74c-.43-1.93-.98-3.85-1.46-5.77-1.39-5.63.73-9.31 7.8-8.05 2.16.39 4.05.51 4.31 2.78.21 1.73-.47 3.61-.91 5.38-.61 2.47-2.11 4.61-1.4 7.5.95 3.9-.31 5.07-4.53 5.06zm69.95 49.83c0 1.11.01 2.22 0 3.33a4.5 4.5 0 0 1-4.69 4.72c-1.1.02-2.21.04-3.32.02-2.35-.05-3.36-1.08-3.62-3.38a33.4 33.4 0 0 0-.87-4.65 7.093 7.093 0 0 1 3.22-8.28 3.374 3.374 0 0 1 2.29-.09c1.13.3 2.18.93 3.29 1.33 3.65 1.31 3.66 1.3 3.66 5.33v1.67h.04zm-153.42 45.04c-4.49 0-8.33.03-12.16-.01-2.12-.03-5.01.61-6.15-.5-1.12-1.09-.5-4.01-.57-6.13-.06-1.64-.01-3.29-.01-4.99 1.78 0 3.28-.09 4.76.04a1.9 1.9 0 0 1 1.35 1.02c1.78 5.79 5.74 8.96 11.6 9.92a6.859 6.859 0 0 1 1.18.65zm12.17-101.13c4.35.98 8.37 1.55 12.58-1.13-1.27 4.17-2.12 7.95-6.17 10.14-1.69.92-2.87 2.81-3.97 3.94-.79-1.68-1.87-3.61-2.64-5.66a9.85 9.85 0 0 1 .2-7.29zm100.16 12.2c-3.85 2.24-7.7 4.49-11.57 6.71a1.215 1.215 0 0 1-1.08.04c-2.65-2.17-5.58-4.11-6.99-7.71h19.21l.43.96zm60.39 88.91c2.9-2.77 5.52-5.15 7.99-7.69a19.213 19.213 0 0 0 1.94-3.16 5.2 5.2 0 0 1 .94-.86 2.774 2.774 0 0 1 .66 1.05c.04 3.08.07 6.17-.05 9.25a1.8 1.8 0 0 1-1.15 1.35c-3.36.11-6.72.06-10.33.06zm-162.05-103.24c-.89 2.89-1.67 5.41-2.43 7.87-3.39-1.79-4.88-11.55-1.95-15.85 1.6 2.9 3.13 5.7 4.38 7.98zm16.14 11.55l-3.73-2.03 3.81-10.92c4.35 3.36 4.35 7.77-.08 12.95zm118.88-6.88c-1.66 2.05-3.18 3.91-4.97 6.11-1.32-1.47-2.47-2.63-3.42-3.93a2.021 2.021 0 0 1 .87-1.57c2.28-.31 4.59-.4 7.52-.61zm-116.7 98.27c.2-4.42.48-4.82 2.99-4.57 2.04.21 2.85 1.42 2.46 3.68-.25 1.39-1.69 1.64-5.45.89zm119.34-102.76c2.35 2.18 4.13 4.52 4.48 8.47-2.3-2.16-4.17-3.91-6.23-5.84.52-.79 1.11-1.68 1.75-2.63zm-12.96 5.07c-1.68 1.59-2.99 2.82-4.29 4.06l-.65-.28c.24-1.76.49-3.51.77-5.58 1.45.63 2.48 1.07 4.17 1.8zm2.35 41.99c-4.66-1.89-9.27-1.5-13.87.22.43-.48.84-1.35 1.3-1.38 3.48-.23 6.98-.38 10.47-.33.71.01 1.4.97 2.1 1.49z" transform="translate(-1562 -1063)"/></svg>