<svg xmlns="http://www.w3.org/2000/svg" viewBox="0 0 81 49"><defs><style>.cls-1 { fill: #659a19; fill-rule: evenodd; }</style></defs><path class="cls-1" d="M464.947 360.4h-4.609c-.226 0-.223-.281-.223-.424a9.275 9.275 0 0 0-18.548 0 .341.341 0 0 1-.348.424h-18.281a.326.326 0 0 1-.351-.424 9.275 9.275 0 0 0-18.548 0c0 .142-.076.424-.59.424h-2.265a4.087 4.087 0 0 1-4.1-4.047v-8.7c0-1.253 1.594-1.224 1.594-1.224h14.16a3.606 3.606 0 0 0 3.626-3.579v-1.07a3.606 3.606 0 0 0-3.626-3.578h-14.388s-1.367 0-1.367-.984v-1.238a.957.957 0 0 1 1.05-1.032h21.373a3.607 3.607 0 0 0 3.626-3.579v-1.069a3.607 3.607 0 0 0-3.626-3.578h-21.373a1.043 1.043 0 0 1-1.05-1.071v-3.6c0-2.226 1.846-4.047 5.733-4.047h38.193a3.732 3.732 0 0 1 3.991 4.043v5.743a.6.6 0 0 0 .631.613h4.686a7.347 7.347 0 0 1 5.915 3.552l3.427 6.847c1.025 1.954 2.518 2.375 5.127 3.044 2.166.554 4.214.554 4.214 6.954v7.6a4.038 4.038 0 0 1-4.053 4zm-7.347-19.3a4.813 4.813 0 0 1-.413-.658l-3.049-6.093a6.536 6.536 0 0 0-5.263-3.16h-3.292c-.612 0-.585.364-.585.364v9.484a.538.538 0 0 0 .54.458h11.535c.455-.005.637-.257.527-.395zm-36.283-10.8v1.074a1.806 1.806 0 0 1-1.813 1.789h-25.017a1.806 1.806 0 0 1-1.813-1.789v-1.074a1.806 1.806 0 0 1 1.813-1.789h25.019a1.806 1.806 0 0 1 1.813 1.789zm-6.667 11.48v1.074a1.807 1.807 0 0 1-1.813 1.79h-23.024a1.807 1.807 0 0 1-1.813-1.79v-1.074a1.806 1.806 0 0 1 1.813-1.789h23.024a1.806 1.806 0 0 1 1.813 1.789zm-1.338 11.172a7.025 7.025 0 1 1-7.116 7.024 7.069 7.069 0 0 1 7.116-7.024zm0 10.078a3.054 3.054 0 1 0-3.093-3.054 3.074 3.074 0 0 0 3.093 3.054zm37.529-10.078a7.025 7.025 0 1 1-7.117 7.024 7.069 7.069 0 0 1 7.117-7.024zm0 10.078a3.054 3.054 0 1 0-3.094-3.054 3.075 3.075 0 0 0 3.094 3.054z" transform="translate(-388 -318)"/></svg>