<svg xmlns="http://www.w3.org/2000/svg" viewBox="0 0 23 22">
  <defs>
    <style>
      .cls-1 {
        fill: #659a19;
        fill-rule: evenodd;
      }
    </style>
  </defs>
  <path class="cls-1" d="M413.579,220.882a1.24,1.24,0,0,1-.452.268,1.315,1.315,0,0,1-.419.07h-7.7a1.29,1.29,0,0,1-1.291-1.287v-2.865a1.289,1.289,0,0,1,1.291-1.286h7.7a1.315,1.315,0,0,1,.419.069,1.292,1.292,0,0,1,.873,1.217v2.865A1.279,1.279,0,0,1,413.579,220.882Zm-5.873-2.553a0.645,0.645,0,0,0-.646-0.643h-0.429a0.654,0.654,0,0,0-.4.139,0.631,0.631,0,0,0-.248.5v0.428a0.645,0.645,0,0,0,.646.643h0.429a0.645,0.645,0,0,0,.646-0.643v-0.428Zm4.292-3.44h-6.991a2.245,2.245,0,0,0-.261.015,2.19,2.19,0,0,0-1.932,2.17v2.861a2.193,2.193,0,0,0,2.195,2.188h7.663v3.59A1.29,1.29,0,0,1,411.381,227h-19.09A1.29,1.29,0,0,1,391,225.713V211.376a1.343,1.343,0,0,1,.046-0.337,1.293,1.293,0,0,1,1.248-.95h19.089a1.285,1.285,0,0,1,1.289,1.287v3.513H412Zm-12.681-5.7L405.9,207.4l2.154-.586a1.286,1.286,0,0,1,1.586.9l0.4,1.472H399.317Zm-4.2,0,8.209-4.053a1.294,1.294,0,0,1,1.73.581l0.486,0.978-9.169,2.494h-1.256Z" transform="translate(-391 -205)"/>
</svg>
