<svg xmlns="http://www.w3.org/2000/svg" viewBox="0 0 105 147">
  <defs>
    <style>
      .cls-1 {
        fill: #659a19;
        fill-rule: evenodd;
      }
    </style>
  </defs>
  <path class="cls-1" d="M1224.5,696c-28.95,0-52.5,24.276-52.5,54.116a54.265,54.265,0,0,0,4.59,22.09c13.13,29.606,38.29,60.864,45.69,69.739A2.908,2.908,0,0,0,1224.5,843a2.873,2.873,0,0,0,2.21-1.047c7.4-8.873,32.57-40.128,45.7-69.739a54.265,54.265,0,0,0,4.59-22.09C1276.99,720.279,1253.44,696,1224.5,696Zm0,82.224c-15.04,0-27.27-12.61-27.27-28.109s12.23-28.112,27.27-28.112,27.27,12.61,27.27,28.112S1239.53,778.227,1224.5,778.227Z" transform="translate(-1172 -696)"/>
</svg>
