<svg xmlns="http://www.w3.org/2000/svg" viewBox="0 0 165.969 139.063">
  <defs>
    <style>
      .cls-1 {
        fill: #659a19;
        fill-rule: evenodd;
      }
    </style>
  </defs>
  <path class="cls-1" d="M643.575,327.713q-14.793-10.784-14.794-20.828,0-13.244,15.528-36.1,5.667-8.117,5.665-9.614,0-2.131-5.245-5.767l-2.1-1.282q-6.718-5.127-8.813-5.127-3.148,0-14.583,11.536t-22.348,33.859q-10.912,22.327-10.911,42.192A60.649,60.649,0,0,0,597.1,372.148q11.12,15.916,28.957,15.915,14.055,0,23.187-9.4a31.079,31.079,0,0,0,9.127-22.431Q658.368,338.5,643.575,327.713Zm93.48,0q-14.9-10.784-14.9-20.828,0-13.244,15.737-36.1,5.666-8.117,5.666-9.614,0-2.131-5.246-5.767l-2.1-1.282q-6.717-5.127-8.813-5.127-7.347,0-27.592,29.48t-20.249,58.107a60.642,60.642,0,0,0,11.121,35.569q11.12,15.916,28.957,15.915,13.849,0,23.081-9.4a30.893,30.893,0,0,0,9.232-22.431Q751.952,338.5,737.055,327.713Z" transform="translate(-585.969 -249)"/>
</svg>
