<svg xmlns="http://www.w3.org/2000/svg" viewBox="0 0 219.151 219.151" enable-background="new 0 0 219.151 219.151"><g fill="#35260a"><path d="M109.576 219.151c60.419 0 109.573-49.156 109.573-109.576 0-60.419-49.154-109.575-109.573-109.575s-109.574 49.156-109.574 109.575c0 60.42 49.155 109.576 109.574 109.576zm0-204.151c52.148 0 94.573 42.426 94.574 94.575 0 52.149-42.425 94.575-94.574 94.576-52.148-.001-94.573-42.427-94.573-94.577 0-52.147 42.425-94.574 94.573-94.574zM94.861 156.507c2.929 2.928 7.678 2.927 10.606 0 2.93-2.93 2.93-7.678-.001-10.608l-28.82-28.819 83.457-.008c4.142-.001 7.499-3.358 7.499-7.502-.001-4.142-3.358-7.498-7.5-7.498l-83.46.008 28.827-28.825c2.929-2.929 2.929-7.679 0-10.607-1.465-1.464-3.384-2.197-5.304-2.197-1.919 0-3.838.733-5.303 2.196l-41.629 41.628c-1.407 1.406-2.197 3.313-2.197 5.303.001 1.99.791 3.896 2.198 5.305l41.627 41.624z"/></g></svg>