<svg xmlns="http://www.w3.org/2000/svg" viewBox="0 0 467.32 103.82"><defs><style>.cls-1{fill:#fff;fill-rule:evenodd;}</style></defs><title>1200</title><path class="cls-1" d="M69.18,6.28,40.33,42.46,6,44.75,9.18,96l84.73,3.66,308.7,1.37,68.7,3.66V41.09l-98,.92-233.13.46-65.5.92Z" transform="translate(-4 -2)"/><path d="M471,75.89l0-35v-1.6l-1.58,0-15.13.4-15.12.47-30.25,1-15.12.49-288.27.56-15.12.56-15,.61L69.61,4.61,67.67,2l-29,40.92,1.64-2.74L5.76,42.35,4,42.46l.06,1.75,2.08,29.3L8.4,96.23l0,.87.85,0L32.6,98l23.31.94,23.31.94,23.3,1.05L399,102l23.3,1.23,46.59,2.49,1.49.08,0-1.52,0,1.33.65.17C471.12,94.93,470.9,86.75,471,75.89Zm-3.6,26.9,0-14.79.08,14.8Zm0-26.92c0,10.19-.08,17.13-.05,26.92l-45-1.5L399,100.49l-296.46-.88-23.31-1L56,97.56l-23.3-1.08L10.2,95.32,9,73.43,7.76,45.87l32.73-1.82,2.81-.16-1.17-2.58L69.42,7.23,75.2,43.79l15.22-.06,15.13-.12,288.28-.12L409,43.31l30.26-.39,15.13-.21,13.53-.25ZM423.49,53l-8,.37-7.95.41c-5.3.31-20.28-.21-25.58.16,5.31,0,20.3.76,25.61.74l8-.09,8-.12,15.91-.33c5-.1,10-.26,14.94-.4l.56,17.45,1.91-.06-.54-18.43,0-1-1,0c-5.3.18-10.61.35-15.91.57ZM15.85,88.81c-.23-3-.49-5.93-.74-8.9-.28-3.26-.55-6.52-.88-9.78,0,3.27.14,6.55.24,9.82s.18,6.54.31,9.81l.39,0v.36c3.86-.16,7.73-.31,11.59-.52s7.72-.37,11.59-.61c-3.87-.08-7.73-.1-11.6-.13C23.13,88.8,19.49,88.81,15.85,88.81Z" transform="translate(-4 -2)"/></svg>