<svg xmlns="http://www.w3.org/2000/svg" viewBox="0 0 150.03 216.031"><defs><style>.cls-1 { fill: #f39400;fill-rule: evenodd; }</style></defs><path class="cls-1" d="M1177.8 261.468a489.086 489.086 0 0 1 7.55-77.241l1.03-.13c1.38 6.932 6.02 11.9 10.12 17.531.71-.573 1.41-1.138 2.21-1.775 2.75 3.658 5.41 7.311 5.85 12.071a3.193 3.193 0 0 0 .43 1.774c3.08 3.257 1.63 6.8.32 10.008-1.22 2.979-3.29 5.605-4.91 8.434a2.136 2.136 0 0 0-.02 1.665c2.23 4.97 4.53 9.9 6.77 14.866.59 1.312 1 2.706 1.56 4.033a19.105 19.105 0 0 0 1.12 1.969c3.36-5.6 6.6-10.864 9.69-16.212a5.062 5.062 0 0 0-.01-5.588c-2.61-4.3-4.87-8.811-7.29-13.231a5.959 5.959 0 0 1-.01-5.349c.7-1.834.94-3.838 1.51-5.73a28.243 28.243 0 0 1 1.33-2.933c1.09-2.521 2.16-5.051 3.42-8 1.18 1.468 2.14 2.658 3.32 4.131 4.22-4.782 4.12-10.637 4.72-16.394l1.22-.068 1.15-.083c.56 4.044 1.11 7.986 1.63 11.932 2.25 16.968 4.55 33.928 6.64 50.914.35 2.8-.25 5.711-.42 8.571a1.627 1.627 0 0 0-.1.6c1.66 2.358-.03 2.523-1.76 2.8-1.44.228-1.28 1.409-1.21 2.448.13 2.165.29 4.328.47 6.873 7.12-.8 13.93-3.794 21.04-6.314-2.85 8.9-.73 17.858-1.68 26.618a139.9 139.9 0 0 1-3.17 17.054c-1.77 7.584-3.86 15.1-5.9 22.619-.8 2.923-4.52 5.333-7.49 5.172-2.48-.135-4.97-.216-7.45-.268a6.681 6.681 0 0 1-6.74-5.717c-1.6-8.037-3.17-16.081-4.95-24.079a84.818 84.818 0 0 0-2.91-9.258 4.407 4.407 0 0 1 .3-4.288 8.054 8.054 0 0 0 1.08-3.388c-1.46 3.679-4.47 4.39-7.87 4.931-4.39.7-5.43-2.6-6.94-5.525l-.53.4c.72 1.731 1.52 3.435 2.12 5.2a3.449 3.449 0 0 1 .01 2.265c-1.33 3.316-2.91 6.536-4.18 9.874-1.65 4.324-3.72 8.518-4.09 13.259-.29 3.637-.78 7.259-1.2 10.885a13.269 13.269 0 0 1-.45 2.837c-1.08 3.017-1.43 3.216-4.61 3.213h-7.25a7.876 7.876 0 0 1-7.57-5.646c-1.38-5.191-2.85-10.372-3.89-15.635-1.23-6.211-1.97-12.517-3.06-18.759-1.37-7.9-2.49-15.8-1.88-23.855.05-.546-.6-1.119-.81-1.718a18.274 18.274 0 0 1-.5-1.954 4.012 4.012 0 0 1 1.83-.144c5.7 2.845 11.97 3.12 18.07 4.193 1.77.312 2.41-.24 2.21-2.058a44.557 44.557 0 0 1-.16-5.171c.01-2.206-.43-2.667-2.62-2.623-1.63.026-3.25-.006-5.09-.006zm10.83 1.083c0 1.007.03 2.164-.01 3.318-.05 1.17-.17 2.338-.27 3.506-.24 2.974.01 3.41 3.03 3.48 3.45.08 6.9-.154 10.35-.161a20.416 20.416 0 0 1 3.82.419c.81.154 1.54.687 2.34.845 4.79.935 9.23-1.155 13.86-1.626 2.47-.252 4.96-.343 7.42-.656a2.186 2.186 0 0 0 1.58-1.141c-.06-3.243-.32-6.481-.52-9.751-3.24.376-6.38.777-9.52 1.074a6.188 6.188 0 0 1-2.12-.384 15.9 15.9 0 0 0-2.63-.822 39.982 39.982 0 0 0-5.17-.074c-2.65.116-5.61-.953-7.67 1.806a1.527 1.527 0 0 1-.99.16c-4.4.01-8.8.007-13.5.007zm22.16-75.012c-5.3-.586-9.36-.535-12.88-2.833a5.412 5.412 0 0 1-1.8-1.347c-2.33-3.938-5.52-7.388-6.39-12.164-.35-1.976-1.59-3.783-2.35-5.7-1.97-4.975-.49-9.445 2.2-13.661a24.855 24.855 0 0 1 2.61-2.913c.7-.79 1.27-.8 2.05-.006 2.38 2.425 2.38 2.359 5.08.422a15.124 15.124 0 0 1 12.12-2.836c3.09.587 6.16 1.086 8.92 2.773a3.326 3.326 0 0 0 4.23-.259 1.947 1.947 0 0 1 1.71.042c2.43 1.267 3.11 3.762 3.92 6.086 1.65 4.737 2.44 9.527-.06 14.24-1.45 2.72-3.19 5.289-4.52 8.061a17.146 17.146 0 0 1-8.85 8.283 37.84 37.84 0 0 1-5.99 1.812zm-76.1 28.494a35.918 35.918 0 0 1 2.67-3.6c9.34-9.758 20.67-16.9 32.03-23.972a20.177 20.177 0 0 1 2.46-1.044 22.254 22.254 0 0 1 .21 4.089 73.692 73.692 0 0 1-1.45 7.5c-1.93 7.9-3.94 15.771-5.91 23.655a8.907 8.907 0 0 1-3.83 5.669c-2.6 1.672-5.16 1.609-7.47-.31a91.783 91.783 0 0 0-17.86-11.534c-.18-.086-.37-.193-.85-.453zm105.88-46.509c.47-2.828 2.71-4.137 3.93-6.074 1.28-2.04 2.71-3.99 4.09-5.967s2.77-3.915 4.24-5.981c-2.38-1.813-4.09-3.771-4.5-6.629a10.075 10.075 0 0 1 6.8-10.6.634.634 0 0 1 .2-.06c1.6.225 3.3.893 4.77.56 1.4-.316 2.45-1.978 3.85-2.511 2.18-.827 4.16.326 5.26 2.415a2.276 2.276 0 0 0 1.48 1c5.53.895 6.68 3.436 3.62 8.283a2.592 2.592 0 0 0-.27 2.8c1.66 3.831.91 7.612-1.08 11.075-1.51 2.62-3.99 3.188-7.7 2.05a5.16 5.16 0 0 0-3.95.053 6.056 6.056 0 0 1-3.23.516c-2.73-.421-4.74.742-6.81 2.268-2.99 2.207-6.15 4.19-9.26 6.25a8.382 8.382 0 0 1-1.44.552zm39.5 42.427c-5.46 3.39-10.25 6.362-15.04 9.353a16.246 16.246 0 0 0-3.4 2.321c-2.72 2.934-8.57.678-9.72-2.824-2.26-6.88-4.83-13.658-7.08-20.543-1.15-3.532-1.89-7.2-2.76-10.819a14.271 14.271 0 0 1-.15-2.411 8.535 8.535 0 0 1 1.38.487c5.26 3.152 10.5 6.327 15.76 9.482 2.13 1.278 4.21 2.665 6.43 3.749 5.5 2.679 9.08 7.669 14.58 11.205zm-4.03 45.979c-3.09.762-6.04 1.915-9.46.478a30.822 30.822 0 0 1-9.51-5.685 2.917 2.917 0 0 1-.85-3.488c2.04-6.059 4.06-12.125 5.95-18.23.43-1.4.25-2.987.53-4.454a3.388 3.388 0 0 1 1.07-2.112q7.14-4.539 14.43-8.844c1.16-.685 2.11-.125 3.3.665 2.93 1.946 2.62 4.415 2.4 7.381-.66 8.916-5.53 15.363-11.67 21.172a9.968 9.968 0 0 1-1.52 1.066c-2.78 1.742-3.18 4.18-.85 6.49a47.086 47.086 0 0 0 4.71 3.7c.52.4 1.08.745 1.63 1.116l-.16.745zm-133.63-.841a21.456 21.456 0 0 1 2.42.014c3.18.36 5.2-1.545 6.85-3.756a3.543 3.543 0 0 0-.03-3.2 15.632 15.632 0 0 0-3.44-3.777c-6.98-5.806-11.94-12.877-13.97-21.827a12.145 12.145 0 0 1-.24-2.254c-.06-3.052 1.1-3.9 3.75-2.3 5.64 3.424 11.15 7.068 16.66 10.692a5.15 5.15 0 0 1 1.25 1.863c1.42 2.59 2.95 5.14 4.19 7.817a34.931 34.931 0 0 1 1.63 5.295c.3 1.06.42 2.173.78 3.207 1.33 3.82-.32 8.546-3.99 10.3a12.882 12.882 0 0 1-5.71 1.294 54.826 54.826 0 0 1-8.73-1.292 5.24 5.24 0 0 1-1.75-1.371zm92.37-71.11c.61-.064.88-.113 1.15-.116 3.99-.036 3.67.048 4.65 3.892 1.8 7.074 3.83 14.105 6.13 21.034 2.28 6.86 5.13 13.531 7.5 20.361a29.949 29.949 0 0 1 1.49 14.059 20.811 20.811 0 0 1-.8 2.974c-.59 1.913-1.32 3.774-.18 5.793a1.889 1.889 0 0 1-.64 1.717 19.691 19.691 0 0 1-4.41 1.708c-2.6.612-5.27.907-7.87 1.5-1.34.308-2.46-.156-2.58-1.24a3.385 3.385 0 0 1 1.54-2.548c1.77-1.072 3.52-.493 4.79 1.173a2.511 2.511 0 0 0 .54.594 5.424 5.424 0 0 0 1.24.28c-.62-1.593-1.09-2.837-1.57-4.077a7.655 7.655 0 0 1-.97-2.537 177.341 177.341 0 0 0-6.7-51.322c-1.18-4.308-2.17-8.673-3.31-13.245zm-55.46-.833c-.78 4.55-1.66 8.866-2.25 13.222-1.26 9.434-2.47 18.877-3.52 28.337-.89 8.023-1.42 16.085-2.36 24.1-.22 1.936-1.32 3.814-2.26 5.59-.2.389-1.46.364-2.21.285a15.726 15.726 0 0 1-2.64-.744.5.5 0 0 1-.15-.362c1.02-3.263.21-6.379-.63-9.526a8.4 8.4 0 0 1-.02-2.874c1.3-12.443 3.99-24.625 6.89-36.767 1.15-4.82 2.38-9.623 3.56-14.434a7.086 7.086 0 0 0 .2-1.015c.55-5.528.28-4.569 5.39-5.812zm-11.01-29.346c3.41 4.81 6.78 9.551 10.14 14.293l-.49.453c-2.79-1.842-5.63-3.595-8.33-5.558-1.73-1.266-3.42-2.259-5.67-1.872a2.945 2.945 0 0 1-1.63-.2c-1.81-.841-3.56-.529-5.39 0a4.155 4.155 0 0 1-5.04-1.886 9.853 9.853 0 0 1-1.12-8.708 2.854 2.854 0 0 0-.19-3 7.64 7.64 0 0 1-1.05-3.079c-.27-1.99.98-2.869 2.76-3.169 1.33-.225 2.41-.4 3.2-1.945.94-1.854 4.1-1.736 5.8.04a2.053 2.053 0 0 0 2.61.655c3.11-1.1 7.07 1.856 7.96 5.759.71 3.096-.24 5.446-3.56 8.217zm71.28 96.756c-3.13-22.947-6.24-45.719-9.38-68.663 1.51-.212 2.59-.287 2.95 1.316 2.73 11.9 6.03 23.7 8.01 35.72 1.56 9.474 1.49 19.217 2.16 28.84.08 1.26-.17 2.156-1.7 2.224a9.394 9.394 0 0 0-2.04.565zm-30.3-2.617c-2.35-5.4-4.61-10.563-6.8-15.76a2.655 2.655 0 0 1 .22-1.745c1.61-4.167 3.26-8.317 4.91-12.468a5.07 5.07 0 0 1 .72-1.479c.74-.9 1.39-.916 2 .272 2.61 5.08 5.29 10.121 7.9 15.2a2.05 2.05 0 0 1 .17 1.671c-2.9 4.67-5.89 9.277-9.12 14.311zm-23.05 97.867c-3.72 0-7.44-.017-11.16.01a4.019 4.019 0 0 1-3.72-1.761 2.941 2.941 0 0 1-.04-3.571 8.36 8.36 0 0 1 8.45-4.615c5.15.281 10.33.128 15.5.036a3.238 3.238 0 0 1 3.34 1.874 31.044 31.044 0 0 1 1.91 4.333c.72 2.246-.34 3.646-2.71 3.679-3.86.054-7.72.016-11.57.017zm45.03-10c3.65.186 7.31.286 10.95.587 2.77.229 6.41 5.041 5.96 7.668-.19 1.08-.49 1.977-1.93 1.928-5.58-.19-11.17-.286-16.75-.486-2.34-.083-4.68-.311-7.01-.534a2.424 2.424 0 0 1-1.45-.574c-1.37-1.455-1.33-6.228.14-7.627a6.076 6.076 0 0 1 2.22-.82 1.362 1.362 0 0 1 .41-.007h7.46v-.134zm-54.55-83.029a31.625 31.625 0 0 1-3.73-1.71 2.015 2.015 0 0 1-.65-1.624c1.32-12.7 2.48-25.413 4.12-38.067 1.24-9.57 3.1-19.063 4.74-28.579.31-1.838.44-1.817 2.73-1.911-3.99 23.819-7.1 47.687-7.21 71.896zm31.72-65.155c1.72.014 5.96 3.009 6.4 4.573a1.961 1.961 0 0 1-.12 1.191c-1.4 3.287-2.78 6.59-4.32 9.812a3.148 3.148 0 0 1-1.99 1.437c-.39.082-1.15-.808-1.48-1.406-1.63-3.029-3.18-6.1-4.73-9.172a1.976 1.976 0 0 1-.22-1.156c.47-2.254 4.23-5.293 6.46-5.274zm-24.11 79.987c-7.07-.339-13.74-1.062-19.92-3.97v-8.723c1.46.8 2.63 1.3 3.66 2.014 4.21 2.945 9.03 4 14.01 4.344 1.87.128 2.42.777 2.27 2.5-.1 1.211-.02 2.438-.02 3.84zm19.26-80.055c-2.26 2.9-4.37 5.674-6.59 8.352a1.757 1.757 0 0 1-1.66-.138c-2.65-4.157-6.22-7.825-7.15-12.923a8.416 8.416 0 0 1-.25-2.045 1.7 1.7 0 0 1 2.76-1.4 5.392 5.392 0 0 1 1.82 1.35c2.4 3.789 6.24 5.221 10.25 6.405a5.989 5.989 0 0 1 .82.404zm50 68.462a.919.919 0 0 1 .17.28c.77 3.835.81 3.94-2.87 5.227-4.77 1.672-9.62 3.157-14.28 4.672a3.294 3.294 0 0 1-.53-.757c-.54-5.555-.53-5.482 4.9-6.561 4.17-.824 8.29-1.868 12.61-2.856zm-31.39-60.162c-2.69-2.828-5.27-5.547-7.99-8.418a23.665 23.665 0 0 0 3.31-1.379c1.66-1.018 3.19-2.24 4.82-3.32a3.413 3.413 0 0 1 1.72-.679 1.518 1.518 0 0 1 .78 1.216c-.6 3.859-1.29 7.705-1.99 11.547a3.855 3.855 0 0 1-.65 1.038zm-9.55 11.263c-.95 2.092-1.56 3.687-2.4 5.148a1.885 1.885 0 0 1-1.75.334 3.819 3.819 0 0 1-1.6-1.484c-2.09-3.19-1.53-4.308 2.19-4.514a8.82 8.82 0 0 1 1.6-.143 11.794 11.794 0 0 1 1.96.664zm-37.35 51.483a30.469 30.469 0 0 1-4.23-1.467 7.186 7.186 0 0 1-1.72-1.962 7.88 7.88 0 0 1 2.55-1.084 3.619 3.619 0 0 1 3.4 4.513zm30.36-53.541a2.25 2.25 0 0 1-.79-.476c-1.65-2.533-3.31-5.057-4.83-7.667-.27-.48.09-1.335.16-2.017l.82-.122 5.07 9.982-.43.299zm11.59-10.885c-1.39 3.446-2.78 6.893-4.37 10.821a3.788 3.788 0 0 1-.76-1.362c1.38-3.269 2.83-6.5 4.26-9.748zm-5.98 76c-1.1 0-2.21-.037-3.31.008-1.99.082-2.77-.555-2.92-2.59-.08-1.03-.04-2.07-.02-3.1.07-3.349.89-4.118 4.31-3.9 1.79.114 3.56.388 5.35.506a2.292 2.292 0 0 1 2.4 2.111c.21 1.636.34 3.287.41 4.936a1.884 1.884 0 0 1-2.29 2.2c-1.31-.093-2.62-.159-3.93-.237v.074zm-14.84-7.722c1.92 0 3.85.014 5.78 0 1.1-.011 1.64.3 1.4 1.59-.24 1.339-.14 2.747-.41 4.079a1.991 1.991 0 0 1-1.24 1.374c-3.36.028-6.72-.074-10.08-.223a1.908 1.908 0 0 1-2.04-2.427 7.2 7.2 0 0 0-.23-2.654c-.47-1.612.02-2.121 1.67-2 1.71.131 3.43.029 5.15.029v.232zm22.7 3.012a8.054 8.054 0 0 1 .05-2.254 2.029 2.029 0 0 1 1.22-1.261c2.44-.4 4.91-.61 7.37-.939 1.5-.2 1.76.545 1.62 1.817a20.311 20.311 0 0 0-.16 3.891 1.742 1.742 0 0 1-1.83 2.161c-1.85.17-3.71.339-5.56.37-2.69.044-2.74-.051-2.77-2.753-.01-.344 0-.688 0-1.032h.06z" transform="translate(-1134 -131.969)"/></svg>