<svg xmlns="http://www.w3.org/2000/svg" viewBox="0 0 184.031 221"><defs><style>.cls-1 { fill: #f39400;fill-rule: evenodd; }</style></defs><path class="cls-1" d="M861 584.875h-116.7v-27.984c2.945-.095 3.248.164 3.253 2.93.011 5.454 0 10.908 0 16.58h109.578v-92.765a24.9 24.9 0 0 0-4.316-.719q-51.194-.066-102.387-.034h-2.871v52.846c-2.263-2.068-3.52-3.791-3.494-6.637.142-15.339.062-30.68.059-46.021v-3.215h113.75800000000001c1.04 0 2.08-.043 3.12-.066v105.085zm-139.548-69.275c2.88 1.119 5.486 2.089 8.045 3.17a2.011 2.011 0 0 1 .852 1.3 14.139 14.139 0 0 1 .282 2.62q.758 17.795 1.485 35.588c.261 6.576.377 13.159.723 19.729.115 2.182-.9 2.753-2.737 3.046-5.2.829-10.375 1.77-15.557 2.686a16.742 16.742 0 0 0-1.732.491l.129.769 19.074-2.753c0 3.87-.245 7.8.049 11.685.73 9.674 1.519 19.351 2.666 28.981.533 4.464-.395 8.6-1.291 12.823-.879 4.15-1.72 8.308-2.6 12.458-1.67 7.908-3.319 15.821-5.086 23.707a2.972 2.972 0 0 1-1.719 1.91 49.164 49.164 0 0 1-7.227 1.3c-1.891.2-2.6-.7-2.353-2.788.867-7.486 1.065-15.077 2.361-22.48 1.975-11.289-.124-22.321-1.036-33.446-.23-2.8-.546-5.593-.862-8.385a2.157 2.157 0 0 0-1.03-1.609c-1.7 11.456-3.158 22.954-5.162 34.356-2.009 11.422-4.563 22.748-6.953 34.489-3.667 1.454-7.83 2.8-11.959-.264a2.723 2.723 0 0 1-1.183-1.779c.175-3.111.435-6.228.886-9.312 1-6.812 2.378-13.577 3.1-20.415a105.956 105.956 0 0 0 .155-14.17c-.19-6.735-.884-13.465-.845-20.195.052-8.958.6-17.913.939-26.869l12.1 2.6.265-1.015c-2-.6-3.968-1.327-6-1.782-5.633-1.262-5.643-1.218-5.644-6.882v-5.082c4.982-.706 9.711-1.446 14.463-1.976a3.819 3.819 0 0 1 2.364 1.253c4.35 3.994 8.918 4.017 13.1-.166a27.812 27.812 0 0 0 3.545-4.529 4.341 4.341 0 0 0 .349-2.779c-.754 3.4-3.093 5.6-5.524 7.678-2.4 2.056-7.106 2.484-9.107.4-2.982-3.1-6.449-2.46-10.021-2.245-5.577.336-11.167.827-16.741.712-4.557-.094-5.812-1.663-6.227-6.066h7.584v-.66a23.845 23.845 0 0 1-3.885-.043 17.391 17.391 0 0 1-4.437-1.3c-2.5-1.159-2.442-3-1.515-5.415.883-2.3 1.4-4.633 3.2-6.538a10.3 10.3 0 0 0 1.915-4.027c2.225-7.2 4.35-14.433 6.538-21.645.242-.8.657-1.545 1.264-2.94a12.534 12.534 0 0 1 .6 2.114c.412 10.344.888 20.688 1.129 31.037.062 2.656-.636 5.331-.981 7.968a.371.371 0 1 1-.14-.008c1.6-2.694 3.977-1.944 6.259-1.381 2.8.691 5.552 1.572 8.367 2.175a6.251 6.251 0 0 0 3.056-.342c1.359-.438 2.618-1.178 3.953-1.707 1.4-.553 2.73-.781 2.828.893l10.062-.569.088-.458c-2.011-.1-4.022-.242-6.034-.3-1.511-.045-2.914.884-4.545-.632-.7-.65-3.4.085-4.645.969-2.454 1.746-4.6 1.329-7.133.407-2.39-.87-4.991-1.141-7.44-1.876a2.656 2.656 0 0 1-1.658-1.72c-.71-11.535-1.275-23.079-1.941-34.617-.129-2.24.386-3.365 2.951-3.515 1.912-.112 3.769-1.139 5.826-1.816.743 8.459 2.783 16.1 11.024 20.089 7.742-4.884 8.408-12.957 9.374-20.907zm19.8 35.339c-1.547-1.148-3.451-2.584-5.379-3.986-2.318-1.686-3.876-3.607-3.765-6.811.208-6.07.06-12.153.06-18.659l15.971 16.568c2.844-1.544 3.82-1.2 5.484 2.062.11.214.215.431.34.636 2.254 3.72 2.254 3.719 1.459 7.284 4.162-1.861 8.521-3.673 12.757-5.741 4.021-1.964 7.932-4.16 11.837-6.35a3.437 3.437 0 0 0 1.122-1.769 4.618 4.618 0 0 1 5.233-3.287c2.062.229 3.377-.683 4.783-2.062 8.764-8.592 17.618-17.091 26.448-25.616a3.711 3.711 0 0 1 1.888-1.089c-.666.719-1.324 1.444-2 2.154q-11.861 12.459-23.738 24.9c-2.542 2.648-4.036 5.279-2.6 9.241a4.735 4.735 0 0 1-5.993 6.007c-3.427-1.011-6.131-.116-8.907 1.846-2.937 2.075-6.117 3.806-9.192 5.685-2.324 1.42-4.71 2.748-6.964 4.271-4.381 2.963-5.448 2.751-8.322-2.01l1.488-2.288c-2.586 3.86-5.912 4.75-9.845 2.392-.957-.575-1.363-2.078-2.162-3.382zm67.148-34.639c5.251 7.918 10.369 15.636 15.763 23.772l16.587-31.992c-2.083.66-3.552 1.166-5.045 1.586-1.145.323-2.566 1.414-3.311-.378a3.353 3.353 0 0 1 1.4-4.41 36.513 36.513 0 0 1 3.7-1.725c2.467-1.156 4.916-2.35 7.4-3.48 1.815-.828 2.754-.268 2.836 1.7.167 4.056.313 8.114.406 12.172.036 1.528.059 3.329-1.838 3.618-.388.059-1.223-2.03-1.636-3.2a11.921 11.921 0 0 0-1-3.041q-3.4 6.573-6.793 13.145-5.3 10.268-10.593 20.536c-.148.285-.291.575-.461.846-1.366 2.175-2.336 2.2-3.569-.014-4.017-7.225-7.989-14.475-11.982-21.712-.565-1.024-1.155-2.034-2.039-3.587-.437 1.4-.733 2.185-.931 3q-5.367 21.988-10.718 43.98a8.209 8.209 0 0 1-.688 2.041c-.9 1.629-2.181 1.748-3.085.132-4.229-7.562-8.36-15.179-12.514-22.783a.929.929 0 0 1 .061-.458 4.936 4.936 0 0 1 6.255 2.082q3.087 5.582 6.176 11.163c.368.662.791 1.294 1.5 2.44 1.131-4.56 2.145-8.571 3.12-12.591 2.044-8.422 4.2-16.819 6.031-25.288.69-3.282 2.754-5.314 4.968-7.554zm-90.344-32.757c-3.283 1.121-5.955 1.952-8.554 2.974a3.837 3.837 0 0 0-1.756 1.734c-1.692 3.239-3.036 6.687-4.963 9.771-1.55 2.48-3.116 2.268-4.823-.063-4.02-5.491-3.877-10.219.614-17 2.33-3.522 4.738-6.993 7.152-10.457 2.491-3.574 5.577-4.277 9.1-1.883 1.766 1.2 3.054 1.391 4.5-.419 1.285-1.613 3.009-1.431 4.517-.334 3.527 2.566 6.221 5.785 7.16 10.188.845 3.966-.7 7.111-3.706 9.526a3.094 3.094 0 0 1-2.779.052c-2.5-1.389-4.843-3.042-6.467-4.091zm-17.22 17.788c5.025-3.48 6.912-8.45 7.563-14.189 3.719.768 6.838.028 9.132-2.676 2.905 1.9 5.757 3.725 8.543 5.646a2.025 2.025 0 0 1 .486 1.518c-.168 4.9-.471 9.76-3.279 14.069-2.32 3.562-4.642 4.71-8.83 4.034-4.491-.725-8.885-1.567-11.126-6.368-.389-.826-1.543-1.287-2.494-2.036zm78.264 33.239l-4.08 2.162c-.441-.686-.893-1.307-1.261-1.975-5.335-9.688-10.717-19.352-15.918-29.112-.715-1.34-.676-3.167-.668-4.767a2.311 2.311 0 0 1 1.571-1.482 2.346 2.346 0 0 1 1.556 1.217c2.19 3.825 4.3 7.7 6.429 11.556 4.064 7.359 8.127 14.718 12.371 22.401zm-72.72 153.419c-5.6-.8-11.186-1.642-16.792-2.36-1.647-.211-2.309-.946-2.043-2.526.209-1.242.486-2.474.767-3.7.34-1.489 1.354-1.646 2.716-1.569 2.444.139 4.9.007 7.35.08a10.294 10.294 0 0 1 3.646.47c3.6 1.531 7.11 3.286 9.563 6.528a12.08 12.08 0 0 1 .944 1.785 7.2 7.2 0 0 1-2.028.912 37.959 37.959 0 0 1-4.078.042zm8.867-12.108c2.624 1.539 5.2 1.236 7.784-.418a2.715 2.715 0 0 1 2.376.2c3.4 2.176 6.747 4.433 10.006 6.811a10.419 10.419 0 0 1 1.894 2.652 19.217 19.217 0 0 1-2.653.971c-6.415 1.359-12.236-1.381-18.221-2.822-3.328-.805-3.759-3.744-1.186-7.394zm46.34-53.4c-.868 4.86-1.68 9.731-2.615 14.579q-2.548 13.211-5.238 26.394c-.287 1.408-.4 3.389-2.421 3.122-.458-.06-1.118-2.552-.831-3.712 3.319-13.365 6.8-26.689 10.247-40.022a1.543 1.543 0 0 1 .252-.4zm81.552-.941c1.413 5.243 2.881 10.47 4.225 15.73q3.1 12.129 6.043 24.3c.4 1.657 1.337 4.173-.651 4.677-2.275.576-2.242-2.194-2.556-3.787q-3.654-18.543-7.15-37.117a33.823 33.823 0 0 1-.3-3.736zm-125.074-109.69c.375 1.739-.168 2.845-1.829 3.411-2.994 1.02-6.069 1.88-8.842-.245-1.991-1.525-.977-3.735-.73-5.694zm-7.97 11.877c1.91-.681 2.667 0 3.189 1.6a20.178 20.178 0 0 0 2.026 3.773 2.577 2.577 0 0 1-.264 3.432c-1.4 1.659-2.7 2.1-4.69 1.065-1.931-1-2.333-2.369-1.769-4.3.553-1.897 1.036-3.82 1.513-5.57zm6.7 6.081c-1.012-2.84-4.474-4.992-2.294-9.069l2.931 3.1 2.631-6.729.532.149q-1.4 6.342-2.806 12.683zm-7.2-12.024l-4.309 4.28c-1.608-1.915-2.018-4.6-1.956-7.379.011-.484.713-.953 1.1-1.429.418.38.83.768 1.257 1.14 1.352 1.184 2.713 2.361 3.903 3.388zm-2.977 12.722q-2.04-4.719-4.079-9.439l.509-.28 2.535 3.065 2.638-2.782c2.337 3.566-1.27 6.2-.62 9.307zm6.206-12.969l6.913-2.5c-.873 2.472-1.62 4.588-2.482 7.032zm-.531.7a9.629 9.629 0 0 1 .86 2.844 2.155 2.155 0 0 1-1.748 1.1 2.936 2.936 0 0 1-1.83-1.369 12.165 12.165 0 0 1 1.672-2.723z" transform="translate(-676.969 -467)"/></svg>