<svg xmlns="http://www.w3.org/2000/svg" viewBox="0 0 339.97 199.062"><defs><style>.cls-1 { fill: #fff;fill-rule: evenodd; }</style></defs><path  class="cls-1" d="M1183.6 600.483v86.036h-66.2c-.05-.75-.13-1.382-.13-2.014q-.015-40.865-.05-81.728c0-1.489.09-2.374 2.04-2.369 21 .052 42 .006 63-.009.36.001.72.044 1.34.084zm-187.543 8.4c.108 5.522-2.243 10.863.683 16.153a32.135 32.135 0 0 1 2.234 5.9c.593 1.878 1.666 2.54 3.686 2.513 8.43-.114 16.86-.048 25.3-.048h2.39c.61 2.309.84 4.8 3.84 4.934 2.25.1 3.48-1.26 4.5-4.782 4.17 0 8.37-.013 12.57.021a1.571 1.571 0 0 1 1.14.465 20.854 20.854 0 0 1 .3 5.659c-.33 1.892-1.82 3.015-3.99 3.007-6.83-.025-13.66.019-20.5.035h-2.49v29.8c.67.036 1.37.1 2.06.106 4 .011 8 0 12 .008 3.3 0 3.48.04 3.93 3.254a17.335 17.335 0 0 1 .03 5.748c-.48 2.317-2.12 3.152-4.61 3.044-2.24-.1-2.95-1.652-3.16-3.5a1.458 1.458 0 0 0-1.86-1.5 16.6 16.6 0 0 1-2.61 0c-2.24-.179-4.18-.275-4.77 2.774-.24 1.234-1.63 2.389-2.74 3.28-2.01 1.618-4.93.285-5.68-2.546a20.283 20.283 0 0 1-.3-3.356h-10.63c-.18.668-.33 1.3-.53 1.912-.75 2.353-2.35 3.323-5.3 3.172-2.172-.111-2.617-1.8-3-3.46a7.9 7.9 0 0 1 3.249-8.227 5 5 0 0 1 2.48-.521c4.93-.047 9.85-.023 14.93-.023v-29.86c-.74-.033-1.51-.1-2.28-.1-6.54-.008-13.09-.067-19.629.015-5.3.066-10.1-4.339-10.334-9.458-.108-2.387.107-4.788.153-7.183.045-2.308-.028-4.621.106-6.922.321-5.526-2.022-10.31-4.3-15.034-3.093-6.4-6.244-12.8-9.879-18.9-5.074-8.512-7.373-17.777-8.485-27.432a86.6 86.6 0 0 1 1.867-30.487 20.518 20.518 0 0 1 3.476-6.641c1.167-1.65 2.763-1.3 3.461.63a47.473 47.473 0 0 1 1.63 6.09c5.018 23.15 10.848 46.089 17.721 68.761 1.27 4.19 3.569 6.009 7.928 6.393 6.36.561 12.4-.983 18.44-2.577 5.42-1.43 10.85-3.011 16.51-2.458a25.072 25.072 0 0 1 8.35 2.13c6.93 3.344 7.84 11.034 2.21 16.346-1.9 1.791-3.9 3.49-5.67 5.406-3.02 3.281-4.92 6.959-3.68 11.676a2.4 2.4 0 0 1-2.2 3.115c-1.48.1-2.49-1.175-2.6-3.1-.38-6.306 2.47-10.957 7.24-14.783a32.016 32.016 0 0 0 5.14-5.247c1.68-2.143 1.13-4.444-1.11-6.021-4.13-2.917-8.85-3.334-13.57-2.492-6 1.068-11.91 2.622-17.85 3.992a36.649 36.649 0 0 1-15.797.317zm52.743-16.112l-20.33-5.11c-.6-1.5-1.53-3.7-2.34-5.935a1.73 1.73 0 0 1 .36-1.463 3.6 3.6 0 0 0 .79-4.213c-1.68-4.385-3.3-8.8-5.16-13.111-2-4.662-5.89-7.6-10.39-9.418-2.78-1.127-5.2-.486-6.63 2.311-2.35 4.581-2.43 9.322-1.63 14.218.59 3.61 1.13 7.227 1.69 10.842a6.508 6.508 0 0 0 5.27 5.543 2.828 2.828 0 0 1 1.72 1.486c.6 1.388.84 2.924 1.33 4.363.77 2.29 1.64 4.551 2.54 7.014a3.331 3.331 0 0 1-1.16.52c-5.17.617-10.35 1.652-15.555.228a5.9 5.9 0 0 1-4.466-4.321c-2.033-7.414-4.384-14.761-5.968-22.269-.6-2.854.308-6.129.947-9.122a39.4 39.4 0 0 1 7.369-15.871 32.445 32.445 0 0 1 5.693-5.6c.89-.7 2.45-.538 3.88-.8a4.685 4.685 0 0 0-.85-1.47c-2.51-2.132-4.77-4.941-7.689-6.127-6.106-2.484-9.706-13.822-6.019-18.618 1.233-1.6 2.246-3.393 3.594-4.885a2.933 2.933 0 0 1 2.533-.7 4.593 4.593 0 0 0 5.581-1.632 2.464 2.464 0 0 1 2.31-.543c2.45 1.483 4.72 3.263 7.14 4.814.58.373 1.46.277 2.74.482a34.505 34.505 0 0 1 1.51 4.9c.28 1.627.06 3.339.56 4.955.12-3.956.64-7.974-1.54-11.623a1.441 1.441 0 0 0-.84-.635c-3.34-.608-5.96-2.639-8.73-4.364-1.18-.734-2.1-1.132-3.42.152-1.07 1.032-2.81 1.367-4.253 2.012l-.382-.681a11.153 11.153 0 0 1 .918-1.019c7.5-6.543 14.547-6.211 22.747-.915 10.42 6.728 11.48 20.019 8.17 27.965a17.755 17.755 0 0 1-6.29 7.563c-2.36 1.7-4.6 3.233-7.59 2.527-2.24-.527-4.41-1.34-6.61-2-.76-.225-1.54-.36-2.31-.536l-.16.59c2.66 1.017 5.33 2.017 7.98 3.056a29.792 29.792 0 0 1 5.59 2.378 20.482 20.482 0 0 1 3.8 3.911c4.19 4.8 9.09 9.03 12.13 14.756a8.827 8.827 0 0 1 1.32 4.2c-.15 3.3 1.02 6.011 2.63 8.75 2.61 4.423 5 8.967 7.47 13.443zm-34.7-68.818l.22-.666c-1.08-.079-2.25-.467-3.22-.174a4.728 4.728 0 0 0-3.44 4.208l6.44-3.37zm77.18 125.04c1.97-3.466 3.86-6.921 5.9-10.275a8.06 8.06 0 0 1 2.26-1.7c.44.772 1.28 1.572 1.23 2.311-.43 6.273-.88 12.551-1.63 18.79a38.849 38.849 0 0 1-2.12 7.253c-.61 1.855-1.93 2.185-3.55.993a7.886 7.886 0 0 1-.99-.849c-4.86-4.957-9.69-9.942-14.58-14.868a50.788 50.788 0 0 0-4.86-4.35 3.418 3.418 0 0 1-1.59-3.215c.28-7.142-1.5-13.986-3.71-20.675-.76-2.295-2.52-4.26-3.82-6.375l-.52.33c1.23 3.352 2.73 6.634 3.64 10.072a61.962 61.962 0 0 1 2.08 20.45c-.38 5.552-.02 11.154-.05 16.733-.02 3.408-.04 6.822-.28 10.219a5.041 5.041 0 0 1-1.38 3c-2.04 1.963-7.66 2.54-10.13 1.113a2.884 2.884 0 0 1-1.12-1.969q-1.125-11.848-2.07-23.712c-.29-3.676-1.27-7.282 1.11-10.945 1-1.523.45-4.425-.14-6.49-.55-1.944-.78-3.3 1.39-4.289l-.33-.539c-1.19.307-2.38.619-3.57.918a8.433 8.433 0 0 1-1.88.408c-3.41.036-6.83-.061-10.24.037-1.65.047-1.97-.646-1.81-2.095.43-3.954 3.19-6.4 5.73-8.977 1.78-1.8 3.84-3.35 5.47-5.266a7.574 7.574 0 0 0 1.35-3.75c.36-2.6.98-3.383 3.5-3.987 4.38-1.048 7.9-.055 10.56 3.819 8.48 12.4 17.05 24.747 25.58 37.112.23.336.49.651.57.766zm-33.6-19.993c4.76-2.722 5.4-3.481 4.48-4.967zm223.02-16.849a14.561 14.561 0 0 1 1.15 2.617 23.611 23.611 0 0 1-2.38 16.216c-.29.552-1.58.816-2.4.819-15.19.06-30.38.1-45.56.022-2.01-.011-3.28.484-3.54 2.5a105.8 105.8 0 0 0-1.15 11.2c-.17 9.654-.05 19.313-.15 28.969a2.731 2.731 0 0 1-1.24 2.085 9.135 9.135 0 0 1-9.45-1.184 5.03 5.03 0 0 1-1.4-3.406c-.28-4.779-.2-9.578-.49-14.356-.62-10.426-1.42-20.842-2.05-31.268a15.959 15.959 0 0 1 .46-5.567c1.37-4.411 4.52-6.636 9.21-6.9 8.17-.462 16.23-2.388 24.48-1.734a3.783 3.783 0 0 1 1.62.424c10.16 6.195 20.42 4.69 30.73.5l2.16-.94zm-25.72 10.066q6.12-2.186 12.23-4.373l-.25-.633c-4.32.832-8.61 1.767-11.98 5.003zm-4.27-70.114c.36-2.247 1.13-3.428 3.43-3.333a20.878 20.878 0 0 0 12.88-3.284 2.151 2.151 0 0 1 1.89.116 17.716 17.716 0 0 1 8.45 12.648 145.225 145.225 0 0 1 1.18 17.342c.17 5.079-.3 10.188.03 15.249a53.011 53.011 0 0 0 2.12 11.279c.79 2.7.35 5.167-.14 7.711a2.356 2.356 0 0 1-1.32 1.261c-7.96 3.69-16.18 5.011-24.79 2.633-4.34-1.2-5.24-2.725-5.3-7.248a12.674 12.674 0 0 1 2.84-8.653c5.44-6.627 7.32-14.556 8.23-22.807.61-5.551 1.17-11.112 1.53-16.683a4.69 4.69 0 0 0-1.47-2.991 10.4 10.4 0 0 0-9.56-3.243zm27.41-33.225c.63 4.757-2.91 7.141-5.65 9.842-1.55 1.533-2.83 1.144-4.09-.726a5.876 5.876 0 0 0-.47-.727c-2.62-2.8-4.14-6.159-5.5-9.706-.66-1.7-2.32-3.02-3.52-4.518a9.388 9.388 0 0 1-1.82-2.4c-1.01-2.99-3.43-3.548-6.03-3.632-1.57-.051-3.15.516-4.73.559a50.1 50.1 0 0 1-6.9-.235 2.642 2.642 0 0 1-1.8-1.585c-1.34-4.935-1.54-11.273 4.38-15.1 3.68-2.382 7.4-1.956 11.02-.519a50.964 50.964 0 0 0 10.14 3.185c5.85 1.028 10.98 4.4 12.63 10.635 1.28 4.839 1.6 9.938 2.34 14.924zm-280.259 92.489a25.426 25.426 0 0 0 4.209.383 84.6 84.6 0 0 0 8.63-.988c4.14-.714 8.24-1.613 12.35-2.481 1.84-.389 3.69-.815 5.49-1.362 4.53-1.377 8.72-.175 12.83 1.591 1.82.782 2.37 1.861 1.19 3.878-1.14 1.927-2.78 2.988-4.47 4.257-4.51 3.39-7.53 7.81-7.97 13.656a5.35 5.35 0 0 1-.24.913c-.59.043-1.16.12-1.73.12-8.35 0-16.71-.037-25.06.022a2.394 2.394 0 0 1-2.57-1.724 32.4 32.4 0 0 1-2.659-18.265zm115.059-15.527v-7.766a14.293 14.293 0 0 1 1.53-.165q40.515.031 81.04.03c2.18 0 3.04.5 2.77 2.771a45.827 45.827 0 0 0-.04 5.13h-85.3zm123.22 90.375v-48.252h5.98c-.23 6.339-.45 12.47-.68 18.793h35.02v-2.963c0-4.723.03-9.446-.03-14.169-.01-1.2.31-1.745 1.59-1.677 1.43.077 2.86.018 4.58.018-.15 2.946-.31 5.605-.41 8.265-.48 12.632-.98 25.263-1.39 37.9-.06 1.779-.63 2.364-2.43 2.325-1.6-.034-1.92-.623-1.91-2.067.05-6.976-.04-13.952.04-20.927.02-1.729-.47-2.225-2.21-2.211q-15.36.117-30.74 0c-1.81-.014-2.4.574-2.44 2.334q-.225 9.693-.65 19.383c-.15 3.641-.23 3.638-4.32 3.248zm-2.8-80.373c3.71-5.568 7.45-10.825 10.79-16.323a16.772 16.772 0 0 0 2.89-8.945c-.02-7.178.34-14.366.78-21.536.35-5.84 2.89-5.944 7.27-5.263 3.61.563 5.22 2.883 5.19 6.524-.09 10.189-2.58 19.985-4.93 29.8a4.886 4.886 0 0 1-.81 1.508c-3.05 4.337-6.01 8.74-9.21 12.959a38.638 38.638 0 0 1-5.55 5.693 2.816 2.816 0 0 1-2.72-.152 37.454 37.454 0 0 1-3.7-4.265zm-209.67-23.479c.6.841 1.68 1.748 1.96 2.855 1.26 5.039 5.42 5.194 9.34 5.942 4.69.895 9.36 1.895 14.02 2.9 5.2 1.114 10.35 2.086 15.67.51 1.35-.4 2.97.143 4.91.285l13.46-13.9a13.8 13.8 0 0 1 1.52-1.555 1.3 1.3 0 0 1 2.34 1.044 5.836 5.836 0 0 1-1.19 2.706c-4.08 4.633-8.25 9.181-12.38 13.773-.84.934-1.44 1.75-.39 3.163a4.389 4.389 0 0 1-3.17 6.741c-2.09.155-4.25-.455-6.38-.793-3.62-.575-7.23-1.172-10.84-1.839a5.366 5.366 0 0 1-2.18-.965c-2.92-2.225-5.57-4.921-8.74-6.7-4.12-2.309-8.81-1.382-13.25-.761-2.92.408-5.72 1.547-8.62 2.153a2.927 2.927 0 0 1-2.49-.732 17.812 17.812 0 0 1-2.99-10.046 2.1 2.1 0 0 1 1.11-1.5c2.64-1.139 5.34-2.132 8.29-3.281zm206.47 51.937h2.55c14.89.013 29.79-.009 44.68.079 2.08.012 3.24-.688 3.91-2.628 1.01-2.952 2.28-5.819 3.22-8.79a11.357 11.357 0 0 0 .44-4.264 25.226 25.226 0 0 1 .63-9.162c4.17-14.966 7.92-30.046 11.83-45.083.5-1.95 1.05-3.889 1.57-5.815 4.49.87 5.65 2.486 4.68 6.611q-5.6 23.965-11.28 47.912c-1.62 6.851-3.38 13.672-4.95 20.535-.39 1.68-1.11 2.178-2.8 2.174-17.43-.048-34.87-.007-52.31-.036a9.087 9.087 0 0 1-2.36-.664l.19-.869zm9.72-124.317c3.43-.369 6.56-.758 9.69-1.026 2.78-.236 5.28.011 6.64 3.137.54 1.232 2.05 2 2.83 3.176 1.26 1.9 2.31 3.936 3.38 5.951.66 1.239 1.07 2.629 1.81 3.8 1.01 1.581 2.35 2.957 3.33 4.555a2.316 2.316 0 0 1-.1 2.192c-5.95 5.833-19.92 7.223-25.58-2.249a15.446 15.446 0 0 1-1.86-9c.12-2.651-.19-5.321-.26-7.984-.02-.99.09-1.983.12-2.556zm-235.64 55.266c.51-2.975.74-5.205 1.31-7.345a3.949 3.949 0 0 1 4.26-3.032c3.2.111 5.94.912 8.01 3.872a26.036 26.036 0 0 1 4.93 11.872 5.905 5.905 0 0 0 1.76 2.845c1.97 2.106 2.07 4.091-.34 5.646a52.551 52.551 0 0 1-9.83 5.332c-3.03 1.134-6.42.374-7.28-3.659-1.14-5.355-1.97-10.772-2.82-15.535zm77.28 122.629c-.68.043-1.37.124-2.05.124q-11.325-.006-22.63-.036c-2.31 0-3.11-.677-2.99-2.934a29.986 29.986 0 0 1 .92-5.116 1.477 1.477 0 0 1 1.01-.938 109.345 109.345 0 0 1 11.71.107c1.67.156 3.23 1.506 4.82 2.364q4.11 2.227 8.17 4.535a7.844 7.844 0 0 1 1.32 1.221l-.28.669zm120.26-2.31a11.478 11.478 0 0 1 1.64-1.456c3.93-2.146 7.85-4.332 11.87-6.3 1.02-.5 2.39-.318 3.6-.342 2.46-.047 4.93-.065 7.39.008a2.105 2.105 0 0 1 1.59.708 25.083 25.083 0 0 1 .87 5.742 2.833 2.833 0 0 1-1.94 2.01c-7.89.166-15.8.139-23.7.145a6.139 6.139 0 0 1-1.32-.519zm-25.25-129.012l2.17.969c-3.82 9.564-7.58 18.965-11.42 28.567h-29.94v-2.292h2.4c8 0 15.99-.032 23.98.031a2.282 2.282 0 0 0 2.54-1.714c3.33-8.432 6.75-16.828 10.27-25.565zm76.72-9.5c-1.04-.378-3.14.209-2.31-2.5.15-.475-.58-1.413-1.13-1.867-1.34-1.111-1.78-2.578-.81-3.81.53-.678 2.08-.663 3.19-.756 2.49-.207 4.99-.222 7.48-.452a18.5 18.5 0 0 0 2.69-.837c2.49-.642 3.99-.04 5.4 2.092 1.25 1.893.88 3.616-1.07 4.769-4.07 2.394-8.64 2.836-13.44 3.361zm-18.6 63.09c-6.42 3.158-12.9 3.949-16.23 1.753a12.815 12.815 0 0 1 2.81-2.223c2.56-1.014 5.23-1.75 7.84-2.612 2.92-.959 3.87 1.498 5.58 3.082zm-176.95 18.854l4.48-4.967c.92 1.483.28 2.242-4.48 4.967z" transform="translate(-964 -488.938)"/></svg>