<svg xmlns="http://www.w3.org/2000/svg" viewBox="0 0 92 92">
  <defs>
    <style>
      .cls-1 {
        fill-rule: evenodd;
      }
    </style>
  </defs>
  <path class="cls-1" d="M877.3,153.967l14.739,14.427a1.872,1.872,0,0,1-2.619,2.676l-14.739-14.427A1.872,1.872,0,0,1,877.3,153.967Zm-13.243-8.26-14.115-14.115a1.872,1.872,0,0,1,2.648-2.648l14.115,14.115A1.872,1.872,0,0,1,864.059,145.707Zm28-16.763a1.873,1.873,0,0,1,0,2.648l-39.463,39.463a1.872,1.872,0,0,1-2.648-2.647l39.464-39.464A1.872,1.872,0,0,1,892.055,128.944Zm21.862,37.645a1.872,1.872,0,1,1-3.492-1.351,42.3,42.3,0,1,0-10.143,15.227,1.872,1.872,0,1,1,2.594,2.7A45.862,45.862,0,1,1,913.917,166.589Z" transform="translate(-825 -104)"/>
</svg>
