<svg xmlns="http://www.w3.org/2000/svg" viewBox="0 0 200.97 226"><defs><style>.cls-1 { fill-rule: evenodd; }</style></defs><path class="cls-1" d="M1123.92 2148.78l-7.99-18.1c-.46-1.06-.98-2.1-1.53-3.1a26.728 26.728 0 0 0-14.95-12.49 27.094 27.094 0 0 0-19.49.81l-3.8 1.64-7.15-16.2a22.145 22.145 0 0 0-29.22-11.27l-10.82 4.67a18.544 18.544 0 0 0-6.93-6.38c-5.37-2.77-11.86-2.52-19.3.74l-8.032 3.52-9.776-22.16c-3.745-8.49-10.683-14.31-19.035-15.97a24.072 24.072 0 0 0-21.341 5.9 26.558 26.558 0 0 0-6.1 30.27l36.447 83.13c-10.95-2.66-23.682-.55-31.072 6.02a4.862 4.862 0 0 0-.839.68 23.036 23.036 0 0 0-6.965 17.51c.412 8.1 5.091 16.12 13.529 23.19l.113.09 73.641 57.75a4.534 4.534 0 0 0 2.8.97 4.64 4.64 0 0 0 1.82-.38l105.5-46.22a4.465 4.465 0 0 0 2.69-3.84l.58-9.16a154.324 154.324 0 0 0-12.78-71.62zm3.76 71.06l-.4 6.43-100.51 44.02-71.454-56.04c-6.434-5.4-9.983-11.18-10.264-16.71a13.775 13.775 0 0 1 3.709-10 5.683 5.683 0 0 0 .492-.44c6.6-6.77 23.03-7.26 31.567-.98l18.332 17.54a4.508 4.508 0 1 0 6.258-6.49l-17.91-17.14-40.767-92.98a17.5 17.5 0 0 1 4.062-20.15 15.233 15.233 0 0 1 13.331-3.58c5.5 1.09 9.952 4.92 12.533 10.77l30.831 69.88a4.516 4.516 0 0 0 8.27-3.63l-17.416-39.48 8.036-3.52c4.81-2.11 8.68-2.44 11.5-.98 2 1.03 3.67 3.03 4.96 5.96l18.19 41.21a4.514 4.514 0 0 0 8.27-3.62l-16.36-37.07 10.46-4.52a.142.142 0 0 0 .06-.02 13.1 13.1 0 0 1 17.28 6.66l21.61 48.98a4.514 4.514 0 0 0 8.27-3.62l-10.82-24.53 3.76-1.64a17.893 17.893 0 0 1 22.92 7.75c.42.78.82 1.58 1.18 2.4l7.99 18.1a145.342 145.342 0 0 1 12.03 67.44zm-21.34-.73l-5.24 2.29a4.507 4.507 0 0 0 3.63 8.25l5.24-2.29a4.507 4.507 0 1 0-3.63-8.25zm-21.13 9.36l-55.95 24.45a4.5 4.5 0 0 0 3.63 8.24l55.95-24.45a4.5 4.5 0 1 0-3.63-8.24z" transform="translate(-936 -2054)"/></svg>