<svg xmlns="http://www.w3.org/2000/svg" viewBox="0 0 85.062 77">
  <defs>
    <style>
      .cls-1 {
        fill-rule: evenodd;
      }
    </style>
  </defs>
  <path class="cls-1" d="M457.606,105.79h8.381v17.62l-8.344-7.234Zm9.171,29.925L434.2,105.863,399.45,135.9c-5.815,5.022-8.483,0-8.483,0L434.2,97l41.832,38.719S473.507,140.675,466.777,135.715Zm-3.262,2.689v33.1a2.233,2.233,0,0,1-2.25,2.418H440.277l0.036-17.9a2.8,2.8,0,0,0-3.118-2.96H428.3c-2.815,0-2.509,2.96-2.509,2.96l-0.035,17.952S406.627,174,404.316,174a1.8,1.8,0,0,1-1.783-1.941V138.4l31.4-26.886Z" transform="translate(-390.969 -97)"/>
</svg>
