<svg xmlns="http://www.w3.org/2000/svg" viewBox="0 0 120 136"><defs><style>.cls-1 { fill-rule: evenodd; }</style></defs><path class="cls-1" d="M207.9 414.4s-.648 8.306-1.3 11.966c0 0-21.91 13.626-58.6 13.626-36.694-.026-58.605-13.626-58.605-13.626-.647-3.66-1.3-11.966-1.3-11.966-.442-6.111.088-18.5 11.308-21.231a95.363 95.363 0 0 0 27.27-11.888l9.572 28.865 1.8 5.435.03-.085 1.56 4.615 5.036-13.654c-12.368-16.5 2.5-16.333 3.328-16.3.825-.029 15.7-.2 3.328 16.3l5.036 13.654 1.561-4.615.029.085 1.8-5.435 9.542-28.865a95.376 95.376 0 0 0 27.271 11.888c11.22 2.725 11.75 15.118 11.334 21.231zm-34.6-52.747c-1.325 8.03-8.04 18.253-18.553 21.883a21.175 21.175 0 0 1-13.576.031c-10.691-3.608-17.2-13.858-18.495-21.914-1.413-.113-3.269-2-5.3-8.752-2.738-9.269.177-10.646 2.651-10.423a22.887 22.887 0 0 1-1.061-3.8c-.883-4.339-1.119-8.362-.058-12.223a26.486 26.486 0 0 1 7.451-12.5 34.869 34.869 0 0 1 6.891-5.465 27.134 27.134 0 0 1 6.714-3.291 23.744 23.744 0 0 1 6.1-1.1 26.132 26.132 0 0 1 15.284 3.1 18.685 18.685 0 0 1 7.451 6.618s12.369.817 8.187 24.837a23.619 23.619 0 0 1-1.06 3.8c2.474-.224 5.39 1.157 2.65 10.42-2.007 6.781-3.862 8.664-5.276 8.777z" transform="translate(-88 -304)"/></svg>