<svg xmlns="http://www.w3.org/2000/svg" width="128" height="128" viewBox="0 0 128 128"><defs><style>.cls-1 { fill-rule: evenodd; }</style></defs><path class="cls-1" d="M217.58 457.479c-1.771 11.047-8.966 21.088-19.032 25.469a22.161 22.161 0 0 1-6.23 1.711 24.188 24.188 0 0 1-23.627 20.335h-51.711c-13.222 0-23.98-11.011-23.98-24.545 0 0-.478-10.339 5.969-16.938 5.823-5.963 30.1-28.972 30.1-28.972v-8.431h5.328v6.882h16.883v-6.882h5.329v8.432l30.291 29.18a24.886 24.886 0 0 1 5.758 15.379 17.481 17.481 0 0 0 3.8-1.169 27.674 27.674 0 0 0 9.572-43.03s-1.76 7.1-9.095 6.467c-.8-.069-19.439-6.171-19.439-6.171a8.623 8.623 0 0 1-5.211-10.867c1.225-3.955.03-8.52-3.365-12.855a33.25 33.25 0 0 0-15.92-10.545 36.254 36.254 0 0 0-11.179-1.83c-8.987 0-15.957 3.759-17.76 9.578a8.483 8.483 0 0 1-8 6.187c-1.369.41-20.43-6.236-20.43-6.236a8.622 8.622 0 0 1-5.211-10.868l2.425-7.825c2.547-8.224 13.171-12.94 29.149-12.94a109.782 109.782 0 0 1 36.452 6.338c59.264 21.146 49.908 44.085 49.406 45.706 0 0 12.559 10.776 9.728 28.44zm-34.633 9.9l-30.059-28.933h-20.105l-30.058 28.934a19.933 19.933 0 0 0-4.4 13.069 18.9 18.9 0 0 0 18.652 19.09h51.711a18.9 18.9 0 0 0 18.653-19.09s.381-7.449-4.394-13.069zm-26.109-78.848c-12.265-3.981-24.314-6.083-34.844-6.083-13.3 0-22.3 3.414-24.07 9.134l-2.424 7.828a3.146 3.146 0 0 0 1.74 4.019s18.564 5.979 18.825 5.979a3.209 3.209 0 0 0 2.916-2.379c2.518-8.132 11.484-13.384 22.839-13.384a41.5 41.5 0 0 1 12.788 2.083 38.622 38.622 0 0 1 18.473 12.331c4.548 5.8 6.07 12.165 4.288 17.917a3.146 3.146 0 0 0 1.74 4.02l18.057 5.859a3.074 3.074 0 0 0 3.684-2.258l2.425-7.827c2.951-9.53-15.395-27.165-46.437-37.238zm-14 102.816a18.333 18.333 0 1 1 17.9-18.327 18.141 18.141 0 0 1-17.901 18.328zm0-31.2a12.878 12.878 0 1 0 12.575 12.877 12.743 12.743 0 0 0-12.576-12.88z" transform="translate(-90 -377)"/></svg>